<?xml version="1.0" encoding="UTF-8" standalone="no"?>
<svg
   xmlns:dc="http://purl.org/dc/elements/1.1/"
   xmlns:cc="http://creativecommons.org/ns#"
   xmlns:rdf="http://www.w3.org/1999/02/22-rdf-syntax-ns#"
   xmlns:svg="http://www.w3.org/2000/svg"
   xmlns="http://www.w3.org/2000/svg"
   xmlns:sodipodi="http://sodipodi.sourceforge.net/DTD/sodipodi-0.dtd"
   xmlns:inkscape="http://www.inkscape.org/namespaces/inkscape"
   aria-hidden="true"
   focusable="false"
   data-prefix="far"
   data-icon="square"
   class="svg-inline--fa fa-square fa-w-14"
   role="img"
   viewBox="0 0 20 20"
   version="1.1"
   id="svg4"
   sodipodi:docname="check-square-black.svg"
   inkscape:version="0.92.5 (2060ec1f9f, 2020-04-08)"
   width="20"
   height="20">
  <metadata
     id="metadata10">
    <rdf:RDF>
      <cc:Work
         rdf:about="">
        <dc:format>image/svg+xml</dc:format>
        <dc:type
           rdf:resource="http://purl.org/dc/dcmitype/StillImage" />
        <dc:title></dc:title>
      </cc:Work>
    </rdf:RDF>
  </metadata>
  <defs
     id="defs8" />
  <sodipodi:namedview
     pagecolor="#ffffff"
     bordercolor="#666666"
     borderopacity="1"
     objecttolerance="10"
     gridtolerance="10"
     guidetolerance="10"
     inkscape:pageopacity="0"
     inkscape:pageshadow="2"
     inkscape:window-width="1920"
     inkscape:window-height="1015"
     id="namedview6"
     showgrid="false"
     inkscape:zoom="7.375"
     inkscape:cx="-28.57587"
     inkscape:cy="31.121221"
     inkscape:window-x="0"
     inkscape:window-y="0"
     inkscape:window-maximized="1"
     inkscape:current-layer="svg4" />
  <path
     d="M 17.857143,9.9999999e-8 H 2.1428571 C 0.95982144,9.9999999e-8 0,0.95982108 0,2.1428571 V 17.857143 C 0,19.040179 0.95982144,20 2.1428571,20 H 17.857143 C 19.040179,20 20,19.040179 20,17.857143 V 2.1428571 C 20,0.95982108 19.040179,9.9999999e-8 17.857143,9.9999999e-8 Z M 17.589286,17.857143 H 2.4107143 c -0.1473214,0 -0.2678572,-0.120536 -0.2678572,-0.267857 V 2.4107141 c 0,-0.147321 0.1205358,-0.267857 0.2678572,-0.267857 H 17.589286 c 0.147321,0 0.267857,0.120536 0.267857,0.267857 V 17.589286 c 0,0.147321 -0.120536,0.267857 -0.267857,0.267857 z"
     id="path2"
     style="fill:#000000;fill-opacity:1;stroke-width:0.04464285"
     inkscape:connector-curvature="0" />
</svg>
