<svg width="56" height="56" viewBox="0 0 56 56" fill="none" xmlns="http://www.w3.org/2000/svg">
<path d="M20.5098 34.2188C20.1777 34.5508 20.168 35.1172 20.5098 35.4492C20.8516 35.7812 21.418 35.7812 21.75 35.4492L28 29.1992L34.25 35.4492C34.582 35.7812 35.1582 35.791 35.4902 35.4492C35.8223 35.1074 35.8223 34.5508 35.4902 34.2188L29.2402 27.959L35.4902 21.709C35.8223 21.377 35.832 20.8105 35.4902 20.4785C35.1484 20.1367 34.582 20.1367 34.25 20.4785L28 26.7285L21.75 20.4785C21.418 20.1367 20.8418 20.127 20.5098 20.4785C20.1777 20.8203 20.1777 21.377 20.5098 21.709L26.7598 27.959L20.5098 34.2188Z" fill="black" fill-opacity="0.9"/>
</svg>
