<svg width="20" height="20" viewBox="0 0 18 18" fill="none" xmlns="http://www.w3.org/2000/svg">
<path d="M9.00018 11.182C10.2052 11.182 11.182 10.2052 11.182 9.00018C11.182 7.79519 10.2052 6.81836 9.00018 6.81836C7.79519 6.81836 6.81836 7.79519 6.81836 9.00018C6.81836 10.2052 7.79519 11.182 9.00018 11.182Z" stroke="white" stroke-miterlimit="10" stroke-linecap="round" stroke-linejoin="round"/>
<path d="M17 10.0909V7.90909L14.6709 7.71491C14.5233 7.06073 14.2647 6.44982 13.9175 5.9L15.4284 4.11455L13.8855 2.57164L12.1 4.08255C11.5498 3.73491 10.9393 3.47673 10.2851 3.32909L10.0909 1H7.90909L7.71491 3.32909C7.06073 3.47673 6.44982 3.73527 5.9 4.08255L4.11455 2.57164L2.57164 4.11455L4.08255 5.9C3.73491 6.45018 3.47673 7.06073 3.32909 7.71491L1 7.90909V10.0909L3.32909 10.2851C3.47673 10.9393 3.73527 11.5502 4.08255 12.1L2.57164 13.8855L4.11455 15.4284L5.9 13.9175C6.45018 14.2651 7.06073 14.5233 7.71491 14.6709L7.90909 17H10.0909L10.2851 14.6709C10.9393 14.5233 11.5502 14.2647 12.1 13.9175L13.8855 15.4284L15.4284 13.8855L13.9175 12.1C14.2651 11.5498 14.5233 10.9393 14.6709 10.2851L17 10.0909Z" stroke="white" stroke-miterlimit="10" stroke-linecap="round" stroke-linejoin="round"/>
</svg>
