<svg width="63" height="63" viewBox="0 0 63 63" fill="none" xmlns="http://www.w3.org/2000/svg">
<path d="M22.908 17.6582L33.9061 28.6563L44.9041 39.6543L26.0655 47.4948L7.22705 55.3353L15.0675 36.4968L22.908 17.6582Z" fill="#F1B31C"/>
<path d="M34.9999 30.625L22.4808 18.0855L14.3424 37.222L6.2041 56.3583L34.9999 30.625Z" fill="#FCEA2B"/>
<path d="M13.3208 39.6243L23.0001 49.3035L18.1604 51.2736L11.3379 44.451L13.3208 39.6243Z" fill="#EA5A47"/>
<path d="M15.175 48.3416L18.1605 51.2736L23.0001 49.3035L18.7993 45.1028L15.175 48.3416Z" fill="#D22F27"/>
<path d="M18.2039 28.1422L24.0635 34.0017L34.3002 44.2385L28.8114 46.744L21.6611 39.5936L15.8816 33.8141L18.2039 28.1422Z" fill="#EA5A47"/>
<path d="M23.2197 41.1523L28.8113 46.7439L34.3002 44.2384L27.4413 37.3797L23.2197 41.1523Z" fill="#D22F27"/>
<path d="M26.5081 14.3751C27.4746 14.3751 28.2581 13.603 28.2581 12.6507C28.2581 11.6983 27.4746 10.9262 26.5081 10.9262C25.5416 10.9262 24.7581 11.6983 24.7581 12.6507C24.7581 13.603 25.5416 14.3751 26.5081 14.3751Z" fill="#8967AA"/>
<path d="M52.7581 17.8751C53.7246 17.8751 54.5081 17.103 54.5081 16.1507C54.5081 15.1983 53.7246 14.4262 52.7581 14.4262C51.7916 14.4262 51.0081 15.1983 51.0081 16.1507C51.0081 17.103 51.7916 17.8751 52.7581 17.8751Z" fill="#F1B31C"/>
<path d="M50.1331 36.2501C51.0996 36.2501 51.8831 35.478 51.8831 34.5257C51.8831 33.5733 51.0996 32.8012 50.1331 32.8012C49.1666 32.8012 48.3831 33.5733 48.3831 34.5257C48.3831 35.478 49.1666 36.2501 50.1331 36.2501Z" fill="#D22F27"/>
<path d="M44.3298 39.9346L44.477 40.0817L25.3405 48.22L6.2041 56.3584L14.3425 37.222L22.4808 18.0856" stroke="black" stroke-width="2" stroke-miterlimit="10" stroke-linecap="round" stroke-linejoin="round"/>
<path d="M22.5759 18.1807L33.479 29.0836L44.3298 39.9346" stroke="black" stroke-width="2" stroke-miterlimit="10" stroke-linecap="round" stroke-linejoin="round"/>
<path d="M22.4807 18.0856L22.5758 18.1807" stroke="black" stroke-width="2" stroke-miterlimit="10" stroke-linecap="round" stroke-linejoin="round"/>
<path d="M40.6793 6.44623C40.8846 6.83884 41.0316 7.27135 41.1077 7.7351C41.5024 10.139 39.8416 12.4724 37.3984 12.947" stroke="black" stroke-width="2" stroke-miterlimit="10" stroke-linecap="round" stroke-linejoin="round"/>
<path d="M37.5661 12.9293C37.1243 12.9629 36.6794 13.0669 36.2457 13.2478C33.9972 14.1852 32.8962 16.8292 33.7865 19.1533" stroke="black" stroke-width="2" stroke-miterlimit="10" stroke-linecap="round" stroke-linejoin="round"/>
<path d="M54.0688 23.3772C53.9824 23.8118 53.8257 24.2408 53.5941 24.6498C52.3936 26.7695 49.6366 27.5452 47.436 26.3823" stroke="black" stroke-width="2" stroke-miterlimit="10" stroke-linecap="round" stroke-linejoin="round"/>
<path d="M47.5776 26.4738C47.2125 26.2229 46.8008 26.025 46.3495 25.8937C44.0104 25.2134 41.4945 26.5821 40.73 28.9506" stroke="black" stroke-width="2" stroke-miterlimit="10" stroke-linecap="round" stroke-linejoin="round"/>
</svg>
