<svg width="32" height="44" viewBox="0 0 32 44" fill="none" xmlns="http://www.w3.org/2000/svg">
<path d="M16.3672 26.2187C15.5 26.2187 14.8047 26.9219 14.8047 27.8047C14.8047 28.6641 15.5 29.3672 16.3672 29.3672C17.2344 29.3672 17.9297 28.6641 17.9297 27.8047C17.9297 26.9219 17.2344 26.2187 16.3672 26.2187ZM16.3672 20.4375C15.5 20.4375 14.8047 21.1328 14.8047 22C14.8047 22.8594 15.5 23.5547 16.3672 23.5547C17.2344 23.5547 17.9297 22.8594 17.9297 22C17.9297 21.1328 17.2344 20.4375 16.3672 20.4375ZM16.3672 14.6328C15.5 14.6328 14.8047 15.3281 14.8047 16.1953C14.8047 17.0781 15.5 17.7734 16.3672 17.7734C17.2344 17.7734 17.9297 17.0781 17.9297 16.1953C17.9297 15.3281 17.2344 14.6328 16.3672 14.6328Z" fill="#9094A2"/>
</svg>
