<svg width="15" height="12" viewBox="0 0 15 12" fill="none" xmlns="http://www.w3.org/2000/svg">
<path opacity="0.4" fill-rule="evenodd" clip-rule="evenodd" d="M7.05194 0.269531H7.05882C8.04362 0.269531 9.00086 0.505813 9.88235 0.949884L7.58221 3.2717C7.41693 3.2439 7.23788 3.22306 7.05882 3.22306C5.53687 3.22306 4.30416 4.46701 4.30416 6.00285C4.30416 6.18353 4.32482 6.36422 4.35237 6.531L1.8043 9.10231C1.11564 8.29617 0.516499 7.32255 0.0413199 6.20438C-0.0137733 6.07929 -0.0137733 5.9264 0.0413199 5.79436C1.51506 2.33352 4.13888 0.269531 7.05194 0.269531ZM11.5971 2.1528C12.5957 3.07013 13.4427 4.30714 14.0763 5.79433C14.1314 5.92637 14.1314 6.07926 14.0763 6.20435C12.6026 9.66518 9.97874 11.7361 7.0588 11.7361H7.05191C5.72279 11.7361 4.44875 11.2983 3.32623 10.4991L5.5093 8.29614C5.95005 8.59427 6.48721 8.77565 7.0588 8.77565C8.57386 8.77565 9.80657 7.53169 9.80657 6.00281C9.80657 5.426 9.62752 4.88395 9.3314 4.43918L11.5971 2.1528Z" fill="white"/>
<path fill-rule="evenodd" clip-rule="evenodd" d="M11.5968 2.1526L12.8502 0.887795C13.0568 0.68626 13.0568 0.352686 12.8502 0.151151C12.6505 -0.0503837 12.3268 -0.0503837 12.1202 0.151151L11.4729 0.804401C11.466 0.8183 11.4522 0.832199 11.4384 0.846098C11.4316 0.859997 11.4178 0.873896 11.404 0.887795L10.7911 1.50699L8.60803 3.70998L1.21865 11.1661L1.19799 11.1939C1.06026 11.3954 1.0878 11.6741 1.25997 11.8478C1.35638 11.9514 1.49412 12 1.62496 12C1.75581 12 1.88666 11.9514 1.98996 11.8478L9.33113 4.43898L11.5968 2.1526ZM7.05866 7.73331C8.00213 7.73331 8.77344 6.95497 8.77344 6.00289C8.77344 5.71101 8.70457 5.43303 8.58061 5.19675L6.25981 7.53872C6.49395 7.66381 6.76942 7.73331 7.05866 7.73331Z" fill="white"/>
</svg>
