<svg id="Capa_1" data-name="Capa 1" xmlns="http://www.w3.org/2000/svg" viewBox="0 0 24 24"><defs><style>.cls-1,.cls-2,.cls-3{fill:none;stroke:currentColor;}.cls-1,.cls-2{stroke-linecap:round;}.cls-1,.cls-3{stroke-linejoin:round;}.cls-2{stroke-miterlimit:10;}.cls-4{fill:currentColor;}</style></defs><path class="cls-1" d="M20.25,10.33v8.52s-.21,1.7-1.56,1.86-13.19,0-13.19,0a1.88,1.88,0,0,1-1.74-1.95V10.33l3.29,2.38c1.47,1,3,2.08,4.41,3.15l.26.2c.08.06.17.16.28.17.33,0,.58-.29.84-.45s.69-.56,1.05-.8c.08-.05.58-.39.65-.45,2-1.52,3.61-2.61,5.61-4.12C20.16,10.4,20.25,10.35,20.25,10.33Z"/><line class="cls-2" x1="15.06" y1="15.55" x2="17.88" y2="18.38"/><line class="cls-2" x1="6.17" y1="18.38" x2="8.9" y2="15.55"/><polyline class="cls-3" points="5.02 11.47 5.02 6.44 19.03 6.44 19.06 11.21"/><path class="cls-4" d="M7.21,6,9.09,4.65l1.13-.82a2.53,2.53,0,0,1,.69-.4,3.59,3.59,0,0,1,1.78-.15,1.44,1.44,0,0,1,.72.3L16.75,6Z"/><path class="cls-4" d="M3.26,10.74V9.69a.81.81,0,0,1,0-.38.94.94,0,0,1,.09-.12,8.6,8.6,0,0,1,.76-.84,1,1,0,0,1,.48-.29c.42,0-.05,2.27-.05,2.27Z"/><path class="cls-4" d="M20.74,10.74V9.69a.77.77,0,0,0,0-.37.94.94,0,0,0-.09-.12,6.78,6.78,0,0,0-.76-.84,1,1,0,0,0-.48-.3c-.42,0,.05,2.28.05,2.28Z"/><path class="cls-4" d="M10.6,12.68l.21-1.41a.3.3,0,0,0-.09-.25L9.65,10l1.42-.23a.26.26,0,0,0,.2-.14L12,8.34l.71,1.23a.26.26,0,0,0,.2.14l1.47.2-1,1.07a.29.29,0,0,0-.07.25l.3,1.45L12.16,12a.24.24,0,0,0-.23,0Z"/></svg>