<svg id="Capa_1" data-name="Capa 1" xmlns="http://www.w3.org/2000/svg" viewBox="0 0 22.85 22.85"><defs><style>.cls-1{fill:#a6a6a6;}</style></defs><path class="cls-1" d="M14.48,19.16H8.37a1.61,1.61,0,0,1-1.62-1.54L6.09,7.48A.56.56,0,0,1,7.2,7.4l.66,10.15a.5.5,0,0,0,.51.5h6.11a.5.5,0,0,0,.51-.5L15.66,7.4a.56.56,0,0,1,.59-.51.55.55,0,0,1,.51.59L16.1,17.62A1.6,1.6,0,0,1,14.48,19.16Z"/><path class="cls-1" d="M17,7.2H5.85a.56.56,0,1,1,0-1.11H17A.56.56,0,0,1,17,7.2Z"/><path class="cls-1" d="M13.55,16h0a.56.56,0,0,1-.53-.58l.26-7.1a.57.57,0,0,1,.56-.54h0a.54.54,0,0,1,.53.57l-.26,7.1A.56.56,0,0,1,13.55,16ZM9.3,16a.55.55,0,0,1-.55-.54l-.27-7.1v0A.54.54,0,0,1,9,7.76a.53.53,0,0,1,.58.53l.27,7.1v0a.56.56,0,0,1-.54.56Zm2.13,0a.56.56,0,0,1-.56-.56V8.31a.56.56,0,1,1,1.11,0v7.1A.56.56,0,0,1,11.43,16Zm2.12-9.13H9.3a.55.55,0,0,1-.55-.56V5a1.13,1.13,0,0,1,.1-.51,1.28,1.28,0,0,1,.3-.43,1.33,1.33,0,0,1,.44-.28,1.44,1.44,0,0,1,.51-.09h2.66a1.43,1.43,0,0,1,.5.09,1.33,1.33,0,0,1,.44.28,1.28,1.28,0,0,1,.3.43,1.3,1.3,0,0,1,.11.51V6.28A.56.56,0,0,1,13.55,6.84ZM9.86,5.73H13V5a.19.19,0,0,0,0-.07.25.25,0,0,0,0-.07l-.08,0H10.1a.22.22,0,0,0-.11,0l-.07,0-.05.07v.79Z"/></svg>