<svg width="15" height="15" viewBox="0 0 15 15" fill="none" xmlns="http://www.w3.org/2000/svg">
<path opacity="0.5" d="M14.4326 12.9685L11.5832 10.0478C11.4546 9.91602 11.2803 9.84279 11.0974 9.84279H10.6315C11.4203 8.80871 11.889 7.50806 11.889 6.09316C11.889 2.72727 9.22829 0 5.94451 0C2.66074 0 0 2.72727 0 6.09316C0 9.45904 2.66074 12.1863 5.94451 12.1863C7.3249 12.1863 8.59382 11.7059 9.60268 10.8974V11.3749C9.60268 11.5623 9.67412 11.741 9.80273 11.8729L12.6521 14.7935C12.9207 15.0688 13.3552 15.0688 13.6209 14.7935L14.4297 13.9645C14.6984 13.6891 14.6984 13.2438 14.4326 12.9685ZM5.94451 9.84279C3.92395 9.84279 2.28635 8.16717 2.28635 6.09316C2.28635 4.02207 3.92109 2.34352 5.94451 2.34352C7.96508 2.34352 9.60268 4.01914 9.60268 6.09316C9.60268 8.16424 7.96793 9.84279 5.94451 9.84279Z" fill="white"/>
</svg>
