<svg width="15" height="12" viewBox="0 0 15 12" fill="none" xmlns="http://www.w3.org/2000/svg">
<path opacity="0.4" fill-rule="evenodd" clip-rule="evenodd" d="M11.8024 1.53455C13.0829 2.52291 14.1732 3.97091 14.9561 5.78182C15.0146 5.91927 15.0146 6.08 14.9561 6.21091C13.3902 9.83273 10.6024 12 7.5 12H7.49268C4.39756 12 1.60976 9.83273 0.0439024 6.21091C-0.0146341 6.08 -0.0146341 5.91927 0.0439024 5.78182C1.60976 2.15927 4.39756 0 7.49268 0H7.5C9.05122 0 10.522 0.538182 11.8024 1.53455ZM4.57324 6C4.57324 7.6 5.883 8.90182 7.50007 8.90182C9.10983 8.90182 10.4196 7.6 10.4196 6C10.4196 4.39273 9.10983 3.09091 7.50007 3.09091C5.883 3.09091 4.57324 4.39273 4.57324 6Z" fill="white"/>
<path d="M9.32309 5.99787C9.32309 6.99423 8.50358 7.80878 7.50114 7.80878C6.49139 7.80878 5.67188 6.99423 5.67188 5.99787C5.67188 5.87423 5.68651 5.7586 5.70846 5.64223H5.74505C6.55724 5.64223 7.21578 5.00223 7.24505 4.20151C7.32553 4.18769 7.41334 4.17969 7.50114 4.17969C8.50358 4.17969 9.32309 4.99423 9.32309 5.99787Z" fill="white"/>
</svg>
