<?xml version="1.0" encoding="utf-8"?>
<!-- Generator: Adobe Illustrator 23.0.3, SVG Export Plug-In . SVG Version: 6.00 Build 0)  -->
<svg version="1.1" id="Layer_1" xmlns="http://www.w3.org/2000/svg" xmlns:xlink="http://www.w3.org/1999/xlink" x="0px" y="0px"
	 viewBox="0 0 350 620" style="enable-background:new 0 0 350 620;" xml:space="preserve">
<style type="text/css">
	.st0{clip-path:url(#SVGID_2_);}
	.st1{clip-path:url(#SVGID_4_);fill:#FFFFFF;}
	.st2{clip-path:url(#SVGID_4_);fill:#FFCA05;}
	.st3{clip-path:url(#SVGID_4_);fill:none;stroke:#6536BB;stroke-width:2.5;stroke-linecap:round;stroke-linejoin:round;}
	.st4{clip-path:url(#SVGID_4_);fill-rule:evenodd;clip-rule:evenodd;fill:#6536BB;}
	.st5{clip-path:url(#SVGID_4_);fill-rule:evenodd;clip-rule:evenodd;fill:#492B89;}
	.st6{clip-path:url(#SVGID_4_);fill-rule:evenodd;clip-rule:evenodd;fill:#A27AF9;}
	.st7{clip-path:url(#SVGID_4_);fill-rule:evenodd;clip-rule:evenodd;fill:#100E59;}
	.st8{clip-path:url(#SVGID_4_);fill-rule:evenodd;clip-rule:evenodd;fill:#FFCA05;}
	.st9{clip-path:url(#SVGID_4_);fill-rule:evenodd;clip-rule:evenodd;fill:#FFFFFF;}
	.st10{clip-path:url(#SVGID_4_);fill-rule:evenodd;clip-rule:evenodd;fill:#39226B;}
	.st11{clip-path:url(#SVGID_4_);fill:#6536BB;}
	.st12{opacity:0.391;clip-path:url(#SVGID_4_);enable-background:new    ;}
	.st13{clip-path:url(#SVGID_6_);fill:#D5CEC6;}
	.st14{clip-path:url(#SVGID_4_);fill:#F38400;}
	.st15{clip-path:url(#SVGID_4_);fill:#FFFFFF;}
	.st16{clip-path:url(#SVGID_4_);fill-rule:evenodd;clip-rule:evenodd;fill:#CFC8C0;}
	.st17{clip-path:url(#SVGID_4_);fill-rule:evenodd;clip-rule:evenodd;fill:#F38400;}
	.st18{clip-path:url(#SVGID_4_);fill:none;stroke:#100E59;stroke-width:3;stroke-miterlimit:10;}
</style>
<g>
	<defs>
		<rect id="SVGID_1_" width="343" height="600"/>
	</defs>
	<clipPath id="SVGID_2_">
		<use xlink:href="#SVGID_1_"  style="overflow:visible;"/>
	</clipPath>
	<g class="st0">
		<defs>
			<rect id="SVGID_3_" width="343" height="600"/>
		</defs>
		<clipPath id="SVGID_4_">
			<use xlink:href="#SVGID_3_"  style="overflow:visible;"/>
		</clipPath>
		<path class="st1" d="M68.31,70.33c-0.02,1.74,0.08,2.8,0.29,3.2c0.14,0.22,0.34,0.35,0.6,0.4c0.28,0.07,0.64,0.1,1.09,0.1
			c0.52,0,0.96-0.06,1.31-0.17c0.36-0.1,0.65-0.22,0.89-0.38c0.49-0.35,0.85-0.74,1.1-1.17c0.25-0.45,0.49-0.84,0.72-1.17
			c0.23-0.33,0.56-0.51,0.99-0.53c0.63,0.02,0.93,0.38,0.9,1.1c0,0.72-0.04,1.43-0.13,2.13c-0.08,0.73-0.16,1.45-0.24,2.15
			c0,0.41-0.06,0.69-0.17,0.83c-0.13,0.16-0.4,0.24-0.8,0.24c-2.18-0.03-4.36-0.06-6.54-0.07c-2.21,0.02-4.31,0.04-6.29,0.07
			c-0.36,0-0.61-0.08-0.76-0.24c-0.14-0.17-0.21-0.51-0.21-1.02c0-0.38,0.07-0.64,0.22-0.78c0.13-0.13,0.29-0.22,0.47-0.27
			c0.18-0.07,0.34-0.2,0.47-0.4c0.13-0.2,0.2-0.57,0.22-1.1c0.02-1.52,0.02-3.1,0.02-4.75c-0.02-1.42-0.04-2.93-0.04-4.53
			c0.02-0.65-0.04-1.09-0.17-1.32c-0.14-0.24-0.3-0.38-0.49-0.43c-0.17-0.07-0.33-0.15-0.46-0.26c-0.16-0.1-0.24-0.34-0.24-0.72
			c0-0.59,0.12-0.96,0.36-1.12c0.22-0.14,0.57-0.21,1.06-0.21c1.05,0.02,2.09,0.04,3.12,0.07c1.05-0.02,2.09-0.04,3.12-0.07
			c0.4,0,0.73,0.04,0.99,0.13c0.26,0.13,0.39,0.41,0.39,0.85c0.02,0.24-0.03,0.49-0.15,0.76c-0.14,0.28-0.5,0.51-1.06,0.7
			c-0.28,0.07-0.44,0.29-0.51,0.67c-0.06,0.4-0.09,0.96-0.07,1.69V70.33z"/>
		<path class="st1" d="M77.84,70.92c0.02-2.21,0.67-3.93,1.95-5.16c1.27-1.22,2.98-1.84,5.13-1.85c2.06,0,3.72,0.53,4.98,1.6
			c1.27,1.08,1.91,2.7,1.93,4.85c-0.02,2.21-0.7,3.9-2.05,5.08c-1.35,1.18-3.08,1.78-5.21,1.79c-2.02-0.02-3.64-0.55-4.86-1.6
			C78.48,74.58,77.85,73.01,77.84,70.92 M84.5,66.4c-0.34,0-0.6,0.23-0.8,0.67c-0.2,0.45-0.3,1.23-0.3,2.36
			c0.02,2.1,0.2,3.52,0.56,4.26c0.16,0.38,0.34,0.65,0.56,0.79c0.2,0.17,0.41,0.26,0.61,0.26c0.37,0.02,0.66-0.22,0.86-0.71
			c0.17-0.47,0.26-1.24,0.26-2.32c-0.02-2.12-0.2-3.55-0.53-4.3c-0.16-0.4-0.33-0.67-0.54-0.81C84.98,66.46,84.75,66.4,84.5,66.4"/>
		<path class="st1" d="M93.11,70.92c0.02-2.21,0.67-3.93,1.95-5.16c1.27-1.22,2.98-1.84,5.13-1.85c2.06,0,3.72,0.53,4.98,1.6
			c1.27,1.08,1.91,2.7,1.93,4.85c-0.02,2.21-0.7,3.9-2.05,5.08c-1.35,1.18-3.08,1.78-5.21,1.79c-2.02-0.02-3.64-0.55-4.86-1.6
			C93.75,74.58,93.12,73.01,93.11,70.92 M99.77,66.4c-0.34,0-0.6,0.23-0.8,0.67c-0.2,0.45-0.3,1.23-0.3,2.36
			c0.02,2.1,0.2,3.52,0.56,4.26c0.16,0.38,0.34,0.65,0.56,0.79c0.2,0.17,0.41,0.26,0.61,0.26c0.37,0.02,0.66-0.22,0.86-0.71
			c0.17-0.47,0.26-1.24,0.26-2.32c-0.02-2.12-0.2-3.55-0.53-4.3c-0.16-0.4-0.33-0.67-0.54-0.81C100.25,66.46,100.02,66.4,99.77,66.4
			"/>
		<path class="st1" d="M109.22,63.76c0-0.54-0.07-0.89-0.2-1.05c-0.14-0.19-0.3-0.31-0.48-0.38c-0.14-0.08-0.27-0.18-0.38-0.31
			c-0.15-0.08-0.22-0.28-0.22-0.6c0-0.33,0.23-0.65,0.69-0.95c0.43-0.28,0.95-0.52,1.55-0.74c1.32-0.48,2.38-0.73,3.17-0.74
			c0.5,0,0.83,0.1,1.02,0.29c0.14,0.24,0.21,0.7,0.21,1.38c-0.02,2.48-0.04,4.97-0.07,7.47c0,0.38,0.01,0.72,0.02,1.03
			c0.03,0.32,0.08,0.48,0.14,0.48c0.09,0,0.18-0.04,0.29-0.12c0.13-0.07,0.26-0.15,0.41-0.26c0.32-0.21,0.67-0.49,1.04-0.82
			c0.37-0.34,0.69-0.67,0.97-1.01c0.26-0.32,0.39-0.57,0.39-0.76c0-0.13-0.05-0.22-0.15-0.27c-0.31-0.15-0.52-0.29-0.65-0.4
			c-0.06-0.06-0.11-0.16-0.14-0.28c-0.05-0.11-0.07-0.27-0.07-0.49c-0.02-0.75,0.22-1.14,0.72-1.15c1.05,0.02,2.14,0.04,3.27,0.07
			c1.11-0.02,2.22-0.04,3.33-0.07c0.25,0,0.4,0.06,0.46,0.18c0.06,0.13,0.09,0.32,0.09,0.57c0,0.48-0.09,0.84-0.26,1.09
			c-0.21,0.25-0.55,0.41-1.02,0.47c-0.78,0.11-1.49,0.41-2.14,0.89c-0.68,0.51-1.3,1.02-1.88,1.53c0.5,0.76,1.28,1.82,2.36,3.18
			c0.52,0.64,1.04,1.21,1.55,1.74c0.5,0.51,0.96,0.87,1.36,1.08c0.23,0.07,0.38,0.16,0.44,0.29c0.06,0.17,0.09,0.42,0.09,0.76
			c0,0.47-0.04,0.78-0.12,0.95c-0.11,0.16-0.37,0.24-0.78,0.24c-0.74-0.03-1.49-0.06-2.24-0.07c-0.72,0.02-1.53,0.04-2.4,0.07
			c-0.34,0-0.66-0.21-0.97-0.62l-2.54-3.32c-0.37-0.5-0.64-0.76-0.82-0.76c-0.2,0-0.33,0.06-0.39,0.17
			c-0.09,0.15-0.14,0.44-0.14,0.85c0,0.46,0.09,0.79,0.28,0.98c0.18,0.19,0.39,0.34,0.63,0.45c0.18,0.05,0.35,0.13,0.51,0.24
			c0.17,0.14,0.25,0.37,0.25,0.68c0,0.53-0.15,0.89-0.46,1.07c-0.29,0.16-0.69,0.24-1.18,0.24c-0.94-0.03-1.88-0.06-2.84-0.07
			c-0.94,0.02-1.88,0.04-2.84,0.07c-0.45,0-0.75-0.1-0.91-0.29c-0.17-0.2-0.24-0.54-0.22-1c0-0.27,0.05-0.47,0.15-0.6
			c0.09-0.12,0.21-0.24,0.35-0.35c0.47-0.37,0.72-1.35,0.75-2.95V63.76z"/>
		<path class="st1" d="M131.2,63.91c0.89,0,1.55,0.06,1.99,0.17c0.43,0.14,0.75,0.21,0.96,0.21c0.12,0,0.26-0.02,0.43-0.07
			c0.16-0.04,0.3-0.06,0.4-0.06c0.24,0,0.45,0.12,0.63,0.35c0.16,0.23,0.3,0.52,0.4,0.85c0.18,0.73,0.27,1.3,0.27,1.69
			c0,0.38-0.07,0.67-0.2,0.88c-0.14,0.2-0.43,0.29-0.88,0.29c-0.22,0-0.43-0.11-0.63-0.32c-0.21-0.19-0.41-0.4-0.63-0.64
			c-0.22-0.24-0.49-0.46-0.81-0.65c-0.32-0.18-0.72-0.27-1.2-0.27c-0.19,0-0.36,0.03-0.53,0.1c-0.21,0.1-0.31,0.26-0.31,0.48
			c0.02,0.35,0.33,0.64,0.93,0.87c0.29,0.12,0.6,0.24,0.93,0.35c0.34,0.13,0.68,0.27,1.03,0.43c0.77,0.28,1.42,0.68,1.97,1.2
			c0.57,0.54,0.86,1.29,0.88,2.26c-0.03,1.7-0.65,2.99-1.84,3.87c-1.17,0.88-2.55,1.32-4.14,1.32c-0.55,0-1.08-0.03-1.61-0.1
			c-0.51-0.07-0.97-0.19-1.4-0.37c-0.43-0.2-0.77-0.51-1.01-0.93c-0.26-0.4-0.4-0.93-0.4-1.6c-0.02-0.35,0.04-0.76,0.17-1.23
			c0.12-0.48,0.38-0.73,0.78-0.74c0.27,0.02,0.51,0.14,0.72,0.38c0.22,0.23,0.44,0.52,0.67,0.87c0.25,0.32,0.57,0.6,0.95,0.86
			c0.37,0.29,0.83,0.43,1.4,0.43c0.32,0.02,0.65-0.01,1-0.07c0.35-0.03,0.53-0.21,0.55-0.53c0-0.2-0.08-0.39-0.23-0.55
			c-0.18-0.15-0.41-0.29-0.7-0.4c-0.29-0.12-0.6-0.26-0.95-0.4c-0.38-0.11-0.77-0.25-1.17-0.4c-0.38-0.16-0.75-0.35-1.1-0.57
			c-0.35-0.2-0.68-0.44-1-0.72c-0.64-0.57-0.96-1.38-0.98-2.43c0.01-1.45,0.45-2.6,1.31-3.47C128.69,64.37,129.8,63.93,131.2,63.91"
			/>
		<path class="st1" d="M148.31,64.05c-0.02-0.55-0.1-0.94-0.26-1.17c-0.2-0.22-0.38-0.37-0.54-0.45c-0.13-0.11-0.25-0.23-0.35-0.35
			c-0.13-0.11-0.19-0.31-0.19-0.6c0-0.33,0.22-0.64,0.67-0.94c0.42-0.28,0.93-0.54,1.53-0.78c1.31-0.49,2.37-0.75,3.19-0.77
			c0.52,0,0.87,0.05,1.05,0.15c0.16,0.1,0.24,0.25,0.24,0.45v11.89c-0.02,1.17,0.03,1.97,0.14,2.4c0.12,0.43,0.34,0.74,0.66,0.93
			c0.17,0.08,0.32,0.2,0.43,0.35c0.1,0.16,0.15,0.41,0.15,0.74c0,0.15-0.03,0.36-0.09,0.65c-0.09,0.32-0.31,0.48-0.66,0.5
			c-1.11-0.03-2.22-0.06-3.34-0.07c-1.12,0.02-2.23,0.04-3.35,0.07c-0.32,0-0.56-0.12-0.7-0.35c-0.13-0.21-0.2-0.55-0.2-1.01
			c0-0.27,0.05-0.46,0.15-0.59c0.1-0.11,0.28-0.21,0.56-0.29c0.22-0.07,0.39-0.21,0.51-0.43c0.11-0.2,0.19-0.52,0.24-0.95
			c0.1-0.83,0.14-2.56,0.14-5.18V64.05z"/>
		<path class="st1" d="M158.04,68.27c0-0.21-0.06-0.38-0.19-0.5c-0.14-0.11-0.32-0.21-0.54-0.29c-0.18-0.08-0.34-0.19-0.46-0.33
			c-0.16-0.11-0.24-0.34-0.24-0.67c0-0.41,0.25-0.74,0.74-0.98c0.49-0.22,1.08-0.42,1.77-0.6c0.77-0.23,1.54-0.45,2.32-0.66
			c0.77-0.22,1.26-0.33,1.48-0.33c0.15,0,0.27,0.03,0.37,0.07c0.06,0.1,0.1,0.28,0.1,0.55v9.13c0,0.21,0.1,0.4,0.3,0.57
			c0.17,0.18,0.4,0.37,0.67,0.57c0.17,0.11,0.3,0.21,0.37,0.29c0.06,0.12,0.09,0.32,0.09,0.59c-0.02,0.93-0.44,1.38-1.29,1.37
			c-1.03-0.03-2.07-0.06-3.12-0.07c-1.03,0.02-2.07,0.04-3.12,0.07c-0.24-0.02-0.43-0.12-0.56-0.32c-0.13-0.19-0.2-0.41-0.2-0.68
			c-0.02-0.27,0.01-0.51,0.08-0.72c0.06-0.2,0.22-0.38,0.46-0.52c0.39-0.2,0.65-0.45,0.77-0.76c0.13-0.29,0.19-0.82,0.19-1.6V68.27z
			 M158.25,61.91c0-0.38,0.12-0.75,0.37-1.1c0.21-0.35,0.48-0.67,0.82-0.95c0.71-0.56,1.43-0.85,2.15-0.87
			c0.49,0,0.91,0.11,1.26,0.34c0.34,0.25,0.51,0.64,0.53,1.15c0,0.42-0.11,0.81-0.34,1.16c-0.25,0.35-0.57,0.65-0.95,0.89
			c-0.82,0.54-1.62,0.81-2.41,0.81c-0.47,0-0.83-0.11-1.06-0.33C158.37,62.79,158.25,62.43,158.25,61.91"/>
		<path class="st1" d="M167.33,63.76c0-0.54-0.07-0.89-0.2-1.05c-0.14-0.19-0.3-0.31-0.48-0.38c-0.14-0.08-0.27-0.18-0.38-0.31
			c-0.15-0.08-0.22-0.28-0.22-0.6c0-0.33,0.23-0.65,0.69-0.95c0.43-0.28,0.95-0.52,1.55-0.74c1.32-0.48,2.38-0.73,3.17-0.74
			c0.5,0,0.84,0.1,1.02,0.29c0.14,0.24,0.21,0.7,0.21,1.38c-0.01,2.48-0.04,4.97-0.07,7.47c0,0.38,0.01,0.72,0.02,1.03
			c0.03,0.32,0.08,0.48,0.14,0.48c0.09,0,0.18-0.04,0.29-0.12c0.13-0.07,0.26-0.15,0.41-0.26c0.32-0.21,0.67-0.49,1.04-0.82
			c0.37-0.34,0.69-0.67,0.97-1.01c0.26-0.32,0.39-0.57,0.39-0.76c0-0.13-0.05-0.22-0.15-0.27c-0.31-0.15-0.52-0.29-0.65-0.4
			c-0.06-0.06-0.11-0.16-0.14-0.28c-0.05-0.11-0.07-0.27-0.07-0.49c-0.02-0.75,0.22-1.14,0.72-1.15c1.05,0.02,2.14,0.04,3.27,0.07
			c1.11-0.02,2.22-0.04,3.33-0.07c0.24,0,0.4,0.06,0.46,0.18c0.06,0.13,0.09,0.32,0.09,0.57c0,0.48-0.09,0.84-0.26,1.09
			c-0.21,0.25-0.55,0.41-1.02,0.47c-0.78,0.11-1.49,0.41-2.14,0.89c-0.68,0.51-1.3,1.02-1.88,1.53c0.5,0.76,1.28,1.82,2.36,3.18
			c0.52,0.64,1.04,1.21,1.55,1.74c0.5,0.51,0.96,0.87,1.36,1.08c0.23,0.07,0.37,0.16,0.44,0.29c0.06,0.17,0.09,0.42,0.09,0.76
			c0,0.47-0.04,0.78-0.12,0.95c-0.11,0.16-0.37,0.24-0.78,0.24c-0.74-0.03-1.49-0.06-2.24-0.07c-0.73,0.02-1.53,0.04-2.4,0.07
			c-0.34,0-0.66-0.21-0.97-0.62l-2.54-3.32c-0.37-0.5-0.64-0.76-0.82-0.76c-0.2,0-0.33,0.06-0.39,0.17
			c-0.1,0.15-0.14,0.44-0.14,0.85c0,0.46,0.09,0.79,0.28,0.98c0.18,0.19,0.39,0.34,0.63,0.45c0.18,0.05,0.35,0.13,0.51,0.24
			c0.16,0.14,0.25,0.37,0.25,0.68c0,0.53-0.15,0.89-0.46,1.07c-0.29,0.16-0.69,0.24-1.18,0.24c-0.94-0.03-1.88-0.06-2.84-0.07
			c-0.94,0.02-1.88,0.04-2.84,0.07c-0.45,0-0.75-0.1-0.91-0.29c-0.17-0.2-0.24-0.54-0.22-1c0-0.27,0.05-0.47,0.15-0.6
			c0.09-0.12,0.21-0.24,0.35-0.35c0.47-0.37,0.72-1.35,0.75-2.95V63.76z"/>
		<path class="st1" d="M189.52,70.99c0.17,0.83,0.49,1.52,0.95,2.07c0.46,0.59,1.15,0.88,2.05,0.88c0.43,0,0.82-0.08,1.17-0.24
			c0.35-0.16,0.67-0.32,0.95-0.5c0.3-0.19,0.56-0.36,0.77-0.5c0.2-0.14,0.35-0.21,0.45-0.21c0.28,0,0.42,0.21,0.4,0.63
			c-0.01,0.85-0.23,1.53-0.65,2.05c-0.42,0.54-0.97,0.97-1.65,1.27c-0.68,0.3-1.39,0.51-2.14,0.62c-0.76,0.11-1.46,0.17-2.11,0.17
			c-1.8-0.03-3.18-0.62-4.13-1.77c-0.95-1.11-1.43-2.53-1.43-4.25c0.01-1.97,0.68-3.66,2.01-5.08c1.26-1.45,2.84-2.19,4.75-2.22
			c1.02,0,1.86,0.16,2.54,0.48c0.68,0.33,1.22,0.76,1.62,1.27c0.4,0.49,0.68,0.99,0.84,1.5c0.17,0.54,0.25,1,0.25,1.4
			c0,0.18-0.11,0.35-0.33,0.5c-0.23,0.18-0.51,0.32-0.87,0.43L189.52,70.99z M191.57,67.67c0-0.37-0.11-0.68-0.32-0.95
			c-0.22-0.23-0.52-0.35-0.9-0.37c-0.39,0.02-0.66,0.18-0.82,0.5c-0.2,0.32-0.3,0.66-0.3,1.03c-0.02,0.68,0.14,1.01,0.48,0.99
			c0.18,0,0.52-0.1,1.02-0.29c0.23-0.1,0.42-0.22,0.58-0.38C191.49,68.05,191.57,67.87,191.57,67.67"/>
		<path class="st1" d="M216.59,72.18c-0.63,1.12-1.34,2.49-2.13,4.13c-2,4.16-4.14,6.24-6.42,6.24c-0.6,0-1.12-0.14-1.55-0.43
			c-0.47-0.28-0.71-0.77-0.71-1.45c0-0.55,0.11-1.09,0.34-1.62c0.23-0.57,0.64-0.86,1.24-0.88c0.25,0,0.46,0.02,0.63,0.05
			c0.14,0.05,0.26,0.12,0.37,0.21c0.11,0.08,0.22,0.15,0.33,0.2c0.09,0.05,0.22,0.08,0.39,0.1c0.35-0.02,0.77-0.2,1.25-0.55
			c0.23-0.16,0.43-0.35,0.59-0.55c0.14-0.18,0.21-0.36,0.21-0.55c-0.02-0.35-0.21-1.07-0.58-2.15c-0.39-1.07-0.86-2.24-1.41-3.51
			c-0.25-0.61-0.64-1.5-1.18-2.65c-0.26-0.54-0.54-1.04-0.83-1.48c-0.29-0.45-0.59-0.76-0.9-0.94c-0.31-0.22-0.49-0.41-0.56-0.57
			c-0.08-0.17-0.12-0.4-0.12-0.68c-0.02-0.68,0.29-1.02,0.92-1c1,0.02,2,0.04,2.98,0.07c1-0.02,1.99-0.04,2.98-0.07
			c0.76-0.03,1.14,0.33,1.14,1.07c0,0.29-0.04,0.51-0.12,0.68c-0.09,0.16-0.19,0.33-0.32,0.5c-0.05,0.07-0.1,0.13-0.17,0.2
			c-0.1,0.1-0.15,0.21-0.15,0.33c0,0.21,0.08,0.46,0.25,0.74c0.13,0.32,0.3,0.71,0.53,1.17c0.23,0.49,0.42,0.89,0.58,1.21
			c0.16,0.35,0.29,0.53,0.39,0.53c0.13,0,0.28-0.15,0.46-0.45c0.17-0.3,0.34-0.64,0.51-1.03c0.17-0.42,0.32-0.8,0.44-1.15
			c0.1-0.35,0.14-0.6,0.14-0.73c-0.03-0.53-0.23-0.93-0.6-1.22c-0.15-0.16-0.29-0.31-0.41-0.48c-0.15-0.15-0.23-0.31-0.23-0.48
			c0-0.59,0.28-0.89,0.85-0.9c0.76,0.02,1.51,0.04,2.26,0.07c0.76-0.02,1.51-0.04,2.25-0.07c0.29,0,0.55,0.03,0.78,0.1
			c0.21,0.12,0.32,0.36,0.33,0.72c0,0.37-0.09,0.64-0.26,0.82c-0.21,0.19-0.54,0.39-0.99,0.61c-0.39,0.21-0.69,0.55-0.9,1.01
			L216.59,72.18z"/>
		<path class="st1" d="M221.84,70.92c0.02-2.21,0.67-3.93,1.95-5.16c1.27-1.22,2.98-1.84,5.13-1.85c2.06,0,3.72,0.53,4.98,1.6
			c1.27,1.08,1.91,2.7,1.93,4.85c-0.02,2.21-0.7,3.9-2.05,5.08c-1.35,1.18-3.09,1.78-5.21,1.79c-2.02-0.02-3.64-0.55-4.85-1.6
			C222.49,74.58,221.86,73.01,221.84,70.92 M228.5,66.4c-0.34,0-0.61,0.23-0.8,0.67c-0.2,0.45-0.3,1.23-0.3,2.36
			c0.02,2.1,0.2,3.52,0.56,4.26c0.16,0.38,0.34,0.65,0.56,0.79c0.2,0.17,0.41,0.26,0.62,0.26c0.37,0.02,0.66-0.22,0.86-0.71
			c0.17-0.47,0.26-1.24,0.26-2.32c-0.02-2.12-0.2-3.55-0.54-4.3c-0.16-0.4-0.33-0.67-0.54-0.81C228.99,66.46,228.76,66.4,228.5,66.4
			"/>
		<path class="st1" d="M237.93,68.58c0-0.7-0.05-1.22-0.14-1.55c-0.09-0.33-0.22-0.54-0.37-0.62c-0.31-0.2-0.55-0.38-0.72-0.53
			c-0.21-0.14-0.32-0.39-0.32-0.76c0-0.46,0.13-0.75,0.39-0.88c0.24-0.1,0.58-0.16,0.99-0.16c0.82,0.02,1.65,0.04,2.47,0.07
			c0.82-0.01,1.64-0.04,2.47-0.07c0.48,0.02,0.72,0.33,0.72,0.95c-0.05,1.4-0.1,2.8-0.15,4.2c-0.02,1.55,0.11,2.69,0.39,3.41
			c0.3,0.72,0.91,1.07,1.83,1.07c0.49,0,0.81-0.11,0.98-0.33c0.12-0.18,0.18-0.45,0.18-0.8v-5.32c-0.02-0.31-0.09-0.52-0.22-0.64
			c-0.13-0.11-0.25-0.19-0.38-0.22c-0.24-0.14-0.43-0.26-0.58-0.38c-0.18-0.13-0.27-0.41-0.27-0.83c-0.02-0.75,0.22-1.12,0.72-1.12
			c0.86,0.02,1.7,0.04,2.54,0.07c0.86-0.01,1.71-0.04,2.55-0.07c0.39,0,0.65,0.1,0.79,0.3c0.13,0.22,0.19,0.52,0.19,0.9
			c-0.02,2.29-0.04,4.57-0.07,6.82c0,0.53,0.1,0.92,0.29,1.17c0.16,0.25,0.35,0.44,0.58,0.55c0.24,0.11,0.45,0.22,0.63,0.31
			c0.18,0.1,0.28,0.28,0.29,0.55c0,0.35-0.09,0.61-0.27,0.77c-0.17,0.2-0.43,0.36-0.77,0.48l-4.8,1.72
			c-0.29,0.11-0.56,0.16-0.82,0.16c-0.16-0.02-0.27-0.13-0.32-0.33c-0.03-0.2-0.05-0.39-0.05-0.55v-1.48
			c-1.32,1.22-2.89,1.81-4.72,1.77c-2.67,0.06-4.01-1.17-4.05-3.67V68.58z"/>
		<path class="st1" d="M257.51,67.03c-0.2,0-0.36-0.06-0.48-0.19c-0.15-0.11-0.23-0.27-0.23-0.5c0-0.17,0.05-0.33,0.15-0.48
			c0.08-0.16,0.17-0.31,0.26-0.45c0.24-0.3,0.37-0.59,0.39-0.88c-0.02-0.15-0.11-0.26-0.3-0.35c-0.09-0.05-0.2-0.1-0.31-0.15
			c-0.13-0.05-0.27-0.11-0.41-0.17c-0.26-0.15-0.5-0.37-0.71-0.65c-0.22-0.3-0.33-0.74-0.33-1.31c0.02-0.83,0.31-1.43,0.87-1.79
			c0.53-0.37,1.15-0.55,1.88-0.55c1.94,0.05,2.92,1.1,2.93,3.15c0,1.13-0.32,2.12-0.97,2.97C259.6,66.57,258.68,67.02,257.51,67.03"
			/>
		<path class="st1" d="M264.35,67.75c-0.02-0.16-0.12-0.28-0.32-0.36c-0.21-0.09-0.4-0.17-0.56-0.23c-0.29-0.15-0.44-0.41-0.44-0.79
			c0-0.44,0.26-0.74,0.78-0.9c0.24-0.1,0.52-0.2,0.84-0.3c0.31-0.08,0.63-0.18,0.97-0.29c0.76-0.27,1.46-0.49,2.11-0.68
			c0.66-0.18,1.14-0.27,1.43-0.27c0.29,0,0.48,0.06,0.56,0.17c0.05,0.12,0.07,0.3,0.07,0.52c-0.02,0.2-0.04,0.45-0.07,0.73
			c0,0.15,0.03,0.22,0.09,0.22c0.1,0,0.25-0.1,0.44-0.29c0.18-0.17,0.39-0.35,0.64-0.55c0.5-0.51,1.1-0.77,1.81-0.81
			c0.43,0,0.79,0.11,1.06,0.33c0.27,0.23,0.5,0.53,0.66,0.89c0.27,0.75,0.4,1.51,0.4,2.28c0.02,0.46-0.04,0.97-0.17,1.52
			c-0.06,0.24-0.18,0.46-0.37,0.65c-0.16,0.18-0.4,0.27-0.72,0.27c-0.26,0-0.51-0.11-0.76-0.34c-0.25-0.22-0.51-0.47-0.77-0.76
			c-0.26-0.28-0.53-0.53-0.8-0.74c-0.29-0.22-0.59-0.33-0.89-0.33c-0.43-0.02-0.65,0.19-0.66,0.62v4.36
			c-0.02,0.58,0.09,1.03,0.32,1.34c0.21,0.33,0.59,0.6,1.16,0.81c0.31,0.08,0.53,0.2,0.68,0.36c0.13,0.15,0.2,0.4,0.2,0.77
			c0,0.29-0.04,0.53-0.12,0.74c-0.09,0.24-0.3,0.36-0.64,0.38c-0.97-0.03-2.08-0.06-3.34-0.07c-1.21,0.02-2.42,0.04-3.63,0.07
			c-0.47,0-0.8-0.09-0.99-0.27c-0.21-0.2-0.32-0.55-0.32-1.03c0-0.33,0.06-0.57,0.17-0.71c0.1-0.11,0.24-0.2,0.41-0.25
			c0.2-0.08,0.35-0.22,0.46-0.43c0.1-0.2,0.17-0.42,0.21-0.65c0.05-0.52,0.08-0.96,0.08-1.31V67.75z"/>
		<path class="st1" d="M281.45,70.99c0.17,0.83,0.49,1.52,0.95,2.07c0.46,0.59,1.15,0.88,2.05,0.88c0.43,0,0.82-0.08,1.17-0.24
			c0.35-0.16,0.67-0.32,0.95-0.5c0.3-0.19,0.56-0.36,0.77-0.5c0.2-0.14,0.35-0.21,0.45-0.21c0.28,0,0.42,0.21,0.4,0.63
			c-0.01,0.85-0.23,1.53-0.65,2.05c-0.42,0.54-0.97,0.97-1.65,1.27c-0.68,0.3-1.39,0.51-2.14,0.62c-0.76,0.11-1.46,0.17-2.11,0.17
			c-1.8-0.03-3.18-0.62-4.13-1.77c-0.95-1.11-1.43-2.53-1.43-4.25c0.01-1.97,0.68-3.66,2.01-5.08c1.26-1.45,2.84-2.19,4.75-2.22
			c1.02,0,1.86,0.16,2.54,0.48c0.68,0.33,1.22,0.76,1.62,1.27c0.4,0.49,0.68,0.99,0.84,1.5c0.17,0.54,0.25,1,0.25,1.4
			c0,0.18-0.11,0.35-0.33,0.5c-0.23,0.18-0.52,0.32-0.87,0.43L281.45,70.99z M283.5,67.67c0-0.37-0.11-0.68-0.32-0.95
			c-0.22-0.23-0.52-0.35-0.9-0.37c-0.39,0.02-0.66,0.18-0.82,0.5c-0.2,0.32-0.3,0.66-0.3,1.03c-0.02,0.68,0.15,1.01,0.49,0.99
			c0.18,0,0.52-0.1,1.02-0.29c0.23-0.1,0.42-0.22,0.58-0.38C283.42,68.05,283.5,67.87,283.5,67.67"/>
		<path class="st1" d="M53.91,92.23c0-0.16-0.05-0.3-0.14-0.41c-0.1-0.12-0.22-0.23-0.34-0.33s-0.24-0.22-0.34-0.38
			c-0.13-0.11-0.19-0.27-0.19-0.48c0-0.18,0.08-0.35,0.24-0.52c0.13-0.15,0.32-0.31,0.57-0.48c0.24-0.18,0.52-0.37,0.86-0.57
			c0.32-0.2,0.66-0.41,1.02-0.65c0.79-0.55,1.49-1.03,2.08-1.43c0.6-0.38,0.99-0.58,1.17-0.6c0.35,0.02,0.52,0.31,0.51,0.88
			c0,0.35,0.01,0.64,0.02,0.87c0,0.24,0.01,0.43,0.02,0.59c0.02,0.28,0.09,0.41,0.24,0.39c0.76,0,1.5-0.02,2.21-0.05
			c0.27,0.02,0.39,0.19,0.38,0.53c0,0.27-0.04,0.58-0.12,0.93c-0.09,0.37-0.18,0.68-0.26,0.93c-0.03,0.16-0.15,0.29-0.37,0.38
			c-0.23,0.1-0.58,0.15-1.06,0.15h-1.14v3.97c0,1.25,0.12,2.09,0.35,2.5c0.23,0.4,0.5,0.59,0.83,0.57c0.39,0,0.75-0.01,1.09-0.05
			c0.23,0,0.4,0.02,0.51,0.07c0.11,0.07,0.16,0.24,0.16,0.5c0,0.47-0.15,0.88-0.46,1.23c-0.3,0.35-0.69,0.63-1.16,0.84
			c-0.98,0.42-1.88,0.62-2.7,0.62c-2.65,0.02-3.97-1.31-3.97-3.99V92.23z"/>
		<path class="st1" d="M64.65,88.63c0-0.31-0.07-0.57-0.21-0.77c-0.15-0.21-0.33-0.35-0.53-0.43c-0.18-0.08-0.34-0.19-0.46-0.32
			c-0.17-0.12-0.25-0.34-0.25-0.66c0-0.18,0.08-0.34,0.25-0.5c0.13-0.14,0.31-0.3,0.56-0.45c0.51-0.29,1.11-0.56,1.81-0.79
			c1.53-0.46,2.59-0.7,3.18-0.72c0.66,0.02,1,0.38,1.01,1.1c-0.03,1.8-0.07,3.58-0.13,5.35c1.27-1,2.66-1.51,4.18-1.53
			c0.43,0,0.91,0.03,1.43,0.1c0.54,0.08,1.04,0.27,1.5,0.57c0.48,0.27,0.88,0.68,1.21,1.23c0.31,0.56,0.46,1.3,0.46,2.22
			c0.02,1.99,0.04,3.43,0.07,4.32c-0.02,0.38,0.02,0.83,0.11,1.36c0.05,0.24,0.12,0.47,0.21,0.67c0.1,0.2,0.22,0.35,0.39,0.43
			c0.21,0.07,0.36,0.15,0.46,0.27c0.09,0.14,0.14,0.38,0.14,0.73c0,0.24-0.04,0.5-0.12,0.77c-0.12,0.3-0.3,0.46-0.54,0.48
			c-1.04-0.03-2.1-0.06-3.16-0.07c-1.05,0.02-2.11,0.04-3.17,0.07c-0.31-0.02-0.51-0.17-0.59-0.48c-0.11-0.28-0.16-0.56-0.14-0.82
			c0-0.22,0.03-0.38,0.1-0.48c0.05-0.11,0.11-0.17,0.18-0.18c0.09-0.05,0.18-0.09,0.25-0.12c0.05-0.02,0.1-0.07,0.13-0.17
			c0.16-0.3,0.26-0.68,0.3-1.12c0.02-0.44,0.03-1.22,0.03-2.33c0-0.43-0.01-0.89-0.03-1.37c-0.02-0.49-0.1-0.94-0.25-1.36
			c-0.12-0.43-0.34-0.78-0.66-1.05c-0.34-0.27-0.79-0.4-1.37-0.4c-0.29,0-0.53,0.06-0.72,0.18c-0.22,0.15-0.33,0.37-0.33,0.67
			c0,1.62,0.02,3.1,0.05,4.44c0,0.46,0.03,0.92,0.1,1.38c0.06,0.48,0.23,0.8,0.49,0.95c0.25,0.08,0.42,0.2,0.51,0.35
			c0.06,0.15,0.1,0.38,0.1,0.7c0,0.4-0.05,0.7-0.14,0.9c-0.13,0.2-0.4,0.29-0.8,0.29c-1.02-0.03-2.03-0.06-3.05-0.07
			c-1.02,0.02-2.03,0.04-3.05,0.07c-0.37,0-0.61-0.08-0.72-0.24c-0.12-0.17-0.17-0.44-0.15-0.81c0-0.43,0.08-0.71,0.22-0.84
			c0.13-0.14,0.32-0.26,0.58-0.35c0.28-0.15,0.45-0.75,0.51-1.78c0.05-1.01,0.07-2.44,0.07-4.3V88.63z"/>
		<path class="st1" d="M86.62,95.99c0.17,0.83,0.49,1.52,0.95,2.07c0.46,0.59,1.15,0.88,2.05,0.88c0.43,0,0.82-0.08,1.17-0.24
			c0.35-0.16,0.67-0.32,0.95-0.5c0.3-0.19,0.56-0.36,0.77-0.5c0.2-0.14,0.35-0.21,0.45-0.21c0.28,0,0.42,0.21,0.4,0.63
			c-0.02,0.85-0.23,1.53-0.65,2.05c-0.42,0.55-0.97,0.97-1.64,1.27c-0.68,0.3-1.39,0.51-2.14,0.62c-0.76,0.11-1.46,0.17-2.1,0.17
			c-1.8-0.03-3.18-0.62-4.13-1.77c-0.95-1.11-1.43-2.53-1.43-4.25c0.01-1.97,0.69-3.66,2.01-5.08c1.26-1.45,2.85-2.19,4.75-2.22
			c1.02,0,1.86,0.16,2.54,0.48c0.68,0.33,1.22,0.76,1.62,1.27c0.4,0.49,0.68,0.99,0.84,1.5c0.17,0.54,0.25,1,0.25,1.4
			c0,0.18-0.11,0.35-0.33,0.5c-0.23,0.18-0.52,0.32-0.87,0.43L86.62,95.99z M88.67,92.67c0-0.37-0.11-0.68-0.32-0.95
			c-0.22-0.23-0.52-0.35-0.9-0.37c-0.39,0.02-0.66,0.18-0.82,0.5c-0.2,0.32-0.3,0.66-0.3,1.03c-0.02,0.68,0.14,1.01,0.49,0.99
			c0.18,0,0.52-0.1,1.02-0.29c0.23-0.1,0.42-0.22,0.58-0.38C88.59,93.05,88.67,92.87,88.67,92.67"/>
		<path class="st1" d="M110.02,98.42c-0.02,0.78,0.13,1.25,0.45,1.41c0.34,0.13,0.61,0.27,0.81,0.4c0.17,0.13,0.25,0.39,0.25,0.79
			c0,0.28-0.04,0.52-0.13,0.72c-0.08,0.19-0.29,0.3-0.63,0.31c-1.02-0.03-2.03-0.06-3.05-0.07c-1.02,0.02-2.03,0.04-3.05,0.07
			c-0.45,0-0.8-0.06-1.04-0.17c-0.25-0.12-0.37-0.43-0.37-0.93c0-0.25,0.04-0.44,0.12-0.55c0.07-0.11,0.15-0.2,0.25-0.24
			c0.09-0.06,0.21-0.11,0.34-0.16c0.11-0.05,0.21-0.11,0.31-0.19c0.2-0.22,0.31-0.71,0.34-1.45c0.03-0.76,0.05-1.72,0.05-2.87
			c0-1.3-0.02-2.46-0.05-3.48c-0.28-0.05-0.62-0.13-1.04-0.26c-0.17-0.05-0.27-0.12-0.32-0.22c-0.06-0.1-0.1-0.26-0.1-0.5
			c0-0.38,0.06-0.77,0.17-1.17c0.1-0.42,0.28-0.63,0.53-0.65c0.37,0,0.74-0.02,1.12-0.06c0.21-1.69,0.99-2.98,2.34-3.87
			c1.34-0.86,2.79-1.29,4.34-1.29c0.51,0,1.08,0.07,1.71,0.2c0.63,0.18,0.96,0.59,0.99,1.22c0,0.46-0.16,1.01-0.49,1.67
			c-0.16,0.3-0.35,0.56-0.58,0.78c-0.24,0.25-0.51,0.38-0.81,0.38c-0.19,0-0.34-0.1-0.45-0.3c-0.12-0.16-0.23-0.36-0.32-0.6
			c-0.09-0.24-0.2-0.44-0.32-0.62c-0.11-0.19-0.26-0.28-0.46-0.28c-0.24,0-0.42,0.09-0.53,0.28c-0.14,0.2-0.25,0.45-0.31,0.77
			c-0.1,0.65-0.15,1.21-0.13,1.67h1.29c0.34,0,0.57,0.02,0.7,0.06c0.1,0.05,0.15,0.12,0.15,0.22c0,0.58-0.11,1.3-0.32,2.15
			c-0.03,0.15-0.14,0.26-0.32,0.33c-0.19,0.1-0.4,0.15-0.63,0.15h-0.84V98.42z"/>
		<path class="st1" d="M115.09,93.27c0-0.21-0.06-0.38-0.19-0.5c-0.14-0.11-0.32-0.21-0.54-0.29c-0.18-0.08-0.34-0.19-0.46-0.33
			c-0.16-0.11-0.24-0.34-0.24-0.67c0-0.42,0.25-0.74,0.74-0.98c0.49-0.22,1.08-0.42,1.77-0.6c0.77-0.23,1.54-0.45,2.32-0.66
			c0.77-0.22,1.26-0.33,1.48-0.33c0.15,0,0.27,0.02,0.37,0.07c0.06,0.1,0.09,0.28,0.09,0.55v9.13c0,0.21,0.1,0.4,0.3,0.57
			c0.17,0.18,0.4,0.37,0.67,0.57c0.17,0.11,0.3,0.21,0.37,0.29c0.06,0.12,0.09,0.32,0.09,0.59c-0.02,0.93-0.44,1.38-1.29,1.37
			c-1.03-0.03-2.07-0.06-3.12-0.07c-1.03,0.02-2.07,0.04-3.12,0.07c-0.24-0.02-0.43-0.12-0.56-0.32c-0.13-0.19-0.2-0.41-0.2-0.68
			c-0.02-0.27,0.01-0.51,0.08-0.72c0.06-0.2,0.22-0.38,0.46-0.52c0.39-0.2,0.65-0.45,0.77-0.76c0.13-0.29,0.19-0.82,0.19-1.6V93.27z
			 M115.29,86.91c0-0.38,0.12-0.75,0.37-1.1c0.21-0.35,0.48-0.67,0.82-0.95c0.71-0.56,1.42-0.85,2.15-0.87
			c0.49,0,0.91,0.11,1.26,0.34c0.34,0.25,0.52,0.64,0.53,1.15c0,0.42-0.11,0.81-0.34,1.16c-0.25,0.35-0.57,0.65-0.95,0.89
			c-0.82,0.54-1.62,0.81-2.41,0.81c-0.47,0-0.83-0.11-1.06-0.33C115.42,87.79,115.29,87.43,115.29,86.91"/>
		<path class="st1" d="M124.84,92.75c-0.02-0.16-0.12-0.28-0.32-0.36c-0.21-0.09-0.4-0.17-0.56-0.23c-0.29-0.15-0.44-0.41-0.44-0.79
			c0-0.44,0.26-0.74,0.78-0.9c0.24-0.1,0.52-0.2,0.84-0.3c0.31-0.08,0.63-0.18,0.97-0.29c0.76-0.27,1.46-0.49,2.1-0.68
			c0.66-0.18,1.14-0.27,1.43-0.27c0.29,0,0.48,0.06,0.56,0.17c0.05,0.12,0.07,0.3,0.07,0.52c-0.02,0.2-0.04,0.45-0.07,0.73
			c0,0.15,0.03,0.22,0.1,0.22c0.1,0,0.25-0.1,0.44-0.29c0.18-0.17,0.4-0.35,0.64-0.55c0.5-0.5,1.1-0.77,1.81-0.81
			c0.43,0,0.79,0.11,1.07,0.33c0.27,0.23,0.5,0.53,0.66,0.89c0.27,0.75,0.4,1.51,0.4,2.28c0.02,0.46-0.04,0.97-0.17,1.52
			c-0.06,0.24-0.18,0.46-0.37,0.65c-0.16,0.18-0.4,0.27-0.72,0.27c-0.26,0-0.51-0.11-0.76-0.34c-0.25-0.22-0.51-0.47-0.77-0.76
			c-0.26-0.28-0.53-0.53-0.8-0.74c-0.29-0.22-0.59-0.33-0.89-0.33c-0.43-0.02-0.65,0.19-0.66,0.62v4.36
			c-0.02,0.58,0.09,1.03,0.32,1.34c0.21,0.33,0.59,0.6,1.16,0.81c0.31,0.08,0.53,0.2,0.67,0.36c0.13,0.15,0.2,0.4,0.2,0.77
			c0,0.29-0.04,0.53-0.12,0.74c-0.09,0.24-0.3,0.36-0.64,0.38c-0.97-0.03-2.08-0.06-3.33-0.07c-1.21,0.02-2.42,0.04-3.63,0.07
			c-0.47,0-0.81-0.09-0.99-0.27c-0.21-0.2-0.32-0.55-0.32-1.03c0-0.33,0.06-0.57,0.17-0.71c0.1-0.11,0.24-0.2,0.41-0.25
			c0.2-0.08,0.35-0.22,0.46-0.43c0.09-0.2,0.17-0.42,0.21-0.65c0.06-0.52,0.08-0.96,0.08-1.31V92.75z"/>
		<path class="st1" d="M141.73,88.91c0.89,0,1.55,0.06,1.99,0.17c0.43,0.14,0.75,0.21,0.96,0.21c0.12,0,0.26-0.02,0.43-0.07
			c0.16-0.04,0.3-0.06,0.4-0.06c0.24,0,0.45,0.12,0.63,0.35c0.16,0.23,0.3,0.52,0.4,0.85c0.18,0.73,0.27,1.3,0.27,1.69
			c0,0.38-0.07,0.67-0.2,0.88c-0.14,0.2-0.43,0.29-0.88,0.29c-0.22,0-0.43-0.11-0.63-0.32c-0.21-0.19-0.41-0.4-0.63-0.64
			c-0.22-0.24-0.49-0.46-0.81-0.65c-0.32-0.18-0.72-0.27-1.2-0.27c-0.19,0-0.36,0.03-0.53,0.1c-0.21,0.1-0.31,0.26-0.31,0.48
			c0.02,0.35,0.33,0.64,0.93,0.87c0.29,0.12,0.6,0.24,0.93,0.35c0.34,0.13,0.68,0.27,1.03,0.43c0.77,0.29,1.42,0.68,1.97,1.2
			c0.57,0.54,0.86,1.29,0.88,2.26c-0.03,1.69-0.65,2.99-1.84,3.87c-1.17,0.88-2.55,1.32-4.14,1.32c-0.55,0-1.08-0.03-1.61-0.1
			c-0.51-0.07-0.97-0.19-1.4-0.37c-0.43-0.2-0.77-0.51-1.01-0.93c-0.26-0.4-0.4-0.93-0.4-1.6c-0.02-0.35,0.04-0.76,0.17-1.23
			c0.12-0.48,0.38-0.73,0.78-0.74c0.27,0.02,0.51,0.14,0.72,0.38c0.22,0.23,0.44,0.52,0.67,0.87c0.25,0.32,0.57,0.6,0.95,0.86
			c0.37,0.29,0.83,0.43,1.4,0.43c0.32,0.02,0.65-0.01,1-0.07c0.35-0.03,0.53-0.21,0.55-0.52c0-0.2-0.08-0.39-0.23-0.55
			c-0.18-0.15-0.41-0.29-0.7-0.4c-0.29-0.12-0.6-0.26-0.95-0.4c-0.38-0.11-0.77-0.25-1.17-0.4c-0.38-0.16-0.75-0.35-1.1-0.57
			c-0.35-0.2-0.68-0.44-1-0.72c-0.64-0.57-0.96-1.38-0.98-2.43c0.01-1.45,0.45-2.61,1.31-3.47
			C139.22,89.37,140.33,88.93,141.73,88.91"/>
		<path class="st1" d="M149.98,92.23c0-0.16-0.05-0.3-0.14-0.41c-0.1-0.12-0.22-0.23-0.34-0.33c-0.13-0.1-0.24-0.22-0.34-0.38
			c-0.13-0.11-0.19-0.27-0.19-0.48c0-0.18,0.08-0.35,0.24-0.52c0.13-0.15,0.32-0.31,0.57-0.48c0.24-0.18,0.52-0.37,0.86-0.57
			c0.32-0.2,0.66-0.41,1.02-0.65c0.79-0.55,1.49-1.03,2.08-1.43c0.6-0.38,0.99-0.58,1.17-0.6c0.35,0.02,0.52,0.31,0.51,0.88
			c0,0.35,0.01,0.64,0.02,0.87c0,0.24,0.01,0.43,0.02,0.59c0.02,0.28,0.1,0.41,0.24,0.39c0.76,0,1.5-0.02,2.21-0.05
			c0.27,0.02,0.39,0.19,0.38,0.53c0,0.27-0.04,0.58-0.12,0.93c-0.1,0.37-0.18,0.68-0.26,0.93c-0.03,0.16-0.15,0.29-0.37,0.38
			c-0.23,0.1-0.58,0.15-1.07,0.15h-1.14v3.97c0,1.25,0.12,2.09,0.36,2.5c0.23,0.4,0.5,0.59,0.83,0.57c0.39,0,0.75-0.01,1.09-0.05
			c0.23,0,0.4,0.02,0.51,0.07c0.11,0.07,0.16,0.24,0.16,0.5c0,0.47-0.15,0.88-0.46,1.23c-0.3,0.35-0.68,0.63-1.16,0.84
			c-0.98,0.42-1.89,0.62-2.7,0.62c-2.64,0.02-3.97-1.31-3.97-3.99V92.23z"/>
		<path class="st1" d="M167.76,95.92c0.02-2.21,0.67-3.93,1.95-5.16c1.27-1.22,2.98-1.84,5.13-1.85c2.06,0,3.72,0.53,4.98,1.6
			c1.27,1.08,1.91,2.7,1.93,4.85c-0.02,2.21-0.7,3.9-2.05,5.08c-1.35,1.18-3.08,1.78-5.21,1.79c-2.02-0.02-3.64-0.55-4.86-1.6
			C168.4,99.58,167.78,98.01,167.76,95.92 M174.42,91.4c-0.34,0-0.6,0.23-0.8,0.67c-0.2,0.45-0.3,1.24-0.3,2.36
			c0.02,2.1,0.2,3.52,0.56,4.26c0.16,0.38,0.34,0.65,0.56,0.79c0.2,0.17,0.41,0.26,0.61,0.26c0.38,0.02,0.66-0.22,0.86-0.71
			c0.17-0.46,0.26-1.24,0.26-2.32c-0.02-2.12-0.2-3.55-0.53-4.3c-0.16-0.4-0.34-0.67-0.54-0.81C174.9,91.46,174.67,91.4,174.42,91.4
			"/>
		<path class="st1" d="M189.5,98.79c0,0.33,0.06,0.57,0.17,0.72c0.09,0.17,0.19,0.27,0.31,0.31c0.11,0.02,0.22,0.05,0.32,0.1
			c0.1,0.05,0.2,0.11,0.28,0.17c0.18,0.14,0.27,0.41,0.27,0.81c0,0.45-0.08,0.76-0.25,0.93c-0.18,0.16-0.54,0.25-1.08,0.25
			c-0.88-0.03-1.77-0.06-2.66-0.07c-0.88,0.02-1.77,0.04-2.66,0.07c-0.6,0-0.97-0.1-1.11-0.29c-0.15-0.19-0.22-0.46-0.2-0.83
			c0-0.35,0.08-0.59,0.25-0.72c0.13-0.14,0.31-0.27,0.56-0.4c0.21-0.14,0.35-0.49,0.41-1.05c0.03-0.59,0.05-1.5,0.05-2.75
			c0-1.24-0.02-2.06-0.05-2.48c-0.02-0.25-0.07-0.44-0.15-0.57c-0.1-0.15-0.2-0.27-0.31-0.35c-0.13-0.11-0.27-0.24-0.42-0.38
			c-0.16-0.11-0.24-0.32-0.24-0.62c0-0.53,0.21-0.9,0.63-1.12c0.4-0.22,1.01-0.48,1.83-0.77c0.75-0.32,1.45-0.58,2.09-0.78
			c0.64-0.22,1.11-0.33,1.42-0.33c0.26,0,0.43,0.12,0.51,0.35c0.05,0.52,0.07,1.05,0.07,1.57c0.69-0.45,1.4-0.83,2.12-1.15
			c0.72-0.32,1.47-0.48,2.24-0.48c1.38,0.03,2.46,0.51,3.21,1.43c0.76,0.91,1.13,1.99,1.13,3.22v4.85
			c-0.02,0.32,0.01,0.57,0.07,0.76c0.05,0.21,0.18,0.43,0.41,0.65c0.23,0.16,0.41,0.28,0.56,0.35c0.08,0.03,0.15,0.1,0.2,0.19
			c0.02,0.11,0.02,0.27,0.02,0.48c0,0.38-0.05,0.67-0.15,0.87c-0.11,0.23-0.35,0.35-0.72,0.35c-0.95-0.03-1.91-0.06-2.88-0.07
			c-0.95,0.02-1.91,0.04-2.87,0.07c-0.5,0-0.82-0.12-0.95-0.35c-0.15-0.2-0.21-0.49-0.19-0.89c0-0.3,0.08-0.52,0.25-0.65
			c0.14-0.12,0.33-0.24,0.58-0.35c0.17-0.1,0.28-0.25,0.32-0.45c0.02-0.19,0.02-0.43,0.02-0.72c-0.02-0.92-0.04-2.06-0.06-3.43
			c0-0.7-0.15-1.38-0.46-2.03c-0.18-0.3-0.42-0.54-0.72-0.72c-0.28-0.19-0.65-0.28-1.11-0.28c-0.71,0-1.06,0.33-1.06,0.98V98.79z"/>
		<path class="st1" d="M206.51,95.99c0.17,0.83,0.49,1.52,0.95,2.07c0.46,0.59,1.15,0.88,2.05,0.88c0.43,0,0.82-0.08,1.17-0.24
			c0.35-0.16,0.67-0.32,0.95-0.5c0.3-0.19,0.56-0.36,0.77-0.5c0.2-0.14,0.35-0.21,0.45-0.21c0.28,0,0.42,0.21,0.4,0.63
			c-0.01,0.85-0.23,1.53-0.65,2.05c-0.42,0.55-0.97,0.97-1.65,1.27c-0.68,0.3-1.39,0.51-2.14,0.62c-0.76,0.11-1.46,0.17-2.11,0.17
			c-1.8-0.03-3.18-0.62-4.13-1.77c-0.95-1.11-1.43-2.53-1.43-4.25c0.01-1.97,0.69-3.66,2.01-5.08c1.26-1.45,2.84-2.19,4.75-2.22
			c1.02,0,1.86,0.16,2.54,0.48c0.68,0.33,1.22,0.76,1.62,1.27c0.4,0.49,0.68,0.99,0.84,1.5c0.17,0.54,0.25,1,0.25,1.4
			c0,0.18-0.11,0.35-0.33,0.5c-0.23,0.18-0.52,0.32-0.87,0.43L206.51,95.99z M208.57,92.67c0-0.37-0.11-0.68-0.32-0.95
			c-0.22-0.23-0.52-0.35-0.9-0.37c-0.39,0.02-0.66,0.18-0.82,0.5c-0.2,0.32-0.3,0.66-0.3,1.03c-0.02,0.68,0.15,1.01,0.49,0.99
			c0.18,0,0.52-0.1,1.02-0.29c0.23-0.1,0.42-0.22,0.58-0.38C208.48,93.05,208.57,92.87,208.57,92.67"/>
		<path class="st1" d="M224.16,88.63c0-0.31-0.07-0.57-0.21-0.77c-0.15-0.21-0.33-0.35-0.53-0.43c-0.18-0.08-0.34-0.19-0.46-0.32
			c-0.17-0.12-0.25-0.34-0.25-0.66c0-0.18,0.08-0.34,0.25-0.5c0.13-0.14,0.31-0.3,0.56-0.45c0.51-0.29,1.11-0.56,1.81-0.79
			c1.54-0.46,2.6-0.7,3.18-0.72c0.66,0.02,1,0.38,1.01,1.1c-0.03,1.8-0.07,3.58-0.13,5.35c1.27-1,2.66-1.51,4.18-1.53
			c0.43,0,0.91,0.03,1.43,0.1c0.54,0.08,1.04,0.27,1.5,0.57c0.48,0.27,0.88,0.68,1.21,1.23c0.31,0.56,0.46,1.3,0.46,2.22
			c0.02,1.99,0.04,3.43,0.07,4.32c-0.01,0.38,0.02,0.83,0.11,1.36c0.05,0.24,0.12,0.47,0.21,0.67c0.09,0.2,0.22,0.35,0.39,0.43
			c0.2,0.07,0.36,0.15,0.46,0.27c0.1,0.14,0.14,0.38,0.14,0.73c0,0.24-0.04,0.5-0.12,0.77c-0.12,0.3-0.3,0.46-0.54,0.48
			c-1.04-0.03-2.1-0.06-3.16-0.07c-1.05,0.02-2.11,0.04-3.17,0.07c-0.31-0.02-0.51-0.17-0.59-0.48c-0.11-0.28-0.16-0.56-0.14-0.82
			c0-0.22,0.03-0.38,0.1-0.48c0.05-0.11,0.11-0.17,0.18-0.18c0.1-0.05,0.18-0.09,0.25-0.12c0.05-0.02,0.1-0.07,0.13-0.17
			c0.16-0.3,0.26-0.68,0.3-1.12c0.02-0.44,0.02-1.22,0.02-2.33c0-0.43-0.01-0.89-0.02-1.37c-0.02-0.49-0.1-0.94-0.25-1.36
			c-0.12-0.43-0.34-0.78-0.66-1.05c-0.34-0.27-0.79-0.4-1.37-0.4c-0.29,0-0.53,0.06-0.72,0.18c-0.22,0.15-0.33,0.37-0.33,0.67
			c0,1.62,0.02,3.1,0.05,4.44c0,0.46,0.03,0.92,0.1,1.38c0.06,0.48,0.23,0.8,0.49,0.95c0.25,0.08,0.42,0.2,0.51,0.35
			c0.06,0.15,0.1,0.38,0.1,0.7c0,0.4-0.05,0.7-0.14,0.9c-0.13,0.2-0.4,0.29-0.8,0.29c-1.02-0.03-2.03-0.06-3.05-0.07
			c-1.02,0.02-2.03,0.04-3.05,0.07c-0.37,0-0.61-0.08-0.72-0.24c-0.12-0.17-0.17-0.44-0.15-0.81c0-0.43,0.07-0.71,0.23-0.84
			c0.13-0.14,0.32-0.26,0.58-0.35c0.28-0.15,0.45-0.75,0.51-1.78c0.05-1.01,0.07-2.44,0.07-4.3V88.63z"/>
		<path class="st1" d="M246.13,95.99c0.17,0.83,0.49,1.52,0.95,2.07c0.46,0.59,1.15,0.88,2.05,0.88c0.43,0,0.82-0.08,1.17-0.24
			c0.35-0.16,0.67-0.32,0.95-0.5c0.3-0.19,0.56-0.36,0.77-0.5c0.2-0.14,0.35-0.21,0.45-0.21c0.28,0,0.42,0.21,0.4,0.63
			c-0.01,0.85-0.23,1.53-0.65,2.05c-0.42,0.55-0.97,0.97-1.65,1.27c-0.68,0.3-1.39,0.51-2.14,0.62c-0.76,0.11-1.46,0.17-2.11,0.17
			c-1.8-0.03-3.18-0.62-4.13-1.77c-0.95-1.11-1.43-2.53-1.43-4.25c0.01-1.97,0.69-3.66,2.01-5.08c1.26-1.45,2.84-2.19,4.75-2.22
			c1.02,0,1.86,0.16,2.54,0.48c0.68,0.33,1.22,0.76,1.62,1.27c0.4,0.49,0.68,0.99,0.84,1.5c0.17,0.54,0.25,1,0.25,1.4
			c0,0.18-0.11,0.35-0.33,0.5c-0.23,0.18-0.52,0.32-0.87,0.43L246.13,95.99z M248.18,92.67c0-0.37-0.11-0.68-0.32-0.95
			c-0.22-0.23-0.52-0.35-0.9-0.37c-0.39,0.02-0.66,0.18-0.82,0.5c-0.2,0.32-0.3,0.66-0.3,1.03c-0.02,0.68,0.15,1.01,0.49,0.99
			c0.18,0,0.52-0.1,1.02-0.29c0.23-0.1,0.42-0.22,0.58-0.38C248.09,93.05,248.18,92.87,248.18,92.67"/>
		<path class="st1" d="M255.91,92.75c-0.02-0.16-0.12-0.28-0.32-0.36c-0.21-0.09-0.4-0.17-0.56-0.23c-0.29-0.15-0.44-0.41-0.44-0.79
			c0-0.44,0.26-0.74,0.78-0.9c0.24-0.1,0.51-0.2,0.84-0.3c0.31-0.08,0.63-0.18,0.97-0.29c0.76-0.27,1.46-0.49,2.11-0.68
			c0.66-0.18,1.14-0.27,1.43-0.27c0.29,0,0.48,0.06,0.56,0.17c0.05,0.12,0.07,0.3,0.07,0.52c-0.02,0.2-0.04,0.45-0.07,0.73
			c0,0.15,0.03,0.22,0.09,0.22c0.1,0,0.25-0.1,0.44-0.29c0.18-0.17,0.39-0.35,0.64-0.55c0.5-0.5,1.1-0.77,1.81-0.81
			c0.43,0,0.79,0.11,1.06,0.33c0.27,0.23,0.5,0.53,0.66,0.89c0.27,0.75,0.4,1.51,0.4,2.28c0.02,0.46-0.04,0.97-0.17,1.52
			c-0.06,0.24-0.18,0.46-0.37,0.65c-0.16,0.18-0.4,0.27-0.72,0.27c-0.26,0-0.51-0.11-0.76-0.34c-0.25-0.22-0.51-0.47-0.77-0.76
			c-0.26-0.28-0.53-0.53-0.8-0.74c-0.29-0.22-0.59-0.33-0.89-0.33c-0.43-0.02-0.65,0.19-0.66,0.62v4.36
			c-0.02,0.58,0.09,1.03,0.32,1.34c0.21,0.33,0.59,0.6,1.16,0.81c0.31,0.08,0.53,0.2,0.68,0.36c0.13,0.15,0.2,0.4,0.2,0.77
			c0,0.29-0.04,0.53-0.12,0.74c-0.09,0.24-0.3,0.36-0.64,0.38c-0.97-0.03-2.08-0.06-3.34-0.07c-1.21,0.02-2.42,0.04-3.63,0.07
			c-0.47,0-0.8-0.09-0.99-0.27c-0.21-0.2-0.32-0.55-0.32-1.03c0-0.33,0.06-0.57,0.16-0.71c0.1-0.11,0.24-0.2,0.41-0.25
			c0.2-0.08,0.35-0.22,0.46-0.43c0.1-0.2,0.17-0.42,0.21-0.65c0.05-0.52,0.08-0.96,0.08-1.31V92.75z"/>
		<path class="st1" d="M273.01,95.99c0.17,0.83,0.49,1.52,0.95,2.07c0.46,0.59,1.15,0.88,2.05,0.88c0.43,0,0.82-0.08,1.17-0.24
			c0.35-0.16,0.67-0.32,0.95-0.5c0.3-0.19,0.56-0.36,0.77-0.5c0.2-0.14,0.35-0.21,0.45-0.21c0.28,0,0.42,0.21,0.4,0.63
			c-0.01,0.85-0.23,1.53-0.65,2.05c-0.42,0.55-0.97,0.97-1.65,1.27c-0.68,0.3-1.39,0.51-2.14,0.62c-0.76,0.11-1.46,0.17-2.11,0.17
			c-1.8-0.03-3.18-0.62-4.13-1.77c-0.95-1.11-1.43-2.53-1.43-4.25c0.01-1.97,0.68-3.66,2.01-5.08c1.26-1.45,2.84-2.19,4.75-2.22
			c1.02,0,1.86,0.16,2.54,0.48c0.68,0.33,1.22,0.76,1.62,1.27c0.4,0.49,0.68,0.99,0.84,1.5c0.17,0.54,0.25,1,0.25,1.4
			c0,0.18-0.11,0.35-0.33,0.5c-0.23,0.18-0.52,0.32-0.87,0.43L273.01,95.99z M275.06,92.67c0-0.37-0.11-0.68-0.32-0.95
			c-0.22-0.23-0.52-0.35-0.9-0.37c-0.39,0.02-0.66,0.18-0.82,0.5c-0.2,0.32-0.3,0.66-0.3,1.03c-0.02,0.68,0.15,1.01,0.49,0.99
			c0.18,0,0.52-0.1,1.02-0.29c0.23-0.1,0.42-0.22,0.58-0.38C274.97,93.05,275.06,92.87,275.06,92.67"/>
		<path class="st1" d="M287.5,99.38c-0.02,0.9-0.28,1.58-0.78,2.03c-0.53,0.48-1.19,0.72-1.97,0.72c-0.7,0-1.29-0.22-1.77-0.65
			c-0.5-0.41-0.75-1-0.75-1.75c0-0.93,0.27-1.63,0.82-2.07c0.54-0.46,1.18-0.68,1.94-0.68c0.73,0,1.32,0.21,1.8,0.63
			C287.24,98.05,287.48,98.64,287.5,99.38"/>
		<path class="st1" d="M295.6,99.38c-0.02,0.9-0.28,1.58-0.78,2.03c-0.53,0.48-1.19,0.72-1.97,0.72c-0.7,0-1.29-0.22-1.77-0.65
			c-0.5-0.41-0.75-1-0.75-1.75c0-0.93,0.27-1.63,0.82-2.07c0.54-0.46,1.18-0.68,1.94-0.68c0.73,0,1.32,0.21,1.8,0.63
			C295.35,98.05,295.59,98.64,295.6,99.38"/>
		<path class="st1" d="M303.71,99.38c-0.02,0.9-0.28,1.58-0.78,2.03c-0.53,0.48-1.19,0.72-1.97,0.72c-0.7,0-1.29-0.22-1.77-0.65
			c-0.5-0.41-0.75-1-0.75-1.75c0-0.93,0.27-1.63,0.82-2.07c0.54-0.46,1.18-0.68,1.94-0.68c0.73,0,1.32,0.21,1.8,0.63
			C303.45,98.05,303.69,98.64,303.71,99.38"/>
		<path class="st1" d="M68.03,461.51c0.43,0.65,0.99,1.13,1.66,1.44c0.68,0.31,1.37,0.46,2.09,0.46c0.4,0,0.81-0.06,1.22-0.19
			c0.42-0.13,0.8-0.31,1.14-0.56c0.34-0.25,0.62-0.56,0.84-0.92c0.22-0.37,0.32-0.79,0.32-1.28c0-0.68-0.22-1.2-0.65-1.56
			c-0.43-0.36-0.97-0.66-1.61-0.9c-0.64-0.24-1.34-0.47-2.1-0.7c-0.76-0.23-1.46-0.54-2.1-0.94c-0.64-0.4-1.18-0.94-1.61-1.61
			c-0.43-0.67-0.65-1.59-0.65-2.74c0-0.52,0.11-1.07,0.34-1.65c0.23-0.58,0.58-1.12,1.06-1.6c0.48-0.48,1.1-0.89,1.86-1.21
			c0.76-0.33,1.67-0.49,2.74-0.49c0.97,0,1.89,0.13,2.78,0.4c0.88,0.27,1.66,0.81,2.32,1.63l-1.95,1.78
			c-0.3-0.47-0.72-0.84-1.28-1.13c-0.55-0.28-1.17-0.43-1.88-0.43c-0.67,0-1.22,0.09-1.66,0.26c-0.44,0.18-0.8,0.4-1.06,0.68
			c-0.27,0.28-0.45,0.57-0.56,0.89c-0.11,0.32-0.16,0.61-0.16,0.88c0,0.75,0.22,1.33,0.65,1.73c0.43,0.4,0.97,0.72,1.61,0.97
			c0.64,0.25,1.34,0.48,2.1,0.67c0.76,0.2,1.46,0.48,2.1,0.84c0.64,0.36,1.18,0.84,1.61,1.45s0.65,1.45,0.65,2.51
			c0,0.85-0.16,1.62-0.49,2.3c-0.33,0.68-0.76,1.26-1.31,1.72c-0.55,0.47-1.2,0.83-1.95,1.08s-1.55,0.38-2.4,0.38
			c-1.13,0-2.21-0.2-3.22-0.6c-1.02-0.4-1.82-1.02-2.43-1.85L68.03,461.51z"/>
		<path class="st1" d="M87.18,455.31h-3.23v5.38c0,0.33,0.01,0.66,0.03,0.99c0.02,0.32,0.08,0.62,0.19,0.88
			c0.11,0.26,0.27,0.47,0.5,0.63c0.22,0.16,0.55,0.24,0.99,0.24c0.27,0,0.54-0.03,0.82-0.08c0.28-0.05,0.54-0.14,0.78-0.28v2.05
			c-0.27,0.15-0.61,0.25-1.04,0.31c-0.42,0.06-0.75,0.09-0.99,0.09c-0.87,0-1.54-0.12-2.01-0.36c-0.47-0.24-0.82-0.55-1.05-0.94
			c-0.23-0.38-0.36-0.81-0.4-1.29c-0.04-0.48-0.06-0.95-0.06-1.44v-6.18h-2.6v-1.95h2.6v-3.33h2.25v3.33h3.23V455.31z"/>
		<path class="st1" d="M90.13,454.81c0.63-0.58,1.37-1.02,2.2-1.31c0.83-0.29,1.67-0.44,2.5-0.44c0.87,0,1.61,0.11,2.24,0.32
			c0.63,0.22,1.14,0.51,1.54,0.88c0.4,0.37,0.7,0.79,0.89,1.26c0.19,0.47,0.29,0.97,0.29,1.49v6.05c0,0.42,0.01,0.8,0.03,1.15
			c0.02,0.35,0.04,0.68,0.07,1h-2c-0.05-0.6-0.07-1.2-0.07-1.8h-0.05c-0.5,0.77-1.09,1.31-1.77,1.63c-0.68,0.32-1.48,0.47-2.38,0.47
			c-0.55,0-1.08-0.07-1.58-0.22c-0.5-0.15-0.94-0.38-1.31-0.67c-0.38-0.3-0.67-0.67-0.89-1.11c-0.22-0.44-0.33-0.95-0.33-1.54
			c0-0.77,0.17-1.41,0.51-1.92c0.34-0.52,0.81-0.94,1.4-1.26c0.59-0.32,1.28-0.56,2.07-0.7c0.79-0.14,1.64-0.21,2.54-0.21h1.65v-0.5
			c0-0.3-0.06-0.6-0.18-0.9c-0.12-0.3-0.29-0.57-0.52-0.81c-0.23-0.24-0.53-0.43-0.88-0.57c-0.35-0.14-0.77-0.21-1.25-0.21
			c-0.43,0-0.81,0.04-1.14,0.13c-0.32,0.08-0.62,0.19-0.89,0.31c-0.27,0.13-0.51,0.27-0.72,0.44c-0.22,0.17-0.43,0.32-0.63,0.47
			L90.13,454.81z M96.48,459.51c-0.53,0-1.08,0.03-1.64,0.09c-0.56,0.06-1.07,0.17-1.53,0.34c-0.46,0.17-0.83,0.4-1.13,0.7
			c-0.29,0.3-0.44,0.68-0.44,1.15c0,0.68,0.23,1.17,0.69,1.47c0.46,0.3,1.08,0.45,1.86,0.45c0.62,0,1.14-0.1,1.57-0.31
			c0.43-0.21,0.78-0.48,1.05-0.81c0.27-0.33,0.46-0.7,0.57-1.11c0.12-0.41,0.18-0.81,0.18-1.21v-0.75H96.48z"/>
		<path class="st1" d="M103.05,453.36h2.25v1.82h0.05c0.15-0.32,0.35-0.6,0.6-0.86c0.25-0.26,0.53-0.48,0.84-0.66
			c0.31-0.18,0.65-0.33,1.01-0.44c0.37-0.11,0.73-0.16,1.1-0.16c0.37,0,0.7,0.05,1,0.15l-0.1,2.42c-0.18-0.05-0.37-0.09-0.55-0.13
			c-0.18-0.03-0.37-0.05-0.55-0.05c-1.1,0-1.94,0.31-2.52,0.92c-0.58,0.62-0.88,1.58-0.88,2.88v5.95h-2.25V453.36z"/>
		<path class="st1" d="M118.65,455.31h-3.23v5.38c0,0.33,0.01,0.66,0.03,0.99c0.02,0.32,0.08,0.62,0.19,0.88
			c0.11,0.26,0.27,0.47,0.5,0.63c0.22,0.16,0.55,0.24,0.99,0.24c0.27,0,0.54-0.03,0.82-0.08c0.28-0.05,0.54-0.14,0.78-0.28v2.05
			c-0.27,0.15-0.61,0.25-1.04,0.31c-0.42,0.06-0.75,0.09-0.99,0.09c-0.87,0-1.54-0.12-2.01-0.36c-0.47-0.24-0.82-0.55-1.05-0.94
			c-0.23-0.38-0.36-0.81-0.4-1.29c-0.04-0.48-0.06-0.95-0.06-1.44v-6.18h-2.6v-1.95h2.6v-3.33h2.25v3.33h3.23V455.31z"/>
		<path class="st1" d="M128.55,454.81c0.63-0.58,1.37-1.02,2.2-1.31c0.83-0.29,1.67-0.44,2.5-0.44c0.87,0,1.61,0.11,2.24,0.32
			c0.63,0.22,1.14,0.51,1.54,0.88c0.4,0.37,0.7,0.79,0.89,1.26c0.19,0.47,0.29,0.97,0.29,1.49v6.05c0,0.42,0.01,0.8,0.03,1.15
			c0.02,0.35,0.04,0.68,0.07,1h-2c-0.05-0.6-0.07-1.2-0.07-1.8h-0.05c-0.5,0.77-1.09,1.31-1.77,1.63c-0.68,0.32-1.48,0.47-2.38,0.47
			c-0.55,0-1.08-0.07-1.58-0.22c-0.5-0.15-0.94-0.38-1.31-0.67c-0.38-0.3-0.67-0.67-0.89-1.11c-0.22-0.44-0.32-0.95-0.32-1.54
			c0-0.77,0.17-1.41,0.51-1.92c0.34-0.52,0.81-0.94,1.4-1.26c0.59-0.32,1.28-0.56,2.07-0.7c0.79-0.14,1.64-0.21,2.54-0.21h1.65v-0.5
			c0-0.3-0.06-0.6-0.18-0.9c-0.12-0.3-0.29-0.57-0.52-0.81c-0.23-0.24-0.53-0.43-0.88-0.57c-0.35-0.14-0.77-0.21-1.25-0.21
			c-0.43,0-0.81,0.04-1.14,0.13c-0.32,0.08-0.62,0.19-0.89,0.31c-0.27,0.13-0.51,0.27-0.72,0.44c-0.22,0.17-0.43,0.32-0.63,0.47
			L128.55,454.81z M134.9,459.51c-0.53,0-1.08,0.03-1.64,0.09c-0.56,0.06-1.07,0.17-1.53,0.34c-0.46,0.17-0.83,0.4-1.13,0.7
			c-0.29,0.3-0.44,0.68-0.44,1.15c0,0.68,0.23,1.17,0.69,1.47c0.46,0.3,1.08,0.45,1.86,0.45c0.62,0,1.14-0.1,1.57-0.31
			c0.43-0.21,0.78-0.48,1.05-0.81c0.27-0.33,0.46-0.7,0.57-1.11c0.12-0.41,0.18-0.81,0.18-1.21v-0.75H134.9z"/>
		<path class="st1" d="M154.73,456.34c-0.27-0.33-0.6-0.61-0.99-0.84c-0.39-0.22-0.87-0.34-1.44-0.34c-0.53,0-1,0.11-1.39,0.34
			c-0.39,0.23-0.59,0.55-0.59,0.99c0,0.35,0.11,0.63,0.34,0.85c0.23,0.22,0.49,0.39,0.8,0.52c0.31,0.13,0.64,0.23,0.99,0.3
			c0.35,0.07,0.65,0.13,0.9,0.17c0.48,0.12,0.94,0.26,1.36,0.43c0.43,0.17,0.79,0.38,1.1,0.65c0.31,0.27,0.55,0.59,0.73,0.98
			c0.18,0.38,0.26,0.85,0.26,1.4c0,0.67-0.14,1.24-0.43,1.71c-0.28,0.48-0.65,0.86-1.1,1.16c-0.45,0.3-0.96,0.52-1.54,0.65
			c-0.57,0.13-1.15,0.2-1.74,0.2c-0.98,0-1.85-0.15-2.59-0.45c-0.74-0.3-1.4-0.85-1.99-1.65l1.7-1.4c0.37,0.37,0.77,0.69,1.23,0.97
			c0.45,0.28,1,0.43,1.65,0.43c0.28,0,0.57-0.03,0.86-0.09c0.29-0.06,0.55-0.15,0.78-0.27c0.22-0.13,0.41-0.28,0.55-0.48
			c0.14-0.19,0.21-0.41,0.21-0.66c0-0.33-0.1-0.61-0.31-0.83c-0.21-0.22-0.46-0.39-0.75-0.51c-0.29-0.13-0.6-0.22-0.93-0.3
			c-0.32-0.08-0.61-0.14-0.86-0.19c-0.48-0.12-0.94-0.25-1.38-0.4s-0.82-0.35-1.15-0.6c-0.33-0.25-0.6-0.57-0.8-0.95
			c-0.2-0.38-0.3-0.86-0.3-1.43c0-0.62,0.13-1.15,0.39-1.61c0.26-0.46,0.6-0.84,1.03-1.14c0.43-0.3,0.91-0.52,1.45-0.67
			c0.54-0.15,1.09-0.23,1.64-0.23c0.8,0,1.57,0.15,2.3,0.45c0.73,0.3,1.32,0.8,1.75,1.5L154.73,456.34z"/>
		<path class="st1" d="M161.23,460.11c0,0.52,0.11,0.99,0.34,1.41c0.22,0.42,0.52,0.79,0.89,1.09c0.37,0.3,0.79,0.53,1.27,0.7
			c0.48,0.17,0.98,0.25,1.5,0.25c0.7,0,1.31-0.16,1.82-0.49c0.52-0.33,0.99-0.75,1.43-1.29l1.7,1.3c-1.25,1.62-3,2.42-5.25,2.42
			c-0.93,0-1.78-0.16-2.54-0.47c-0.76-0.32-1.4-0.75-1.93-1.31c-0.53-0.56-0.93-1.22-1.21-1.98c-0.28-0.76-0.42-1.58-0.42-2.46
			c0-0.88,0.15-1.7,0.46-2.46c0.31-0.76,0.73-1.42,1.28-1.97c0.54-0.56,1.19-1,1.94-1.31c0.75-0.32,1.57-0.48,2.45-0.48
			c1.05,0,1.94,0.18,2.66,0.55c0.72,0.37,1.32,0.85,1.79,1.44c0.47,0.59,0.8,1.26,1.01,2c0.21,0.74,0.31,1.5,0.31,2.26v0.8H161.23z
			 M168.33,458.31c-0.02-0.5-0.1-0.96-0.24-1.38c-0.14-0.42-0.35-0.78-0.64-1.09c-0.28-0.31-0.64-0.55-1.06-0.73
			c-0.43-0.17-0.92-0.26-1.49-0.26c-0.55,0-1.05,0.1-1.51,0.31c-0.46,0.21-0.85,0.48-1.16,0.81c-0.32,0.33-0.56,0.7-0.74,1.11
			c-0.18,0.41-0.26,0.81-0.26,1.21H168.33z"/>
		<path class="st1" d="M179.73,456.34c-0.27-0.33-0.6-0.61-0.99-0.84c-0.39-0.22-0.87-0.34-1.44-0.34c-0.53,0-1,0.11-1.39,0.34
			c-0.39,0.23-0.59,0.55-0.59,0.99c0,0.35,0.11,0.63,0.34,0.85c0.22,0.22,0.49,0.39,0.8,0.52c0.31,0.13,0.64,0.23,0.99,0.3
			c0.35,0.07,0.65,0.13,0.9,0.17c0.48,0.12,0.94,0.26,1.36,0.43c0.43,0.17,0.79,0.38,1.1,0.65c0.31,0.27,0.55,0.59,0.72,0.98
			c0.17,0.38,0.26,0.85,0.26,1.4c0,0.67-0.14,1.24-0.42,1.71c-0.29,0.48-0.65,0.86-1.1,1.16c-0.45,0.3-0.96,0.52-1.54,0.65
			c-0.57,0.13-1.15,0.2-1.74,0.2c-0.98,0-1.85-0.15-2.59-0.45c-0.74-0.3-1.4-0.85-1.99-1.65l1.7-1.4c0.37,0.37,0.77,0.69,1.23,0.97
			c0.45,0.28,1,0.43,1.65,0.43c0.28,0,0.57-0.03,0.86-0.09c0.29-0.06,0.55-0.15,0.77-0.27c0.23-0.13,0.41-0.28,0.55-0.48
			c0.14-0.19,0.21-0.41,0.21-0.66c0-0.33-0.1-0.61-0.31-0.83c-0.21-0.22-0.46-0.39-0.75-0.51c-0.29-0.13-0.6-0.22-0.92-0.3
			c-0.33-0.08-0.61-0.14-0.86-0.19c-0.48-0.12-0.94-0.25-1.38-0.4c-0.43-0.15-0.82-0.35-1.15-0.6c-0.33-0.25-0.6-0.57-0.8-0.95
			c-0.2-0.38-0.3-0.86-0.3-1.43c0-0.62,0.13-1.15,0.39-1.61c0.26-0.46,0.6-0.84,1.02-1.14c0.43-0.3,0.91-0.52,1.45-0.67
			c0.54-0.15,1.09-0.23,1.64-0.23c0.8,0,1.57,0.15,2.3,0.45c0.73,0.3,1.32,0.8,1.75,1.5L179.73,456.34z"/>
		<path class="st1" d="M190.83,456.34c-0.27-0.33-0.6-0.61-0.99-0.84c-0.39-0.22-0.87-0.34-1.44-0.34c-0.53,0-1,0.11-1.39,0.34
			c-0.39,0.23-0.59,0.55-0.59,0.99c0,0.35,0.11,0.63,0.34,0.85c0.22,0.22,0.49,0.39,0.8,0.52c0.31,0.13,0.64,0.23,0.99,0.3
			c0.35,0.07,0.65,0.13,0.9,0.17c0.48,0.12,0.94,0.26,1.36,0.43c0.42,0.17,0.79,0.38,1.1,0.65c0.31,0.27,0.55,0.59,0.72,0.98
			c0.18,0.38,0.26,0.85,0.26,1.4c0,0.67-0.14,1.24-0.43,1.71c-0.28,0.48-0.65,0.86-1.1,1.16c-0.45,0.3-0.96,0.52-1.54,0.65
			c-0.57,0.13-1.15,0.2-1.74,0.2c-0.98,0-1.85-0.15-2.59-0.45c-0.74-0.3-1.4-0.85-1.99-1.65l1.7-1.4c0.37,0.37,0.77,0.69,1.23,0.97
			c0.45,0.28,1,0.43,1.65,0.43c0.28,0,0.57-0.03,0.86-0.09c0.29-0.06,0.55-0.15,0.77-0.27c0.23-0.13,0.41-0.28,0.55-0.48
			c0.14-0.19,0.21-0.41,0.21-0.66c0-0.33-0.1-0.61-0.31-0.83c-0.21-0.22-0.46-0.39-0.75-0.51c-0.29-0.13-0.6-0.22-0.93-0.3
			c-0.32-0.08-0.61-0.14-0.86-0.19c-0.48-0.12-0.94-0.25-1.38-0.4s-0.82-0.35-1.15-0.6c-0.33-0.25-0.6-0.57-0.8-0.95
			c-0.2-0.38-0.3-0.86-0.3-1.43c0-0.62,0.13-1.15,0.39-1.61c0.26-0.46,0.6-0.84,1.02-1.14c0.42-0.3,0.91-0.52,1.45-0.67
			c0.54-0.15,1.09-0.23,1.64-0.23c0.8,0,1.57,0.15,2.3,0.45c0.73,0.3,1.32,0.8,1.75,1.5L190.83,456.34z"/>
		<path class="st1" d="M195.27,449.11c0-0.45,0.16-0.84,0.49-1.16c0.32-0.33,0.71-0.49,1.16-0.49c0.45,0,0.84,0.16,1.16,0.49
			c0.32,0.33,0.49,0.71,0.49,1.16c0,0.45-0.16,0.84-0.49,1.16c-0.32,0.33-0.71,0.49-1.16,0.49c-0.45,0-0.84-0.16-1.16-0.49
			C195.44,449.95,195.27,449.56,195.27,449.11 M195.8,453.36h2.25v11.85h-2.25V453.36z"/>
		<path class="st1" d="M201.05,459.29c0-0.87,0.16-1.67,0.49-2.42s0.77-1.41,1.34-1.98c0.57-0.57,1.23-1.01,2-1.34
			c0.77-0.32,1.59-0.49,2.47-0.49c0.88,0,1.71,0.16,2.48,0.49c0.77,0.32,1.43,0.77,2,1.34c0.57,0.57,1.01,1.23,1.34,1.98
			s0.49,1.56,0.49,2.42s-0.16,1.68-0.49,2.44c-0.32,0.76-0.77,1.42-1.34,1.97c-0.57,0.56-1.23,1-2,1.33
			c-0.77,0.32-1.59,0.49-2.48,0.49c-0.88,0-1.71-0.16-2.47-0.49c-0.77-0.33-1.43-0.77-2-1.33c-0.57-0.56-1.01-1.22-1.34-1.97
			C201.21,460.97,201.05,460.15,201.05,459.29 M203.45,459.29c0,0.6,0.09,1.15,0.27,1.66c0.18,0.51,0.44,0.94,0.78,1.3
			c0.33,0.36,0.74,0.64,1.22,0.85c0.48,0.21,1.03,0.31,1.63,0.31c0.6,0,1.14-0.1,1.63-0.31c0.48-0.21,0.89-0.49,1.23-0.85
			c0.33-0.36,0.59-0.79,0.77-1.3c0.18-0.51,0.28-1.06,0.28-1.66c0-0.6-0.09-1.15-0.28-1.66c-0.18-0.51-0.44-0.94-0.77-1.3
			c-0.33-0.36-0.74-0.64-1.23-0.85c-0.48-0.21-1.02-0.31-1.63-0.31c-0.6,0-1.14,0.1-1.63,0.31c-0.48,0.21-0.89,0.49-1.22,0.85
			c-0.33,0.36-0.59,0.79-0.78,1.3C203.54,458.13,203.45,458.69,203.45,459.29"/>
		<path class="st1" d="M216.48,453.36h2.25v1.82h0.05c0.28-0.63,0.78-1.15,1.47-1.54c0.7-0.39,1.51-0.59,2.43-0.59
			c0.57,0,1.11,0.09,1.64,0.26c0.53,0.17,0.98,0.45,1.38,0.81c0.39,0.37,0.7,0.84,0.94,1.41c0.23,0.57,0.35,1.25,0.35,2.04v7.63
			h-2.25v-7c0-0.55-0.08-1.02-0.23-1.41c-0.15-0.39-0.35-0.71-0.6-0.95c-0.25-0.24-0.54-0.42-0.86-0.53
			c-0.32-0.11-0.66-0.16-1.01-0.16c-0.47,0-0.9,0.07-1.3,0.22c-0.4,0.15-0.75,0.39-1.05,0.71c-0.3,0.33-0.53,0.74-0.7,1.24
			c-0.17,0.5-0.25,1.09-0.25,1.77v6.1h-2.25V453.36z"/>
		<path class="st1" d="M237.38,454.81c0.63-0.58,1.37-1.02,2.2-1.31c0.83-0.29,1.67-0.44,2.5-0.44c0.87,0,1.61,0.11,2.24,0.32
			c0.63,0.22,1.14,0.51,1.54,0.88c0.4,0.37,0.7,0.79,0.89,1.26c0.19,0.47,0.29,0.97,0.29,1.49v6.05c0,0.42,0.01,0.8,0.02,1.15
			c0.02,0.35,0.04,0.68,0.07,1h-2c-0.05-0.6-0.07-1.2-0.07-1.8H245c-0.5,0.77-1.09,1.31-1.77,1.63c-0.68,0.32-1.48,0.47-2.38,0.47
			c-0.55,0-1.07-0.07-1.57-0.22c-0.5-0.15-0.94-0.38-1.31-0.67c-0.38-0.3-0.67-0.67-0.89-1.11c-0.22-0.44-0.33-0.95-0.33-1.54
			c0-0.77,0.17-1.41,0.51-1.92c0.34-0.52,0.81-0.94,1.4-1.26c0.59-0.32,1.28-0.56,2.07-0.7c0.79-0.14,1.64-0.21,2.54-0.21h1.65v-0.5
			c0-0.3-0.06-0.6-0.18-0.9s-0.29-0.57-0.52-0.81c-0.23-0.24-0.52-0.43-0.88-0.57c-0.35-0.14-0.77-0.21-1.25-0.21
			c-0.43,0-0.81,0.04-1.14,0.13c-0.32,0.08-0.62,0.19-0.89,0.31c-0.27,0.13-0.51,0.27-0.73,0.44c-0.22,0.17-0.43,0.32-0.63,0.47
			L237.38,454.81z M243.73,459.51c-0.53,0-1.08,0.03-1.64,0.09c-0.56,0.06-1.07,0.17-1.52,0.34c-0.46,0.17-0.83,0.4-1.13,0.7
			c-0.29,0.3-0.44,0.68-0.44,1.15c0,0.68,0.23,1.17,0.69,1.47c0.46,0.3,1.08,0.45,1.86,0.45c0.62,0,1.14-0.1,1.57-0.31
			c0.43-0.21,0.78-0.48,1.05-0.81c0.27-0.33,0.46-0.7,0.57-1.11c0.12-0.41,0.18-0.81,0.18-1.21v-0.75H243.73z"/>
		<path class="st1" d="M250.3,453.36h2.25v1.82h0.05c0.28-0.63,0.78-1.15,1.47-1.54c0.7-0.39,1.51-0.59,2.43-0.59
			c0.57,0,1.11,0.09,1.64,0.26s0.98,0.45,1.38,0.81c0.39,0.37,0.7,0.84,0.94,1.41c0.23,0.57,0.35,1.25,0.35,2.04v7.63h-2.25v-7
			c0-0.55-0.08-1.02-0.23-1.41c-0.15-0.39-0.35-0.71-0.6-0.95c-0.25-0.24-0.54-0.42-0.86-0.53c-0.33-0.11-0.66-0.16-1.01-0.16
			c-0.47,0-0.9,0.07-1.3,0.22c-0.4,0.15-0.75,0.39-1.05,0.71c-0.3,0.33-0.53,0.74-0.7,1.24c-0.17,0.5-0.25,1.09-0.25,1.77v6.1h-2.25
			V453.36z"/>
		<path class="st1" d="M276.08,465.21h-2.25v-1.7h-0.05c-0.43,0.63-1.03,1.13-1.79,1.48c-0.76,0.35-1.54,0.52-2.34,0.52
			c-0.92,0-1.75-0.16-2.49-0.48c-0.74-0.32-1.38-0.76-1.9-1.32c-0.52-0.57-0.93-1.23-1.21-1.98c-0.28-0.75-0.43-1.57-0.43-2.45
			s0.14-1.7,0.43-2.46c0.28-0.76,0.69-1.42,1.21-1.98c0.52-0.56,1.16-1,1.9-1.31c0.74-0.32,1.57-0.48,2.49-0.48
			c0.85,0,1.65,0.18,2.4,0.54c0.75,0.36,1.32,0.85,1.73,1.46h0.05v-8.75h2.25V465.21z M269.93,463.41c0.6,0,1.14-0.1,1.63-0.31
			c0.48-0.21,0.89-0.49,1.23-0.85c0.33-0.36,0.59-0.79,0.77-1.3c0.18-0.51,0.27-1.06,0.27-1.66c0-0.6-0.09-1.15-0.27-1.66
			c-0.18-0.51-0.44-0.94-0.77-1.3c-0.33-0.36-0.74-0.64-1.23-0.85c-0.48-0.21-1.02-0.31-1.63-0.31c-0.6,0-1.14,0.1-1.63,0.31
			c-0.48,0.21-0.89,0.49-1.23,0.85c-0.33,0.36-0.59,0.79-0.77,1.3c-0.18,0.51-0.27,1.06-0.27,1.66c0,0.6,0.09,1.15,0.27,1.66
			c0.18,0.51,0.44,0.94,0.77,1.3c0.33,0.36,0.74,0.64,1.23,0.85C268.78,463.31,269.33,463.41,269.93,463.41"/>
		<path class="st1" d="M104.95,490.21h-2.25v-1.7h-0.05c-0.43,0.63-1.03,1.13-1.79,1.48c-0.76,0.35-1.54,0.52-2.34,0.52
			c-0.92,0-1.75-0.16-2.49-0.48c-0.74-0.32-1.38-0.76-1.9-1.32c-0.53-0.57-0.93-1.23-1.21-1.98c-0.28-0.75-0.43-1.57-0.43-2.45
			s0.14-1.7,0.43-2.46c0.28-0.76,0.69-1.42,1.21-1.98c0.53-0.56,1.16-1,1.9-1.31c0.74-0.32,1.57-0.48,2.49-0.48
			c0.85,0,1.65,0.18,2.4,0.54c0.75,0.36,1.32,0.85,1.72,1.46h0.05v-8.75h2.25V490.21z M98.8,488.41c0.6,0,1.14-0.1,1.63-0.31
			c0.48-0.21,0.89-0.49,1.22-0.85c0.33-0.36,0.59-0.79,0.78-1.3c0.18-0.51,0.27-1.06,0.27-1.66c0-0.6-0.09-1.15-0.27-1.66
			c-0.18-0.51-0.44-0.94-0.78-1.3c-0.33-0.36-0.74-0.64-1.22-0.85c-0.48-0.21-1.03-0.31-1.63-0.31c-0.6,0-1.14,0.1-1.63,0.31
			c-0.48,0.21-0.89,0.49-1.23,0.85c-0.33,0.36-0.59,0.79-0.77,1.3c-0.18,0.51-0.28,1.06-0.28,1.66c0,0.6,0.09,1.15,0.28,1.66
			c0.18,0.51,0.44,0.94,0.77,1.3c0.33,0.36,0.74,0.64,1.23,0.85C97.66,488.31,98.2,488.41,98.8,488.41"/>
		<path class="st1" d="M108.35,478.36h2.25v1.82h0.05c0.15-0.32,0.35-0.6,0.6-0.86c0.25-0.26,0.53-0.48,0.84-0.66
			c0.31-0.18,0.65-0.33,1.01-0.44c0.37-0.11,0.73-0.16,1.1-0.16c0.37,0,0.7,0.05,1,0.15l-0.1,2.42c-0.18-0.05-0.37-0.09-0.55-0.13
			c-0.18-0.03-0.37-0.05-0.55-0.05c-1.1,0-1.94,0.31-2.52,0.92c-0.58,0.62-0.88,1.58-0.88,2.88v5.95h-2.25V478.36z"/>
		<path class="st1" d="M117.65,479.81c0.63-0.58,1.37-1.02,2.2-1.31c0.83-0.29,1.67-0.44,2.5-0.44c0.87,0,1.61,0.11,2.24,0.32
			c0.63,0.22,1.14,0.51,1.54,0.88c0.4,0.37,0.7,0.79,0.89,1.26c0.19,0.47,0.29,0.97,0.29,1.49v6.05c0,0.42,0.01,0.8,0.03,1.15
			c0.02,0.35,0.04,0.68,0.07,1h-2c-0.05-0.6-0.07-1.2-0.07-1.8h-0.05c-0.5,0.77-1.09,1.31-1.77,1.63c-0.68,0.32-1.48,0.47-2.38,0.47
			c-0.55,0-1.08-0.07-1.58-0.22c-0.5-0.15-0.94-0.38-1.31-0.67c-0.38-0.3-0.67-0.67-0.89-1.11c-0.22-0.44-0.33-0.95-0.33-1.54
			c0-0.77,0.17-1.41,0.51-1.92c0.34-0.52,0.81-0.94,1.4-1.26c0.59-0.32,1.28-0.56,2.07-0.7c0.79-0.14,1.64-0.21,2.54-0.21h1.65v-0.5
			c0-0.3-0.06-0.6-0.18-0.9c-0.12-0.3-0.29-0.57-0.52-0.81c-0.23-0.24-0.53-0.43-0.88-0.57c-0.35-0.14-0.77-0.21-1.25-0.21
			c-0.43,0-0.81,0.04-1.14,0.13c-0.32,0.08-0.62,0.19-0.89,0.31c-0.27,0.13-0.51,0.27-0.72,0.44c-0.22,0.17-0.43,0.32-0.63,0.47
			L117.65,479.81z M124,484.51c-0.53,0-1.08,0.03-1.64,0.09c-0.56,0.06-1.07,0.17-1.53,0.34c-0.46,0.17-0.83,0.4-1.13,0.7
			c-0.29,0.3-0.44,0.68-0.44,1.15c0,0.68,0.23,1.17,0.69,1.47c0.46,0.3,1.08,0.45,1.86,0.45c0.62,0,1.14-0.1,1.57-0.31
			c0.43-0.21,0.78-0.48,1.05-0.81c0.27-0.33,0.46-0.7,0.57-1.11c0.12-0.41,0.18-0.81,0.18-1.21v-0.75H124z"/>
		<polygon class="st1" points="129.15,478.36 131.68,478.36 134.34,487.21 134.39,487.21 137.23,478.36 139.63,478.36
			142.63,487.21 142.68,487.21 145.2,478.36 147.6,478.36 143.78,490.21 141.5,490.21 138.36,481.36 138.31,481.36 135.45,490.21
			133.05,490.21 		"/>
		<path class="st1" d="M156.55,479.81c0.63-0.58,1.37-1.02,2.2-1.31c0.83-0.29,1.67-0.44,2.5-0.44c0.87,0,1.61,0.11,2.24,0.32
			c0.63,0.22,1.14,0.51,1.54,0.88c0.4,0.37,0.7,0.79,0.89,1.26c0.19,0.47,0.29,0.97,0.29,1.49v6.05c0,0.42,0.01,0.8,0.03,1.15
			c0.02,0.35,0.04,0.68,0.07,1h-2c-0.05-0.6-0.07-1.2-0.07-1.8h-0.05c-0.5,0.77-1.09,1.31-1.77,1.63c-0.68,0.32-1.48,0.47-2.38,0.47
			c-0.55,0-1.08-0.07-1.58-0.22c-0.5-0.15-0.94-0.38-1.31-0.67c-0.38-0.3-0.67-0.67-0.89-1.11c-0.22-0.44-0.32-0.95-0.32-1.54
			c0-0.77,0.17-1.41,0.51-1.92c0.34-0.52,0.81-0.94,1.4-1.26c0.59-0.32,1.28-0.56,2.07-0.7c0.79-0.14,1.64-0.21,2.54-0.21h1.65v-0.5
			c0-0.3-0.06-0.6-0.18-0.9c-0.12-0.3-0.29-0.57-0.52-0.81c-0.23-0.24-0.53-0.43-0.88-0.57c-0.35-0.14-0.77-0.21-1.25-0.21
			c-0.43,0-0.81,0.04-1.14,0.13c-0.32,0.08-0.62,0.19-0.89,0.31c-0.27,0.13-0.51,0.27-0.72,0.44c-0.22,0.17-0.43,0.32-0.63,0.47
			L156.55,479.81z M162.9,484.51c-0.53,0-1.08,0.03-1.64,0.09c-0.56,0.06-1.07,0.17-1.53,0.34c-0.46,0.17-0.83,0.4-1.13,0.7
			c-0.29,0.3-0.44,0.68-0.44,1.15c0,0.68,0.23,1.17,0.69,1.47c0.46,0.3,1.08,0.45,1.86,0.45c0.62,0,1.14-0.1,1.57-0.31
			c0.43-0.21,0.78-0.48,1.05-0.81c0.27-0.33,0.46-0.7,0.57-1.11c0.12-0.41,0.18-0.81,0.18-1.21v-0.75H162.9z"/>
		<path class="st1" d="M184.9,481.51c-0.42-0.43-0.85-0.76-1.31-0.99c-0.46-0.22-1-0.34-1.64-0.34c-0.62,0-1.15,0.11-1.61,0.34
			c-0.46,0.22-0.84,0.53-1.15,0.93c-0.31,0.39-0.54,0.84-0.7,1.35c-0.16,0.51-0.24,1.04-0.24,1.59c0,0.55,0.09,1.07,0.27,1.56
			c0.18,0.49,0.44,0.92,0.77,1.29c0.33,0.37,0.73,0.65,1.2,0.86c0.46,0.21,0.99,0.31,1.57,0.31c0.63,0,1.18-0.11,1.63-0.34
			c0.45-0.22,0.87-0.55,1.25-0.99l1.6,1.6c-0.58,0.65-1.26,1.12-2.04,1.4c-0.77,0.28-1.6,0.42-2.46,0.42
			c-0.92,0-1.75-0.15-2.51-0.45c-0.76-0.3-1.41-0.72-1.96-1.26c-0.55-0.54-0.97-1.19-1.27-1.95c-0.3-0.76-0.45-1.6-0.45-2.51
			c0-0.92,0.15-1.76,0.45-2.52c0.3-0.77,0.72-1.43,1.26-1.98c0.54-0.55,1.19-0.98,1.95-1.29c0.76-0.31,1.6-0.46,2.54-0.46
			c0.87,0,1.7,0.15,2.49,0.46c0.79,0.31,1.48,0.78,2.06,1.41L184.9,481.51z"/>
		<path class="st1" d="M188.48,478.36h2.25v1.82h0.05c0.15-0.32,0.35-0.6,0.6-0.86c0.25-0.26,0.53-0.48,0.84-0.66
			c0.31-0.18,0.65-0.33,1.01-0.44c0.37-0.11,0.73-0.16,1.1-0.16c0.37,0,0.7,0.05,1,0.15l-0.1,2.42c-0.18-0.05-0.37-0.09-0.55-0.13
			c-0.18-0.03-0.37-0.05-0.55-0.05c-1.1,0-1.94,0.31-2.52,0.92c-0.58,0.62-0.88,1.58-0.88,2.88v5.95h-2.25V478.36z"/>
		<path class="st1" d="M196.7,484.29c0-0.87,0.16-1.67,0.49-2.42s0.77-1.41,1.34-1.98c0.57-0.57,1.23-1.01,2-1.34
			c0.77-0.32,1.59-0.49,2.47-0.49c0.88,0,1.71,0.16,2.48,0.49c0.77,0.32,1.43,0.77,2,1.34c0.57,0.57,1.01,1.23,1.34,1.98
			s0.49,1.56,0.49,2.42s-0.16,1.68-0.49,2.44c-0.32,0.76-0.77,1.42-1.34,1.97c-0.57,0.56-1.23,1-2,1.32
			c-0.77,0.33-1.59,0.49-2.48,0.49c-0.88,0-1.71-0.16-2.47-0.49c-0.77-0.32-1.43-0.77-2-1.32c-0.57-0.56-1.01-1.22-1.34-1.97
			C196.86,485.97,196.7,485.15,196.7,484.29 M199.1,484.29c0,0.6,0.09,1.15,0.27,1.66c0.18,0.51,0.44,0.94,0.78,1.3
			c0.33,0.36,0.74,0.64,1.22,0.85c0.48,0.21,1.03,0.31,1.63,0.31c0.6,0,1.14-0.1,1.63-0.31c0.48-0.21,0.89-0.49,1.23-0.85
			c0.33-0.36,0.59-0.79,0.77-1.3c0.18-0.51,0.28-1.06,0.28-1.66c0-0.6-0.09-1.15-0.28-1.66c-0.18-0.51-0.44-0.94-0.77-1.3
			c-0.33-0.36-0.74-0.64-1.23-0.85c-0.48-0.21-1.02-0.31-1.63-0.31c-0.6,0-1.14,0.1-1.63,0.31c-0.48,0.21-0.89,0.49-1.22,0.85
			c-0.33,0.36-0.59,0.79-0.78,1.3C199.19,483.13,199.1,483.69,199.1,484.29"/>
		<polygon class="st1" points="210.7,478.36 213.22,478.36 215.89,487.21 215.94,487.21 218.77,478.36 221.18,478.36 224.18,487.21
			224.22,487.21 226.75,478.36 229.15,478.36 225.33,490.21 223.05,490.21 219.91,481.36 219.86,481.36 217,490.21 214.6,490.21
			"/>
		<path class="st1" d="M242.97,490.21h-2.25v-1.7h-0.05c-0.43,0.63-1.03,1.13-1.79,1.48c-0.76,0.35-1.54,0.52-2.34,0.52
			c-0.92,0-1.75-0.16-2.49-0.48c-0.74-0.32-1.38-0.76-1.9-1.32c-0.53-0.57-0.93-1.23-1.21-1.98c-0.28-0.75-0.43-1.57-0.43-2.45
			s0.14-1.7,0.43-2.46c0.28-0.76,0.69-1.42,1.21-1.98c0.52-0.56,1.16-1,1.9-1.31c0.74-0.32,1.57-0.48,2.49-0.48
			c0.85,0,1.65,0.18,2.4,0.54c0.75,0.36,1.32,0.85,1.73,1.46h0.05v-8.75h2.25V490.21z M236.82,488.41c0.6,0,1.14-0.1,1.63-0.31
			c0.48-0.21,0.89-0.49,1.23-0.85c0.33-0.36,0.59-0.79,0.77-1.3c0.18-0.51,0.27-1.06,0.27-1.66c0-0.6-0.09-1.15-0.27-1.66
			c-0.18-0.51-0.44-0.94-0.77-1.3c-0.33-0.36-0.74-0.64-1.23-0.85c-0.48-0.21-1.02-0.31-1.63-0.31c-0.6,0-1.14,0.1-1.63,0.31
			c-0.48,0.21-0.89,0.49-1.23,0.85c-0.33,0.36-0.59,0.79-0.77,1.3c-0.18,0.51-0.27,1.06-0.27,1.66c0,0.6,0.09,1.15,0.27,1.66
			c0.18,0.51,0.44,0.94,0.77,1.3c0.33,0.36,0.74,0.64,1.23,0.85C235.68,488.31,236.22,488.41,236.82,488.41"/>
		<path class="st1" d="M246.5,488.71c0-0.45,0.16-0.84,0.49-1.16c0.33-0.33,0.71-0.49,1.16-0.49c0.45,0,0.84,0.16,1.16,0.49
			c0.32,0.32,0.49,0.71,0.49,1.16s-0.16,0.84-0.49,1.16c-0.33,0.33-0.71,0.49-1.16,0.49c-0.45,0-0.84-0.16-1.16-0.49
			C246.66,489.55,246.5,489.16,246.5,488.71 M249.3,485.11h-2.4v-12.6h2.4V485.11z"/>
		<polygon class="st2" points="173.83,505.68 147.26,505.68 147.26,510.18 147.25,510.52 147.24,510.86 147.22,511.2 147.19,511.54
			147.16,511.88 147.12,512.21 147.06,512.55 147.01,512.88 146.94,513.22 146.87,513.55 146.78,513.88 146.69,514.21 146.6,514.54
			146.49,514.86 146.38,515.19 146.26,515.51 146.13,515.82 146,516.14 145.86,516.45 145.71,516.76 145.55,517.07 145.39,517.38
			145.22,517.68 145.04,517.97 144.85,518.27 144.66,518.56 144.46,518.85 144.26,519.13 144.05,519.41 143.82,519.71 143.6,520.02
			143.38,520.33 143.17,520.64 142.97,520.96 142.78,521.28 142.59,521.61 142.41,521.94 142.24,522.27 142.08,522.6 141.92,522.94
			141.77,523.28 141.63,523.63 141.5,523.97 141.37,524.32 141.25,524.67 141.14,525.03 141.04,525.38 140.95,525.74 140.86,526.1
			140.78,526.46 140.71,526.82 140.65,527.19 140.6,527.55 140.55,527.92 140.52,528.28 140.49,528.65 140.47,529.02 140.46,529.38
			140.45,529.75 140.45,550.73 140.46,550.91 140.47,551.09 140.49,551.27 140.51,551.44 140.55,551.62 140.59,551.79
			140.64,551.97 140.7,552.14 140.77,552.31 140.84,552.47 140.92,552.64 141.01,552.8 141.1,552.96 141.2,553.11 141.31,553.26
			141.43,553.41 141.55,553.55 141.67,553.68 141.81,553.82 141.95,553.94 142.09,554.06 142.24,554.18 142.39,554.29 142.55,554.4
			142.72,554.49 142.88,554.59 143.06,554.67 143.23,554.75 143.41,554.83 143.59,554.89 143.78,554.95 143.96,555.01
			144.15,555.05 144.34,555.09 144.54,555.13 144.73,555.15 144.92,555.17 145.12,555.18 145.32,555.18 145.51,555.18
			145.71,555.17 145.9,555.15 146.1,555.13 146.29,555.09 146.48,555.05 146.67,555.01 146.86,554.95 147.04,554.89 147.22,554.83
			147.4,554.75 147.58,554.67 147.75,554.59 147.92,554.49 148.08,554.4 148.24,554.29 148.39,554.18 148.54,554.06 148.69,553.94
			148.83,553.82 148.96,553.68 149.09,553.55 149.21,553.41 149.32,553.26 149.43,553.11 149.53,552.96 149.63,552.8 149.71,552.64
			149.79,552.47 149.87,552.31 149.93,552.14 149.99,551.97 150.04,551.79 150.08,551.62 150.12,551.44 150.15,551.27
			150.17,551.09 150.18,550.91 150.18,550.73 150.18,554.54 150.19,554.72 150.2,554.9 150.22,555.08 150.25,555.26 150.28,555.43
			150.32,555.61 150.38,555.78 150.43,555.95 150.5,556.12 150.57,556.29 150.65,556.45 150.74,556.62 150.84,556.77 150.94,556.93
			151.05,557.08 151.16,557.22 151.28,557.37 151.41,557.5 151.54,557.64 151.68,557.76 151.83,557.89 151.98,558 152.13,558.11
			152.29,558.22 152.46,558.32 152.63,558.41 152.8,558.5 152.97,558.58 153.15,558.65 153.33,558.72 153.52,558.78 153.71,558.83
			153.9,558.88 154.09,558.92 154.28,558.95 154.48,558.98 154.67,558.99 154.87,559.01 155.07,559.01 155.26,559.01 155.46,558.99
			155.66,558.98 155.85,558.95 156.04,558.92 156.24,558.88 156.43,558.83 156.61,558.78 156.8,558.72 156.98,558.65 157.16,558.58
			157.34,558.5 157.51,558.41 157.68,558.32 157.84,558.22 158,558.11 158.16,558 158.31,557.89 158.45,557.76 158.59,557.64
			158.72,557.5 158.85,557.37 158.97,557.22 159.09,557.08 159.19,556.93 159.3,556.77 159.39,556.62 159.48,556.45 159.56,556.29
			159.63,556.12 159.7,555.95 159.76,555.78 159.81,555.61 159.85,555.43 159.89,555.26 159.91,555.08 159.93,554.9 159.95,554.72
			159.95,554.54 159.95,556.24 159.95,556.42 159.97,556.6 159.99,556.78 160.01,556.96 160.05,557.14 160.09,557.31 160.14,557.49
			160.2,557.66 160.27,557.83 160.34,558 160.42,558.16 160.51,558.32 160.6,558.48 160.71,558.63 160.81,558.78 160.93,558.93
			161.05,559.07 161.18,559.21 161.31,559.34 161.45,559.47 161.6,559.59 161.75,559.71 161.9,559.82 162.06,559.92 162.22,560.02
			162.39,560.12 162.56,560.2 162.74,560.28 162.92,560.36 163.1,560.42 163.29,560.49 163.48,560.54 163.67,560.58 163.86,560.62
			164.05,560.66 164.25,560.68 164.44,560.7 164.64,560.71 164.83,560.71 165.03,560.71 165.23,560.7 165.42,560.68 165.62,560.66
			165.81,560.62 166,560.58 166.19,560.54 166.38,560.49 166.57,560.42 166.75,560.36 166.93,560.28 167.1,560.2 167.28,560.12
			167.44,560.02 167.61,559.92 167.77,559.82 167.92,559.71 168.07,559.59 168.22,559.47 168.36,559.34 168.49,559.21
			168.62,559.07 168.74,558.93 168.85,558.78 168.96,558.63 169.06,558.48 169.16,558.32 169.25,558.16 169.33,558 169.4,557.83
			169.47,557.66 169.52,557.49 169.58,557.31 169.62,557.14 169.65,556.96 169.68,556.78 169.7,556.6 169.71,556.42 169.72,556.24
			169.72,570.1 169.72,570.28 169.73,570.46 169.75,570.64 169.78,570.81 169.82,570.99 169.86,571.16 169.91,571.34 169.97,571.51
			170.03,571.68 170.11,571.84 170.19,572.01 170.28,572.17 170.37,572.33 170.47,572.48 170.58,572.63 170.69,572.78
			170.81,572.92 170.94,573.05 171.07,573.19 171.21,573.31 171.36,573.43 171.51,573.55 171.66,573.66 171.82,573.77
			171.98,573.86 172.15,573.96 172.32,574.04 172.5,574.12 172.68,574.2 172.86,574.26 173.04,574.32 173.23,574.38 173.42,574.42
			173.61,574.46 173.8,574.5 174,574.52 174.19,574.54 174.39,574.55 174.58,574.55 174.78,574.55 174.98,574.54 175.17,574.52
			175.36,574.5 175.56,574.46 175.75,574.42 175.94,574.38 176.13,574.32 176.31,574.26 176.49,574.2 176.67,574.12 176.85,574.04
			177.02,573.96 177.19,573.86 177.35,573.77 177.51,573.66 177.66,573.55 177.81,573.43 177.95,573.31 178.09,573.19
			178.23,573.05 178.35,572.92 178.47,572.78 178.59,572.63 178.7,572.48 178.8,572.33 178.89,572.17 178.98,572.01 179.06,571.84
			179.13,571.68 179.2,571.51 179.26,571.34 179.31,571.16 179.35,570.99 179.39,570.81 179.41,570.64 179.44,570.46 179.45,570.28
			179.45,570.1 179.45,543.53 179.56,543.75 179.69,543.98 179.81,544.2 179.95,544.41 180.09,544.62 180.24,544.83 180.4,545.04
			180.56,545.24 180.73,545.43 180.91,545.63 181.09,545.81 181.28,545.99 181.47,546.17 181.67,546.34 181.88,546.51
			182.08,546.67 182.3,546.82 182.52,546.97 182.74,547.11 182.97,547.24 183.21,547.37 183.44,547.5 183.68,547.61 183.93,547.72
			184.18,547.83 184.43,547.92 184.68,548.01 184.94,548.1 185.2,548.17 185.46,548.24 185.73,548.3 185.99,548.36 186.26,548.4
			186.53,548.44 186.8,548.48 187.07,548.5 187.35,548.52 187.62,548.53 187.89,548.53 188.16,548.53 188.44,548.52 188.71,548.5
			188.98,548.47 189.17,548.44 189.36,548.41 189.56,548.37 189.74,548.33 189.93,548.27 190.11,548.21 190.3,548.15 190.47,548.07
			190.65,547.99 190.82,547.91 190.99,547.81 191.15,547.72 191.31,547.61 191.46,547.5 191.61,547.39 191.76,547.26 191.9,547.14
			192.03,547.01 192.16,546.87 192.28,546.73 192.39,546.59 192.5,546.44 192.6,546.28 192.7,546.13 192.79,545.97 192.87,545.81
			192.94,545.64 193.01,545.47 193.07,545.3 193.12,545.13 193.16,544.96 193.2,544.78 193.23,544.6 193.25,544.42 193.26,544.25
			193.27,544.07 193.27,543.89 193.26,543.71 193.24,543.53 193.21,543.35 193.18,543.18 193.14,543 193.09,542.83 193.03,542.66
			192.97,542.49 192.9,542.32 192.82,542.16 192.73,542 192.64,541.84 192.54,541.69 192.44,541.54 192.32,541.39 192.21,541.25
			192.08,541.11 191.95,540.98 191.81,540.85 191.67,540.73 191.53,540.61 191.37,540.49 191.22,540.39 191.06,540.29
			190.89,540.19 190.72,540.1 190.55,540.02 190.37,539.95 190.19,539.88 190.01,539.81 189.8,539.74 189.6,539.66 189.39,539.58
			189.2,539.49 189,539.39 188.82,539.29 188.63,539.17 188.45,539.06 188.28,538.93 188.11,538.8 187.94,538.67 187.78,538.53
			187.63,538.38 187.48,538.23 187.34,538.08 187.21,537.92 187.08,537.75 186.96,537.58 186.85,537.41 186.74,537.23
			186.64,537.05 186.55,536.87 186.46,536.68 186.39,536.49 186.32,536.3 186.26,536.1 186.2,535.91 186.16,535.71 186.12,535.51
			186.09,535.31 186.07,535.11 186.06,534.91 186.05,534.7 186.05,532.93 186.05,532.54 186.04,532.14 186.02,531.75 185.99,531.35
			185.95,530.96 185.91,530.57 185.86,530.18 185.8,529.78 185.73,529.39 185.65,529.01 185.57,528.62 185.48,528.23 185.38,527.85
			185.27,527.46 185.15,527.08 185.03,526.71 184.9,526.33 184.76,525.95 184.62,525.58 184.46,525.21 184.3,524.85 184.13,524.48
			183.96,524.12 183.77,523.76 183.58,523.41 183.39,523.06 183.18,522.71 182.97,522.37 182.75,522.03 182.52,521.69
			182.29,521.36 182.05,521.03 181.81,520.7 181.55,520.38 181.3,520.07 181.03,519.76 180.76,519.45 180.48,519.15 180.2,518.85
			179.91,518.56 179.61,518.27 179.31,517.99 179,517.71 178.69,517.44 178.37,517.17 178.05,516.91 177.72,516.65 177.38,516.4
			177.04,516.16 176.84,516.01 176.64,515.86 176.45,515.7 176.26,515.53 176.08,515.36 175.9,515.19 175.74,515.01 175.57,514.82
			175.42,514.63 175.27,514.44 175.12,514.24 174.99,514.04 174.86,513.83 174.74,513.62 174.62,513.41 174.51,513.19
			174.41,512.97 174.32,512.75 174.24,512.52 174.16,512.3 174.09,512.07 174.03,511.83 173.98,511.6 173.93,511.37 173.9,511.13
			173.87,510.9 173.85,510.66 173.84,510.42 173.83,510.18 173.83,505.68 		"/>
		<path class="st3" d="M144.07,519.07l-0.23,0.3l-0.22,0.31l-0.21,0.31l-0.21,0.31l-0.2,0.32l-0.19,0.32l-0.19,0.33l-0.18,0.33
			l-0.17,0.33l-0.16,0.33l-0.16,0.34l-0.15,0.34l-0.14,0.34l-0.13,0.35l-0.13,0.35l-0.12,0.35l-0.11,0.35l-0.1,0.35l-0.09,0.36
			l-0.09,0.36l-0.08,0.36l-0.07,0.36l-0.06,0.36l-0.05,0.36l-0.04,0.37l-0.04,0.37l-0.03,0.37l-0.02,0.37l-0.01,0.37l0,0.37
			 M179.47,569.76v-32.02 M169.74,569.76v-27.77 M140.47,550.39v-20.98 M150.2,554.2v-12.21 M159.97,555.91v-13.91 M186.07,532.6
			v1.77 M173.85,509.85v-4.51h-26.57v4.51 M169.74,569.76l0,0.18l0.01,0.18l0.02,0.18l0.03,0.18l0.03,0.18l0.04,0.18l0.05,0.17
			l0.06,0.17l0.07,0.17l0.07,0.17l0.08,0.16l0.09,0.16l0.1,0.16l0.1,0.15l0.11,0.15l0.11,0.15l0.12,0.14l0.13,0.14l0.13,0.13
			l0.14,0.13l0.14,0.12l0.15,0.12l0.15,0.11l0.16,0.1l0.16,0.1l0.17,0.09l0.17,0.08l0.18,0.08l0.18,0.07l0.18,0.07l0.18,0.06
			l0.19,0.05l0.19,0.05l0.19,0.04l0.19,0.03l0.19,0.03l0.2,0.02l0.2,0.01l0.2,0l0.2,0l0.2-0.01l0.19-0.02l0.2-0.03l0.19-0.03
			l0.19-0.04l0.19-0.05l0.19-0.05l0.18-0.06l0.18-0.07l0.18-0.07l0.18-0.08l0.17-0.08l0.17-0.09l0.16-0.1l0.16-0.1l0.15-0.11
			l0.15-0.12l0.14-0.12l0.14-0.13l0.13-0.13l0.13-0.14l0.12-0.14l0.11-0.15l0.11-0.15l0.1-0.15l0.1-0.16l0.09-0.16l0.08-0.16
			l0.07-0.17l0.07-0.17l0.06-0.17l0.05-0.17l0.04-0.18l0.03-0.18l0.03-0.18l0.02-0.18l0.01-0.18l0-0.18 M177.06,515.82l0.34,0.24
			l0.33,0.25l0.33,0.26l0.32,0.26l0.32,0.27l0.31,0.27l0.31,0.28l0.3,0.28l0.3,0.29l0.29,0.29l0.28,0.3l0.28,0.3l0.27,0.31
			l0.26,0.31l0.26,0.32l0.25,0.32l0.25,0.32l0.24,0.33l0.23,0.33l0.23,0.34l0.22,0.34l0.21,0.34l0.2,0.35l0.2,0.35l0.19,0.35
			l0.18,0.36l0.18,0.36l0.17,0.36l0.16,0.37l0.15,0.37l0.14,0.37l0.14,0.37l0.13,0.38l0.12,0.38l0.12,0.38l0.11,0.38l0.1,0.39
			l0.09,0.39l0.08,0.39l0.08,0.39l0.07,0.39l0.06,0.39l0.05,0.39l0.04,0.39l0.04,0.39l0.03,0.39l0.02,0.39l0.01,0.4l0,0.4
			 M189,548.13l0.19-0.03l0.19-0.03l0.19-0.04l0.19-0.05l0.19-0.05l0.18-0.06l0.18-0.07l0.18-0.07l0.18-0.08l0.17-0.09l0.17-0.09
			l0.16-0.1l0.16-0.1l0.15-0.11l0.15-0.11l0.14-0.12l0.14-0.13l0.13-0.13l0.13-0.14l0.12-0.14l0.12-0.15l0.11-0.15l0.1-0.15
			l0.1-0.16l0.09-0.16l0.08-0.16l0.07-0.17l0.07-0.17l0.06-0.17l0.05-0.17l0.04-0.17l0.04-0.18l0.03-0.18l0.02-0.18l0.01-0.18
			l0.01-0.18l0-0.18l-0.01-0.18l-0.02-0.18l-0.03-0.18l-0.03-0.18l-0.04-0.17l-0.05-0.17l-0.05-0.17l-0.06-0.17l-0.07-0.17
			l-0.08-0.16l-0.09-0.16l-0.09-0.16l-0.1-0.15l-0.11-0.15l-0.11-0.15l-0.12-0.14l-0.13-0.14l-0.13-0.13l-0.14-0.13l-0.14-0.12
			l-0.15-0.12l-0.15-0.11l-0.16-0.11l-0.16-0.1l-0.16-0.09l-0.17-0.09l-0.17-0.08l-0.18-0.08l-0.18-0.07l-0.18-0.06 M159.97,555.9
			l0,0.18l0.01,0.18l0.02,0.18l0.03,0.18l0.04,0.18l0.04,0.18l0.05,0.17l0.06,0.17l0.07,0.17l0.07,0.17l0.08,0.16l0.09,0.16
			l0.1,0.16l0.1,0.15l0.11,0.15l0.11,0.15l0.12,0.14l0.13,0.14l0.13,0.13l0.14,0.13l0.14,0.12l0.15,0.12l0.15,0.11l0.16,0.1
			l0.17,0.1l0.17,0.09l0.17,0.09l0.18,0.08l0.18,0.07l0.18,0.07l0.18,0.06l0.19,0.05l0.19,0.05l0.19,0.04l0.19,0.03l0.2,0.03
			l0.2,0.02l0.2,0.01l0.2,0l0.2,0l0.2-0.01l0.2-0.02l0.19-0.03l0.19-0.03l0.19-0.04l0.19-0.05l0.19-0.05l0.18-0.06l0.18-0.07
			l0.18-0.07l0.18-0.08l0.17-0.09l0.17-0.09l0.16-0.1l0.16-0.1l0.15-0.11l0.15-0.12l0.15-0.12l0.14-0.13l0.13-0.13l0.13-0.14
			l0.12-0.14l0.12-0.15l0.11-0.15l0.1-0.15l0.1-0.16l0.09-0.16l0.08-0.16l0.07-0.17l0.07-0.17l0.06-0.17l0.05-0.17l0.04-0.18
			l0.04-0.18l0.03-0.18l0.02-0.18l0.01-0.18l0-0.18 M159.97,554.2l0,0.18l-0.01,0.18l-0.02,0.18l-0.03,0.18l-0.03,0.18l-0.04,0.18
			l-0.05,0.17l-0.06,0.17l-0.07,0.17l-0.07,0.17l-0.08,0.16l-0.09,0.16l-0.09,0.16l-0.1,0.15l-0.11,0.15l-0.12,0.15l-0.12,0.14
			l-0.13,0.14l-0.13,0.13l-0.14,0.13l-0.14,0.12l-0.15,0.12l-0.16,0.11l-0.16,0.1l-0.16,0.1l-0.17,0.09l-0.17,0.09l-0.18,0.08
			l-0.18,0.07l-0.18,0.07l-0.19,0.06l-0.19,0.05l-0.19,0.05l-0.19,0.04l-0.19,0.03l-0.19,0.03l-0.2,0.02l-0.2,0.01l-0.2,0l-0.2,0
			l-0.2-0.01l-0.2-0.02l-0.19-0.03l-0.19-0.03l-0.19-0.04l-0.19-0.05l-0.19-0.05l-0.19-0.06l-0.18-0.07l-0.18-0.07l-0.18-0.08
			l-0.17-0.09l-0.17-0.09l-0.16-0.1l-0.16-0.1l-0.15-0.11l-0.15-0.12l-0.14-0.12l-0.14-0.13l-0.13-0.13l-0.13-0.14l-0.12-0.14
			l-0.12-0.15l-0.11-0.15l-0.1-0.15l-0.09-0.16l-0.09-0.16l-0.08-0.16l-0.07-0.17l-0.07-0.17l-0.06-0.17l-0.05-0.17l-0.04-0.18
			l-0.04-0.18l-0.03-0.18l-0.02-0.18l-0.01-0.18l0-0.18 M186.07,534.36l0,0.2l0.01,0.2l0.02,0.2l0.03,0.2l0.04,0.2l0.04,0.2
			l0.05,0.2l0.06,0.19l0.07,0.19l0.08,0.19l0.08,0.19l0.09,0.18l0.1,0.18l0.11,0.18l0.11,0.17l0.12,0.17l0.13,0.17l0.13,0.16
			l0.14,0.16l0.15,0.15l0.15,0.15l0.16,0.14l0.16,0.14l0.17,0.13l0.18,0.12l0.18,0.12l0.18,0.11l0.19,0.1l0.19,0.1l0.2,0.09
			l0.2,0.08l0.2,0.08l0.21,0.07 M189,548.13l-0.27,0.03l-0.27,0.02l-0.27,0.01l-0.27,0.01l-0.27,0l-0.27-0.01l-0.27-0.02l-0.27-0.03
			l-0.27-0.03l-0.27-0.04l-0.27-0.05l-0.27-0.05l-0.26-0.06l-0.26-0.07l-0.26-0.08l-0.26-0.08l-0.26-0.09l-0.25-0.1l-0.25-0.1
			l-0.24-0.11l-0.24-0.12l-0.24-0.12l-0.23-0.13l-0.23-0.14l-0.23-0.14l-0.22-0.15l-0.21-0.15l-0.21-0.16l-0.2-0.17l-0.2-0.17
			l-0.19-0.18l-0.19-0.18l-0.18-0.19l-0.18-0.19l-0.17-0.2l-0.16-0.2l-0.16-0.21l-0.15-0.21l-0.14-0.21l-0.14-0.22l-0.13-0.22
			l-0.12-0.22l-0.11-0.23 M173.85,509.85l0,0.24l0.01,0.24l0.02,0.24l0.03,0.24l0.04,0.24l0.04,0.23l0.05,0.23l0.06,0.23l0.07,0.23
			l0.08,0.23l0.08,0.23l0.09,0.22l0.1,0.22l0.11,0.22l0.12,0.21l0.12,0.21l0.13,0.21l0.13,0.2l0.14,0.2l0.15,0.19l0.16,0.19
			l0.16,0.18l0.17,0.18l0.18,0.18l0.18,0.17l0.19,0.16l0.19,0.16l0.2,0.15l0.2,0.15 M147.28,509.85l0,0.34l-0.01,0.34l-0.02,0.34
			l-0.03,0.34l-0.04,0.34l-0.04,0.34l-0.05,0.34l-0.06,0.34l-0.07,0.33l-0.07,0.33l-0.08,0.33l-0.09,0.33l-0.1,0.33l-0.1,0.33
			l-0.11,0.32l-0.12,0.32l-0.13,0.32l-0.13,0.32l-0.14,0.31l-0.15,0.31l-0.16,0.31l-0.16,0.3l-0.17,0.3l-0.18,0.3l-0.18,0.29
			l-0.19,0.29l-0.2,0.29l-0.21,0.28l-0.21,0.28 M179.47,537.74l0-0.3l0.01-0.3l0.02-0.3l0.03-0.3l0.04-0.3l0.04-0.3l0.05-0.3
			l0.06-0.3l0.07-0.3l0.07-0.3l0.08-0.29l0.09-0.29l0.1-0.29l0.11-0.29l0.11-0.29l0.12-0.28l0.12-0.29l0.12-0.29l0.11-0.29l0.1-0.29
			l0.09-0.3l0.08-0.3l0.08-0.3l0.07-0.3l0.06-0.3l0.05-0.3l0.05-0.31l0.04-0.31l0.03-0.31 M150.2,550.39l0,0.18l-0.01,0.18
			l-0.02,0.18l-0.03,0.18l-0.04,0.18l-0.04,0.17l-0.05,0.17l-0.06,0.17l-0.07,0.17l-0.07,0.17l-0.08,0.16l-0.09,0.16l-0.09,0.16
			l-0.1,0.15l-0.11,0.15l-0.12,0.15l-0.12,0.14l-0.13,0.14l-0.13,0.13l-0.14,0.13l-0.14,0.12l-0.15,0.12l-0.15,0.11l-0.16,0.11
			l-0.16,0.1l-0.17,0.09l-0.17,0.09l-0.18,0.08l-0.18,0.07l-0.18,0.07l-0.18,0.06l-0.19,0.05l-0.19,0.05l-0.19,0.04l-0.19,0.03
			l-0.19,0.03l-0.19,0.02l-0.2,0.01l-0.2,0l-0.2,0l-0.2-0.01l-0.19-0.02l-0.19-0.03l-0.19-0.03l-0.19-0.04l-0.19-0.05l-0.19-0.05
			l-0.18-0.06l-0.18-0.07l-0.18-0.07l-0.18-0.08l-0.17-0.09l-0.17-0.09l-0.16-0.1l-0.16-0.11l-0.15-0.11l-0.15-0.12l-0.14-0.12
			l-0.14-0.13l-0.13-0.13l-0.13-0.14l-0.12-0.14l-0.11-0.15l-0.11-0.15l-0.1-0.15l-0.09-0.16l-0.09-0.16l-0.08-0.16l-0.07-0.17
			l-0.07-0.17l-0.06-0.17l-0.05-0.17l-0.04-0.17l-0.04-0.18l-0.03-0.18l-0.02-0.18l-0.01-0.18l0-0.18"/>
		<path class="st4" d="M161.59,315.21c-7.31,28.82-26.94,48.7-43.83,44.42c-16.89-4.29-24.65-31.12-17.34-59.94v0
			c7.31-28.82,26.94-48.7,43.83-44.42C161.14,259.55,168.9,286.39,161.59,315.21L161.59,315.21z"/>
		<path class="st5" d="M146.68,256.13l-1.9-0.62c0.64,0.18,1.27,0.4,1.89,0.66L146.68,256.13L146.68,256.13z M144.14,255.31
			l-3.95-1.28c-16.89-4.29-36.51,15.6-43.83,44.42v0c-6.97,27.53-0.2,53.48,15.47,59.29l-0.02,0.06l5.93,1.89
			c-16.89-4.29-24.65-31.12-17.34-59.94c0,0,0,0,0,0C107.71,270.98,127.27,251.11,144.14,255.31z"/>
		<path class="st6" d="M120.89,258.55c-15.66,5.19-25.16,19.44-28.58,39.7c-5.24,21.55-1.07,42.87,10.27,52.49
			c-9-11.11-11.44-31.63-6.22-52.32C100.77,281.03,109.97,266.09,120.89,258.55z"/>
		<path class="st6" d="M151.75,259.16c-16.66-2.99-35.42,16.69-42.53,44.63c-5.98,23.58-1.95,46.57,9.83,56.1
			c1.02,0.18-0.78-0.04,0.27-0.03c-10.42-10.4-13.57-33.03-7.97-55.2c6.63-26.05,24.57-45.62,40.6-45.32
			C151.34,258.72,152.41,259.68,151.75,259.16z"/>
		<path class="st7" d="M119.17,221.11l25.87-65.51l5.22-8.09c7.68-6.5,22.27-5.42,36.32,0.89l33.89,42.19l-25.57,67.55l-27.97,4.98
			l-26.46-7.63c-7.48-4.17-16.47-11.14-23.37-19.35C115.76,230.2,117.56,225.47,119.17,221.11"/>
		<path class="st8" d="M186.81,148.03c-0.16-0.07-0.33-0.13-0.49-0.19c-2.69,0.61-5.78,1.9-8.84,7.06
			c-1.22,2.07-6.96,2.02-6.26-0.67c1.15-4.43,4.16-7.31,7.82-8.84c-0.38-0.1-0.76-0.2-1.14-0.3c-4.02,1.63-7.63,4.17-9.9,8.39
			c-0.81,1.51-4.57,2.05-3.67-0.99c1.36-4.63,3.38-5.75,6.74-8.69c0.04-0.04,0.09-0.07,0.14-0.1c-0.47-0.08-0.96-0.15-1.44-0.22
			c-3.44,1.58-6.81,4.24-7.98,8.24c-0.7,2.39-5.72,3.03-3.67-0.15c1.21-1.87,2.2-4.26,3.51-5.81c1-1.17,2.38-2.09,3.87-2.81
			c-0.49-0.04-0.99-0.07-1.49-0.08c-3.65,1.53-7.37,6.1-9.12,9.21c-1.2,2.13-3.96,2.8-2.36-0.05c1.61-3.98,5.18-6.99,8.73-9.03
			c-1.03,0.11-2.06,0.3-3.09,0.55c-3.01,2.12-5.91,5.16-7.26,8.36c-0.4,0.94-1.97,3.03-2.96,2.62c-0.82-0.33,0.76-2.64,1.03-3.31
			c0.97-2.38,3.21-4.52,5.3-6.36c-4.4,1.94-8.21,5.26-9.98,9.85l-1.79,4.64c2.4,0.21,4.7,0.49,7.03,0.79
			c1.01,1.71-0.4,2.46-1.34,3.4c-2.47,0-4.84-0.12-7.2-0.25l-1.49,3.86c2.57,0.22,5,0.51,7.47,0.83c1.01,1.71-0.4,2.46-1.34,3.4
			c-2.63,0-5.14-0.13-7.65-0.28l-1.51,3.92c2.68,0.22,5.21,0.52,7.77,0.86c1.01,1.71-0.4,2.46-1.34,3.4c-2.73,0-5.35-0.14-7.96-0.3
			l-1.54,3.99c2.55,0.22,4.96,0.51,7.42,0.83c1.01,1.71-0.4,2.46-1.34,3.4c-2.61,0-5.11-0.13-7.6-0.28l-1.57,4.08
			c2.37,0.21,4.63,0.48,6.93,0.78c1.01,1.71-0.4,2.46-1.34,3.4c-2.43,0-4.78-0.11-7.11-0.25l-1.41,3.64
			c2.49,0.21,4.86,0.5,7.26,0.82c1.01,1.71-0.4,2.46-1.34,3.4c-2.55,0-5-0.13-7.44-0.27l-1.57,4.08c2.5,0.21,4.88,0.5,7.29,0.82
			c1.01,1.71-0.4,2.46-1.34,3.4c-2.56,0-5.02-0.13-7.47-0.27l-1.7,4.41c2.38,0.21,4.66,0.48,6.97,0.79c1.01,1.71-0.4,2.46-1.34,3.4
			c-2.45,0-4.81-0.11-7.15-0.25l-0.8,2.06c-2.04,5.29-4.26,12.7-1.75,15.48c0.88,0.97,1.76,1.91,2.64,2.82
			c-1.48-4.32-2.33-9.18-0.07-13.48c0.39-1.25,1.11-1.65,1.6-1.43c0.5,0.22,0.77,1.05,0.28,2.26c-2.34,5.52-0.31,10.99,1.36,15.82
			c1.71,1.64,3.43,3.19,5.16,4.65c-1.59-1.95-3.17-4.09-4.41-6.12c-0.86-1.4-3.03-8.83,0.02-15c0.68-1.35,1.33-1.76,1.8-1.59
			c0.6,0.23,0.88,1.44,0.48,2.94c-2.18,4.76-0.85,11.34,1.32,15.44c1.38,2.94,4.02,6.06,6.42,8.72
			c18.07,13.04,37.1,16.8,55.39,14.42c3.54-0.46,4.57-0.49,8.94-12.11c-4.99-5.13-9.99-8.7-14.88-13.42
			c-0.01-1.32-0.5-2.84,1.42-3.37c4.84,3.56,9.39,7.11,14.96,12.8l1.7-4.55c-4.96-5.06-9.91-8.62-14.77-13.31
			c-0.01-1.32-0.5-2.83,1.42-3.37c4.81,3.54,9.32,7.05,14.84,12.68l1.59-4.26c-4.84-4.87-9.67-8.36-14.41-12.93
			c-0.02-1.32-0.5-2.84,1.42-3.37c4.71,3.46,9.12,6.89,14.48,12.3l1.43-3.82c-4.65-4.58-9.29-7.98-13.84-12.37
			c-0.02-1.32-0.5-2.83,1.42-3.37c4.53,3.34,8.81,6.66,13.91,11.74l1.57-4.19c-4.65-4.59-9.3-7.99-13.86-12.39
			c-0.01-1.32-0.5-2.83,1.42-3.37c4.54,3.34,8.82,6.67,13.93,11.76l1.54-4.13c-4.63-4.55-9.25-7.94-13.78-12.31
			c-0.02-1.32-0.5-2.84,1.43-3.37c4.52,3.33,8.77,6.63,13.85,11.68l1.53-4.11c-4.44-4.27-8.87-7.57-13.22-11.77
			c-0.01-1.32-0.5-2.83,1.42-3.37c4.35,3.2,8.46,6.39,13.29,11.13l1.51-4.04c-4.22-3.97-8.42-7.14-12.55-11.12
			c-0.02-1.32-0.5-2.84,1.43-3.37c4.14,3.05,8.06,6.08,12.6,10.45c3.31-9.85,2.01-20.65-7.76-27.93
			C205.6,159.31,198.06,152.64,186.81,148.03L186.81,148.03z M177.81,164.5c0.44,0.18,0.87,0.36,1.29,0.55
			c7.82,3.49,12.97,6.96,18.37,10.82c0.71,2.44-0.51,2.72-1.35,3.42c-6.16-3.19-11.5-7.27-18.21-10.16
			c-6.49-2.79-14.27-4.42-24.23-5.32l1.48-4.27C162.12,160.38,171.17,161.85,177.81,164.5 M175.13,172.61
			c0.44,0.18,0.87,0.36,1.29,0.55c7.82,3.49,12.97,6.96,18.37,10.82c0.71,2.44-0.51,2.72-1.35,3.42
			c-6.16-3.19-11.5-7.27-18.21-10.15c-6.49-2.79-14.27-4.42-24.22-5.32l1.48-4.27C159.44,168.49,168.49,169.96,175.13,172.61
			 M172.31,180.72c0.44,0.18,0.88,0.36,1.29,0.55c7.82,3.49,12.97,6.96,18.37,10.82c0.71,2.44-0.51,2.72-1.35,3.42
			c-6.15-3.19-11.5-7.27-18.21-10.16c-6.49-2.79-14.27-4.42-24.23-5.32l1.48-4.27C156.62,176.6,165.67,178.07,172.31,180.72
			L172.31,180.72z M168.92,188.57c0.44,0.18,0.87,0.36,1.29,0.55c7.82,3.49,12.97,6.96,18.37,10.82c0.71,2.44-0.51,2.72-1.35,3.42
			c-6.15-3.19-11.5-7.27-18.21-10.15c-6.49-2.79-14.27-4.42-24.23-5.32l1.48-4.27C153.23,184.45,162.28,185.92,168.92,188.57
			 M165.39,196.41c0.44,0.18,0.87,0.36,1.29,0.55c7.82,3.49,12.98,6.96,18.37,10.82c0.71,2.44-0.51,2.72-1.35,3.42
			c-6.15-3.19-11.5-7.27-18.21-10.16c-6.49-2.79-14.27-4.42-24.23-5.32l1.48-4.27C149.7,192.29,158.75,193.76,165.39,196.41
			 M162.7,204.24c0.44,0.18,0.87,0.36,1.29,0.55c7.82,3.49,12.97,6.96,18.37,10.82c0.71,2.44-0.51,2.72-1.35,3.42
			c-6.15-3.19-11.5-7.27-18.21-10.16c-6.49-2.79-14.27-4.42-24.23-5.32l1.48-4.27C147.01,200.12,156.07,201.59,162.7,204.24
			 M159.6,212.36c0.44,0.18,0.87,0.36,1.29,0.55c7.82,3.49,12.97,6.96,18.37,10.82c0.71,2.44-0.51,2.72-1.35,3.42
			c-6.15-3.19-11.5-7.27-18.21-10.16c-6.49-2.79-14.27-4.42-24.22-5.32l1.48-4.27C143.91,208.24,152.96,209.71,159.6,212.36
			 M156.08,220.63c0.44,0.18,0.87,0.36,1.29,0.54c7.82,3.49,12.98,6.96,18.37,10.82c0.71,2.44-0.51,2.72-1.35,3.42
			c-6.16-3.19-11.5-7.27-18.21-10.16c-6.49-2.79-14.27-4.42-24.23-5.32l1.48-4.27C140.39,216.51,149.44,217.98,156.08,220.63
			 M145.25,229.04c1.28,0.61,2.25,1.78,1.86,3c-2.69,10.28,7.23,17.37,13.8,23.58l-4.06,1.47c-8.79-7.55-18.65-14.69-15.88-26.7
			C141.45,228.36,143.61,228.25,145.25,229.04 M136.67,226.5c1,0.32,1.69,1.52,1,3.21c-3.01,10.47,2.42,15.15,8.07,21.56
			c1.55,1.76,5.83,5.12,7.07,5.87c-0.57,0.01-2.23,0.16-3.28,0.18c-1.32-0.72-4.63-3.03-6.34-4.5c-7.97-6.85-11.9-13.91-9.35-24.22
			C134.37,226.75,135.68,226.18,136.67,226.5L136.67,226.5z M130.49,225.67c0.73,0.33,1.14,1.61,0.67,2.75
			c-3.2,7.34-0.09,15.34,6.58,21.1c1.2,1.04,4.46,4.18,5.02,4.73l-2.08,0.6c-1.32-0.78-1.64-1.08-2.43-1.85
			c-4.28-4.2-9.82-9.64-11.33-15.31c-0.87-3.28,0.28-7.05,1.55-10.52C129.16,225.74,129.92,225.41,130.49,225.67"/>
		<path class="st9" d="M169.38,157.75c-0.41-0.18-0.87-0.3-1.38-0.35l-17.49-1.68c-2.61-0.25-5.48,1.41-6.64,3.77
			c1.9,0.19,3.77,0.4,5.64,0.65c1.01,1.71-0.4,2.46-1.34,3.4c-2.02,0-3.97-0.08-5.9-0.19l-1.6,3.91c2.13,0.2,4.19,0.44,6.28,0.71
			c1.01,1.71-0.4,2.46-1.34,3.4c-2.24,0-4.39-0.1-6.53-0.22l-1.62,3.96c2.3,0.21,4.52,0.47,6.76,0.76c1.01,1.71-0.4,2.46-1.34,3.4
			c-2.4,0-4.71-0.12-7.01-0.25l-1.65,4.02c2.24,0.21,4.4,0.46,6.58,0.74c1.01,1.71-0.4,2.46-1.34,3.4c-2.34,0-4.59-0.11-6.84-0.24
			l-1.68,4.11c2.13,0.2,4.19,0.44,6.27,0.71c1.01,1.71-0.4,2.46-1.34,3.4c-2.23,0-4.38-0.1-6.52-0.22l-1.5,3.66
			c2.31,0.21,4.52,0.47,6.76,0.77c1.01,1.71-0.4,2.46-1.34,3.4c-2.41,0-4.72-0.11-7.03-0.25l-1.67,4.09
			c2.38,0.21,4.66,0.48,6.97,0.79c1.01,1.71-0.4,2.46-1.34,3.4c-2.48,0-4.86-0.12-7.24-0.26l-1.81,4.42
			c2.33,0.21,4.57,0.48,6.84,0.77c1.01,1.71-0.4,2.46-1.34,3.4c-2.09,0-4.1-0.09-6.1-0.2c0.44,1.2,1.57,2.06,3.19,2.22l17.49,1.68
			c1.35,0.13,2.77-0.26,4-0.98c-3.97-0.86-8.36-1.48-13.28-1.93l1.48-4.27c4.48,0.54,9.81,1.35,14.82,2.56l1.77-4.33
			c-4.3-1-9.08-1.73-14.54-2.22l1.48-4.27c4.44,0.54,9.72,1.34,14.69,2.53l1.68-4.1c-4.35-1.03-9.2-1.77-14.74-2.27l1.48-4.27
			c4.49,0.55,9.86,1.36,14.88,2.58l1.53-3.75c-4.47-1.09-9.47-1.86-15.21-2.38l1.48-4.27c4.64,0.56,10.19,1.41,15.35,2.69l1.62-3.96
			c-4.39-1.05-9.3-1.81-14.92-2.31l1.48-4.27c4.55,0.55,9.98,1.38,15.06,2.62l1.6-3.92c-4.35-1.03-9.2-1.77-14.75-2.27l1.48-4.27
			c4.5,0.55,9.87,1.36,14.9,2.58l1.65-4.04c-4.46-1.09-9.46-1.86-15.2-2.38l1.48-4.27c4.63,0.56,10.19,1.41,15.35,2.69l1.64-4.01
			c-4.61-1.17-9.8-1.98-15.79-2.52l1.48-4.27c4.81,0.58,10.6,1.48,15.92,2.84C171.87,160.34,171.13,158.51,169.38,157.75
			L169.38,157.75z"/>
		<path class="st4" d="M202.65,274.23c-20.39-8.34-46,7.11-57.2,34.51c0,0,0,0,0,0c-11.21,27.4-3.76,56.37,16.62,64.71c0,0,0,0,0,0
			l12.31,5.03c-20.39-8.34-27.83-37.31-16.63-64.71c0,0,0,0,0,0c11.21-27.4,36.82-42.85,57.2-34.51c0,0,0,0,0,0L202.65,274.23z"/>
		<path class="st6" d="M214.92,279.29c20.39,8.34,27.83,37.31,16.62,64.71c-11.21,27.4-36.82,42.85-57.2,34.51
			c-20.39-8.34-27.83-37.31-16.62-64.71C168.92,286.4,194.53,270.95,214.92,279.29"/>
		<path class="st5" d="M222.27,297.23c13.45,5.5,17.88,25.78,9.89,45.29c-7.98,19.52-25.35,30.88-38.8,25.38
			c-13.45-5.5-17.88-25.78-9.9-45.29C191.46,303.09,208.83,291.73,222.27,297.23"/>
		<path class="st5" d="M214.96,279.27c-20.39-8.34-46,7.11-57.2,34.51c0,0,0,0,0,0c-11.21,27.4-3.76,56.37,16.62,64.71c0,0,0,0,0,0
			c1.03,0.41,2.08,0.76,3.16,1.06c-18.18-9.86-24.05-37.35-13.5-63.2c10.56-25.78,33.94-41.29,53.8-35.67
			C216.9,280.16,215.94,279.68,214.96,279.27z"/>
		<path class="st10" d="M213.94,293.84c-13.45-5.5-30.82,5.86-38.8,25.38c-7.98,19.51-3.55,39.79,9.9,45.29l8.33,3.41
			c-13.45-5.5-17.88-25.78-9.9-45.29v0c7.98-19.52,25.35-30.88,38.8-25.38L213.94,293.84z"/>
		<path class="st11" d="M246.9,279.49c1.39,4.4,3.53,18.73-0.99,25.57c2.1,6.62,0.66,24.19-10.39,30.46
			c1.61-3.94,2.83-13.49,1.51-19.12c0.26-1.78,3.45-5.68,0.14-7.89c-11.95-6.72-47.04,17.26-57.07,30.44
			c-3.69,3.64-18.52-0.83-12.48-9.08c10.39-14.16,31.52-26.57,47.69-33.67c6.1-4.76,1.59-12.74,0.9-14.91
			c-2.26-5.29,2.57-6.57,4.31-6.8L246.9,279.49z"/>
		<path class="st11" d="M120.34,258.41c-6.55,2.75-12.19,6.24-19.11,16.07c-1,2.05-4.24,9.07-5.68,10.92
			c-2.58-6.14-2.14-16.84-0.06-23.4c-10.43,1.79-15.67-12.53-7.21-18.99c-6.07-81.44,30.88-132.08,102.89-115.6
			c68.02,17.16,68.93,93.21,67.76,129.99c3.23,7.19,4.24,13.61-3.72,19.05c-6.1,2.56-19.41,4.27-31.06,1.97
			c-5.83-7.46-7.2-25.48,7.15-24.2c9.78,6.59,2.85-94.5-45.27-105.98c-25.69-6.14-43.81,3.52-57.67,20.72
			c-14.59,18.1-19.11,51.76-15,71.79c7.79-1.85,10.95,13.56,5.49,16.46L120.34,258.41z"/>
		<g class="st12">
			<g>
				<defs>
					<rect id="SVGID_5_" x="92.11" y="126.81" width="144.71" height="109.65"/>
				</defs>
				<clipPath id="SVGID_6_">
					<use xlink:href="#SVGID_5_"  style="overflow:visible;"/>
				</clipPath>
				<path class="st13" d="M186.14,131.19c-28.13-11.13-53.46,0.9-69.84,14.22c-7.78,6.33-16.94,25.07-21.77,34.15
					c-2.31,5.36-0.89,0.84-2.42,7c23.7-27.72,37.75-54.82,73.97-52.27c34.48,2.42,58.06,33.53,64,72.6
					c2.8,10.78,4.34,21.21,4.84,29.56c2.29-4.71,2.12-15.88,1.51-23.89c-2.09-24.52-17.03-63.38-41.48-77.16
					C191.99,133.74,189.05,132.34,186.14,131.19L186.14,131.19z"/>
			</g>
		</g>
		<path class="st14" d="M180.25,266.52c-7.68,0.15-15.43-0.83-23.15-3.19c-2.22,4.71-4.62,10.1-6.89,15.03
			c-3.34,6.79-0.77,13.68,3.87,15.11c5.48-7.39,12.16-13.23,19.4-16.96c1.27-2.06,2.59-4.16,4.15-6.29
			C178.26,269.37,179.48,267.87,180.25,266.52L180.25,266.52z"/>
		<path class="st15" d="M163.69,265.01c-0.4-0.08-0.81-0.17-1.21-0.26C162.89,264.84,163.29,264.92,163.69,265.01 M140.06,255.73
			c-6.96,12.76-15.54,29.48,5.49,35.09c1.75,0.47,4.99,1.83,7.13,2c-3.71-2.27-5.45-8.4-2.47-14.46c2.27-4.93,4.67-10.32,6.89-15.03
			c0.25,0.08,0.5,0.14,0.75,0.21C151.88,261.79,145.93,259.23,140.06,255.73z M160.78,264.34c-0.45-0.11-0.91-0.23-1.36-0.35
			C159.88,264.11,160.33,264.23,160.78,264.34"/>
		<path class="st8" d="M164.1,276.5c-3.09-1.26-6.73,0.48-8.13,3.9c-1.24,3.04-0.3,6.45,2.23,8.03c2.86-3.13,5.95-5.87,9.21-8.18
			C166.89,278.51,165.69,277.15,164.1,276.5z"/>
		<path class="st16" d="M152,292.36c0.02,0.02,0.04,0.03,0.06,0.05C152.05,292.39,152.02,292.38,152,292.36"/>
		<path class="st8" d="M152.61,292.78c-2.14-0.18-5.38-1.53-7.13-2c-3.22-0.86-5.74-1.98-7.69-3.31l0.88,143.73l19.65-0.22
			l-1.17-60.18c-16.84-10.86-21.86-37.35-11.76-62.1c2.26-5.48,5.18-10.64,8.63-15.27C153.52,293.28,153.05,293.05,152.61,292.78
			L152.61,292.78z"/>
		<path class="st17" d="M139.51,288.52l1.86,142.7l3.64-0.04l-0.76-76.21c-5.07-11.79-5.28-26.8-0.57-41.26l-0.32-23.54
			C141.92,289.67,140.64,289.12,139.51,288.52L139.51,288.52z"/>
		<path class="st17" d="M181.73,154.21c-3.25-1.49-6.29,4.3-8.52,7.44c-0.17,0.25-0.4,0.61-0.69,1.09c1.86,0.52,3.65,1.1,5.28,1.75
			c0.44,0.18,0.88,0.36,1.29,0.55c0.47,0.21,0.91,0.42,1.36,0.63c1.92-5.93,3.02-9.96,2.67-10.35
			C182.66,154.79,182.19,154.42,181.73,154.21z M177.91,169.13c-2.32-1-4.81-1.84-7.5-2.56c-0.61,1.15-1.29,2.46-2.02,3.91
			c2.39,0.61,4.69,1.31,6.75,2.13c0.44,0.18,0.87,0.36,1.29,0.55c0.46,0.2,0.87,0.41,1.31,0.61c0.49-1.41,0.96-2.77,1.4-4.07
			C178.72,169.5,178.33,169.31,177.91,169.13 M175.23,177.24c-2.68-1.15-5.6-2.1-8.78-2.88c-0.62,1.27-1.25,2.59-1.91,3.98
			c2.76,0.67,5.41,1.45,7.76,2.39c0.44,0.18,0.87,0.36,1.29,0.55c0.43,0.19,0.83,0.39,1.24,0.58c0.52-1.42,0.99-2.75,1.48-4.11
			C175.95,177.58,175.6,177.4,175.23,177.24L175.23,177.24z M172.41,185.35c-2.93-1.26-6.15-2.27-9.69-3.1
			c-0.58,1.27-1.16,2.55-1.75,3.88c2.82,0.68,5.54,1.48,7.94,2.44c0.44,0.18,0.88,0.36,1.29,0.55c0.57,0.25,1.1,0.51,1.64,0.76
			c0.52-1.38,1.02-2.72,1.52-4.08C173.05,185.65,172.74,185.5,172.41,185.35 M169.02,193.2c-2.95-1.27-6.2-2.29-9.77-3.12
			c-0.56,1.3-1.11,2.62-1.65,3.94c2.76,0.67,5.43,1.45,7.78,2.39c0.44,0.18,0.87,0.36,1.29,0.55c0.72,0.32,1.4,0.64,2.07,0.96
			c0.54-1.38,1.07-2.74,1.59-4.11C169.9,193.61,169.47,193.39,169.02,193.2z M165.49,201.04c-2.87-1.23-6.02-2.23-9.47-3.05
			c-0.49,1.26-0.97,2.51-1.44,3.77c2.89,0.69,5.67,1.5,8.13,2.48c0.44,0.18,0.87,0.36,1.29,0.55c0.59,0.26,1.14,0.53,1.7,0.79
			c0.51-1.24,1-2.49,1.51-3.74C166.63,201.56,166.07,201.29,165.49,201.04L165.49,201.04z M162.8,208.87
			c-2.93-1.26-6.14-2.27-9.68-3.1c-0.49,1.4-0.97,2.8-1.41,4.17c2.8,0.67,5.51,1.47,7.89,2.42c0.44,0.18,0.87,0.36,1.29,0.54
			c0.51,0.23,0.97,0.45,1.46,0.68c0.58-1.36,1.15-2.72,1.74-4.12C163.66,209.27,163.24,209.06,162.8,208.87z M159.7,216.99
			c-2.81-1.21-5.88-2.18-9.24-2.99c-0.44,1.54-0.84,3.03-1.19,4.49c2.41,0.61,4.73,1.32,6.8,2.14c0.44,0.18,0.87,0.36,1.29,0.55
			c0.48,0.21,0.92,0.43,1.38,0.64c0.64-1.39,1.29-2.87,1.95-4.37C160.36,217.3,160.04,217.14,159.7,216.99z M156.18,225.26
			c-2.4-1.03-4.98-1.9-7.78-2.64c-1,5.63-1.95,17.06,0.32,16.11c1.76-0.74,4.74-5.82,8.24-13.11
			C156.7,225.5,156.44,225.37,156.18,225.26"/>
		<line class="st18" x1="69.32" y1="430.32" x2="274.65" y2="430.32"/>
	</g>
</g>
</svg>
