<svg width="16" height="16" viewBox="0 0 16 16" fill="none" xmlns="http://www.w3.org/2000/svg">
<path d="M6.50012 14.881C7.36145 15.7491 8.16126 15.7423 9.02259 14.881L10.0753 13.8351C10.1847 13.7325 10.2804 13.6915 10.424 13.6915H11.9005C13.1241 13.6915 13.6915 13.131 13.6915 11.9005V10.424C13.6915 10.2804 13.7325 10.1847 13.8351 10.0753L14.881 9.02259C15.7491 8.16126 15.7423 7.36145 14.881 6.50012L13.8351 5.44739C13.7325 5.34485 13.6915 5.24231 13.6915 5.10559V3.6222C13.6915 2.4054 13.131 1.83118 11.9005 1.83118H10.424C10.2804 1.83118 10.1847 1.797 10.0753 1.69446L9.02259 0.648562C8.16126 -0.219602 7.36145 -0.212766 6.50012 0.648562L5.44739 1.69446C5.34485 1.797 5.24231 1.83118 5.10559 1.83118H3.6222C2.39856 1.83118 1.83118 2.39173 1.83118 3.6222V5.10559C1.83118 5.24231 1.797 5.34485 1.69446 5.44739L0.648562 6.50012C-0.219602 7.36145 -0.212766 8.16126 0.648562 9.02259L1.69446 10.0753C1.797 10.1847 1.83118 10.2804 1.83118 10.424V11.9005C1.83118 13.1241 2.39856 13.6915 3.6222 13.6915H5.10559C5.24231 13.6915 5.34485 13.7325 5.44739 13.8351L6.50012 14.881ZM6.6095 11.2032C6.39759 11.2032 6.26087 11.1349 6.15833 11.0187L3.87512 8.48255C3.77942 8.37317 3.72473 8.23645 3.72473 8.0929C3.72473 7.77161 3.97083 7.53235 4.31946 7.53235C4.50403 7.53235 4.64075 7.59387 4.7638 7.72376L6.57532 9.72669L10.0958 4.77063C10.2325 4.57239 10.3693 4.49036 10.6085 4.49036C10.9435 4.49036 11.1827 4.73645 11.1827 5.05774C11.1827 5.17395 11.1349 5.31067 11.0597 5.42005L7.07434 10.9913C6.9718 11.1212 6.81458 11.2032 6.6095 11.2032Z" fill="#6536BB"/>
<path d="M6.60938 11.2031C6.39746 11.2031 6.26074 11.1348 6.1582 11.0186L3.875 8.48242C3.7793 8.37305 3.72461 8.23633 3.72461 8.09277C3.72461 7.77148 3.9707 7.53223 4.31934 7.53223C4.50391 7.53223 4.64062 7.59375 4.76367 7.72363L6.5752 9.72656L10.0957 4.77051C10.2324 4.57227 10.3691 4.49023 10.6084 4.49023C10.9434 4.49023 11.1826 4.73633 11.1826 5.05762C11.1826 5.17383 11.1348 5.31055 11.0596 5.41992L7.07422 10.9912C6.97168 11.1211 6.81445 11.2031 6.60938 11.2031Z" fill="white"/>
</svg>
