<svg width="105" height="98" viewBox="0 0 105 98" fill="none" xmlns="http://www.w3.org/2000/svg">
<path d="M94.5428 40.6689C94.0595 29.7207 89.3703 19.3813 81.4522 11.805C73.5341 4.22871 62.9979 0 52.0391 0C41.0802 0 30.544 4.22871 22.6259 11.805C14.7078 19.3813 10.0186 29.7207 9.53532 40.6689C6.10353 42.3129 3.33204 45.074 1.67512 48.4996C0.0182114 51.9252 -0.425824 55.812 0.415797 59.523C1.25742 63.2341 3.33477 66.5491 6.30735 68.9247C9.27992 71.3004 12.9714 72.5957 16.7766 72.5985H18.3534V79.6466C18.3669 84.347 20.2401 88.8511 23.5639 92.1748C26.8876 95.4985 31.3916 97.3717 36.092 97.3853H67.9664C72.6668 97.3717 77.1709 95.4985 80.4946 92.1748C83.8183 88.8511 85.6915 84.347 85.705 79.6466V72.6024H87.2818C91.0867 72.5988 94.7776 71.3028 97.7495 68.9268C100.721 66.5509 102.798 63.2358 103.639 59.5251C104.48 55.8143 104.036 51.9278 102.379 48.5027C100.722 45.0775 97.9507 42.3167 94.5192 40.6729L94.5428 40.6689ZM85.6065 39.0291C85.1084 34.6983 83.0386 30.7008 79.7894 27.7946C76.5402 24.8883 72.3375 23.2753 67.9782 23.2614H36.1117C31.7525 23.2753 27.5498 24.8883 24.3006 27.7946C21.0514 30.7008 18.9816 34.6983 18.4835 39.0291H16.7845C16.5125 39.0291 16.2445 39.0291 15.9961 39.0527C16.8661 30.09 21.0418 21.7722 27.7097 15.7202C34.3776 9.66821 43.0598 6.31555 52.0647 6.31555C61.0695 6.31555 69.7518 9.66821 76.4197 15.7202C83.0876 21.7722 87.2633 30.09 88.1333 39.0527C87.8691 39.0527 87.5972 39.0291 87.3449 39.0291H85.6065Z" fill="#6536BB"/>
<path d="M33.4902 73.678C45.8087 93.8883 59.2113 81.01 53.4285 67.8716C47.3855 83.6393 33.4902 73.678 33.4902 73.678Z" fill="white"/>
<path d="M18.732 46.6724C19.0324 46.6703 19.3294 46.7345 19.602 46.8606C19.8746 46.9867 20.1159 47.1714 20.3088 47.4017C20.7062 47.8179 20.934 48.3676 20.9474 48.943C20.9484 49.2455 20.8874 49.545 20.7681 49.823C20.6488 50.101 20.4737 50.3515 20.2536 50.5591C20.0573 50.7732 19.8194 50.9448 19.5543 51.0634C19.2892 51.1821 19.0027 51.2452 18.7123 51.249H12.6299C12.3653 51.2442 12.1074 51.3321 11.9007 51.4973C11.7999 51.5849 11.7206 51.6944 11.6686 51.8174C11.6167 51.9403 11.5936 52.0736 11.6011 52.2069C11.5915 52.3485 11.6134 52.4906 11.6652 52.6228C11.717 52.755 11.7974 52.8742 11.9007 52.9716C12.1019 53.1482 12.3623 53.2425 12.6299 53.2357H16.6389C17.3445 53.2321 18.0416 53.3898 18.6768 53.6969C19.2932 53.9992 19.8468 54.4151 20.3088 54.9228C20.7506 55.403 21.1162 55.9481 21.3928 56.539C21.6621 57.1399 21.7967 57.7925 21.787 58.4509C21.8117 59.1813 21.6842 59.9089 21.4128 60.5875C21.1413 61.2661 20.7318 61.8808 20.2103 62.3928C19.7038 62.8716 19.1113 63.2501 18.464 63.5084C17.7518 63.7844 16.9925 63.9183 16.2289 63.9025H9.68533C9.09603 63.9063 8.52919 63.6767 8.10856 63.264C7.88881 63.0634 7.71433 62.8184 7.59674 62.5452C7.47914 62.2719 7.42115 61.9767 7.42661 61.6793C7.43039 61.0809 7.65823 60.5057 8.0652 60.0671C8.25852 59.8348 8.49916 59.6464 8.77107 59.5146C9.04297 59.3827 9.33988 59.3103 9.64197 59.3023H16.1422C16.7808 59.3023 17.1001 59.0185 17.1001 58.4509C17.1185 58.3208 17.1064 58.1882 17.0648 58.0636C17.0231 57.939 16.9531 57.8258 16.8602 57.7329C16.7673 57.64 16.6541 57.5699 16.5295 57.5283C16.4049 57.4867 16.2723 57.4746 16.1422 57.493H12.2397C11.5463 57.4973 10.8608 57.3465 10.2333 57.0515C9.61492 56.7615 9.06228 56.3484 8.60918 55.8374C8.15754 55.3318 7.79259 54.7551 7.5291 54.1305C7.26464 53.5073 7.13049 52.8366 7.13491 52.1596C7.1298 51.4557 7.26376 50.7578 7.5291 50.1058C8.0491 48.8035 9.04966 47.7507 10.3239 47.1652C10.9822 46.8658 11.6941 46.7023 12.4171 46.6842L18.732 46.6724Z" fill="#FFCA05"/>
<path d="M33.5566 46.7474C34.6782 46.7274 35.792 46.9374 36.8293 47.3646C37.8666 47.7917 38.8054 48.4268 39.5877 49.2308C39.7819 49.4424 39.9309 49.6914 40.0258 49.9624C40.1206 50.2335 40.1594 50.5211 40.1396 50.8076C40.1303 51.0951 40.0642 51.3778 39.9452 51.6397C39.8261 51.9015 39.6564 52.1372 39.4458 52.3331C39.0025 52.7458 38.4195 52.9753 37.8138 52.9756C37.5111 52.9973 37.2073 52.9509 36.9249 52.8397C36.6425 52.7285 36.3886 52.5554 36.1819 52.3331C35.4656 51.6791 34.5264 51.3237 33.5566 51.3397C33.0241 51.338 32.4979 51.4537 32.0153 51.6787C31.5404 51.8965 31.108 52.1968 30.7381 52.5657C30.3732 52.9295 30.078 53.357 29.8669 53.8271C29.6556 54.294 29.5467 54.8007 29.5476 55.3132C29.5446 55.845 29.6533 56.3714 29.8669 56.8584C30.0762 57.3381 30.3776 57.772 30.7539 58.1356C31.1257 58.4971 31.5579 58.7906 32.0311 59.0028C32.5094 59.2187 33.0326 59.316 33.5566 59.2866C34.5222 59.316 35.4621 58.9731 36.1819 58.3288C36.3913 58.1059 36.6441 57.9282 36.9248 57.8068C37.2055 57.6853 37.508 57.6227 37.8138 57.6227C38.1197 57.6227 38.4223 57.6853 38.7029 57.8068C38.9836 57.9282 39.2364 58.1059 39.4458 58.3288C39.6554 58.5174 39.8244 58.7468 39.9425 59.0028C40.0605 59.2608 40.1275 59.5393 40.1396 59.8227C40.1506 60.1055 40.1078 60.3877 40.0134 60.6545C39.9211 60.9233 39.7764 61.1712 39.5877 61.3837C38.8062 62.179 37.8787 62.8161 36.856 63.2601C35.8114 63.6963 34.6885 63.9137 33.5566 63.8987C32.4087 63.9066 31.2722 63.6715 30.2217 63.2089C28.166 62.3108 26.5256 60.669 25.6294 58.6126C25.1679 57.574 24.9315 56.4496 24.9356 55.3132C24.9341 54.1897 25.1705 53.0787 25.6294 52.0532C26.0859 51.0351 26.7305 50.1123 27.5294 49.3333C28.3315 48.5502 29.2656 47.915 30.2887 47.4569C31.3141 46.9876 32.4289 46.7455 33.5566 46.7474Z" fill="white"/>
<path d="M51.8639 46.708C52.9982 46.705 54.1211 46.9344 55.1633 47.3821C56.1841 47.8174 57.1115 48.4451 57.8951 49.2309C58.6806 50.0165 59.3129 50.9415 59.7596 51.9587C60.2113 53.018 60.4442 54.1577 60.4442 55.3093C60.4442 56.4609 60.2113 57.6006 59.7596 58.6599C59.3239 59.6689 58.7051 60.5884 57.9345 61.372C57.1587 62.1589 56.2359 62.7857 55.2185 63.2168C54.154 63.673 53.0062 63.9026 51.8482 63.8909C50.7054 63.8986 49.5723 63.6816 48.5133 63.2523C47.4939 62.8412 46.5656 62.233 45.7816 61.4626C44.9765 60.6598 44.3416 59.7028 43.9149 58.6489C43.4882 57.595 43.2784 56.4658 43.2981 55.329C43.292 54.2137 43.507 53.1082 43.9305 52.0764C44.3541 51.0446 44.9778 50.107 45.7658 49.3176C46.5525 48.5366 47.4792 47.9108 48.4975 47.4728C49.5624 47.0109 50.704 46.7516 51.8639 46.708ZM51.8639 51.3556C51.3401 51.3522 50.8211 51.4554 50.3384 51.6591C49.8713 51.856 49.4449 52.138 49.0809 52.4908C48.7108 52.8502 48.4148 53.2788 48.2098 53.7523C47.9945 54.2498 47.8858 54.7869 47.8905 55.329C47.8874 55.8608 47.9962 56.3873 48.2098 56.8743C48.4176 57.3508 48.7131 57.784 49.0809 58.1514C49.4435 58.515 49.8697 58.809 50.3384 59.0187C50.8182 59.233 51.3384 59.3418 51.8639 59.338C52.3957 59.3406 52.922 59.2318 53.4092 59.0187C53.8812 58.8149 54.3084 58.5202 54.6666 58.1514C55.0246 57.7801 55.313 57.3475 55.5181 56.8743C55.7317 56.3873 55.8405 55.8608 55.8374 55.329C55.8047 54.2931 55.3824 53.3077 54.6548 52.5697C53.92 51.8142 52.9176 51.3781 51.8639 51.3556Z" fill="white"/>
<path d="M66.0542 41.2804C66.3588 41.2589 66.6638 41.3145 66.9412 41.442C67.2226 41.5695 67.481 41.7426 67.7059 41.9545C67.9305 42.1689 68.1055 42.4299 68.2183 42.7192C68.3346 43.006 68.3949 43.3124 68.3957 43.6219V47.7018C69.2018 47.284 70.0717 47.0029 70.9698 46.8701C71.8454 46.74 72.7353 46.74 73.6109 46.8701C74.4965 47.0057 75.3572 47.2714 76.1653 47.6584C78.0526 48.5261 79.5423 50.0749 80.3358 51.9946C80.7648 53.0586 80.9753 54.1981 80.9547 55.3452C80.9629 56.4931 80.7278 57.6297 80.2649 58.6801C79.8183 59.6996 79.186 60.6273 78.4003 61.4157C77.6157 62.1983 76.6884 62.8232 75.6686 63.2566C74.6275 63.7081 73.5039 63.9376 72.3692 63.9307C71.2447 63.9337 70.1324 63.6986 69.1053 63.2409C68.0795 62.7928 67.1444 62.1609 66.3459 61.3763C65.5486 60.5915 64.9043 59.6652 64.4459 58.6446C63.974 57.6089 63.732 56.4833 63.7364 55.3452V43.4485C63.7377 43.1567 63.8108 42.8697 63.9492 42.6128C64.0856 42.3481 64.2655 42.1083 64.4814 41.9032C64.6948 41.703 64.9416 41.5415 65.2107 41.4263C65.4754 41.3086 65.7653 41.2585 66.0542 41.2804ZM68.3957 55.3294C68.3926 55.8612 68.5014 56.3877 68.715 56.8747C68.9205 57.3467 69.2165 57.7739 69.5862 58.1321C69.9523 58.4884 70.3779 58.7778 70.8437 58.9875C71.3238 59.2006 71.844 59.3081 72.3692 59.3029C72.889 59.3045 73.4033 59.197 73.8789 58.9875C74.3522 58.7807 74.7847 58.491 75.1561 58.1321C75.5249 57.7739 75.8196 57.3466 76.0234 56.8747C76.2339 56.3874 76.3425 55.8622 76.3425 55.3314C76.3425 54.8006 76.2339 54.2754 76.0234 53.7881C75.8206 53.3156 75.5258 52.8881 75.1561 52.5307C74.7847 52.1717 74.3522 51.8821 73.8789 51.6753C73.4035 51.4645 72.8892 51.3557 72.3692 51.356C71.8417 51.353 71.3203 51.4688 70.8437 51.695C70.3766 51.916 69.9511 52.216 69.5862 52.5819C69.2184 52.9493 68.9229 53.3826 68.715 53.8591C68.5069 54.3215 68.3981 54.8224 68.3957 55.3294Z" fill="#FFCA05"/>
<path d="M83.3675 52.2427V49.0892C83.3624 48.7761 83.4213 48.4654 83.5406 48.1759C83.6599 47.8865 83.8371 47.6245 84.0613 47.406C84.274 47.1839 84.5299 47.0078 84.8133 46.8885C85.0967 46.7691 85.4015 46.7092 85.709 46.7122C86.0306 46.7016 86.351 46.7573 86.65 46.876C86.9491 46.9947 87.2206 47.1738 87.4474 47.402C87.671 47.6207 87.8476 47.8829 87.9663 48.1723C88.0849 48.4618 88.1431 48.7725 88.1372 49.0852V52.2388C88.1276 52.6888 88.209 53.1362 88.3767 53.554C88.5444 53.9718 88.7949 54.3514 89.113 54.6699C89.4312 54.9884 89.8104 55.2393 90.228 55.4075C90.6456 55.5757 91.0929 55.6577 91.543 55.6485C91.9959 55.6591 92.4462 55.5779 92.8669 55.4099C93.2876 55.2419 93.67 54.9905 93.991 54.6709C94.3158 54.3563 94.5718 53.9777 94.7428 53.5591C94.9138 53.1404 94.9961 52.6908 94.9843 52.2388V49.0852C94.9792 48.7722 95.0381 48.4614 95.1574 48.172C95.2767 47.8826 95.4539 47.6205 95.6781 47.402C95.8908 47.18 96.1467 47.0038 96.4301 46.8845C96.7135 46.7652 97.0184 46.7052 97.3258 46.7082C97.6451 46.7003 97.9626 46.7577 98.2589 46.8771C98.5551 46.9964 98.8238 47.175 99.0484 47.402C99.2721 47.6207 99.4487 47.8829 99.5673 48.1723C99.686 48.4618 99.7441 48.7725 99.7383 49.0852V52.29C99.7428 53.1891 99.5935 54.0823 99.2968 54.9311C99.0091 55.7533 98.5955 56.5259 98.0709 57.2213C97.5498 57.9086 96.9216 58.5075 96.2103 58.9952C95.488 59.4899 94.6888 59.8615 93.8451 60.095V67.0091C93.8515 67.3226 93.7936 67.634 93.6749 67.9242C93.5563 68.2143 93.3794 68.4771 93.1553 68.6963C92.9418 68.9184 92.6852 69.0946 92.4012 69.2139C92.1171 69.3332 91.8117 69.3932 91.5036 69.3901C91.1849 69.3979 90.868 69.3404 90.5724 69.2211C90.2768 69.1018 90.0088 68.9232 89.7849 68.6963C89.5603 68.4773 89.3828 68.2146 89.2635 67.9245C89.1442 67.6343 89.0855 67.3228 89.0912 67.0091V60.0516C87.4533 59.536 86.02 58.5165 84.9955 57.1386C84.485 56.4482 84.0859 55.6821 83.8129 54.868C83.5192 54.0238 83.3687 53.1365 83.3675 52.2427Z" fill="#FFCA05"/>
</svg>
