<svg id="Layer_1" data-name="Layer 1" xmlns="http://www.w3.org/2000/svg" viewBox="0 0 287.58 95.65"><defs><style>.cls-1{fill:#6536bb;}.cls-2{fill:#ffca05;}.cls-3{fill:#fff;}</style></defs><path class="cls-1" d="M276.21,34.72H84.28a47.83,47.83,0,1,0,0,95.65h52.28a94.49,94.49,0,0,1-7.9-11.18s35.25,25.27,50.58-14.73c4.09,9.29,4.39,18.52,2,25.91h94.94a47.83,47.83,0,0,0,0-95.65Z" transform="translate(-36.45 -34.72)"/><path class="cls-2" d="M91.22,54.68a5.17,5.17,0,0,1,4,1.85,5.86,5.86,0,0,1,1.62,3.91,5.61,5.61,0,0,1-1.76,4.1,5.42,5.42,0,0,1-3.91,1.76H75.74a2.82,2.82,0,0,0-1.85.63,2.19,2.19,0,0,0-.76,1.79,2.44,2.44,0,0,0,.76,1.94,2.71,2.71,0,0,0,1.85.68H85.91a11.57,11.57,0,0,1,5.17,1.17,13.63,13.63,0,0,1,4.14,3.1A15.93,15.93,0,0,1,98,79.71a11.45,11.45,0,0,1,1,4.85,12.88,12.88,0,0,1-1,5.58,13,13,0,0,1-3,4.41,13.92,13.92,0,0,1-4.41,2.84,14.8,14.8,0,0,1-5.67,1H68.27a5.66,5.66,0,0,1-4-1.63,5.33,5.33,0,0,1-1.71-4,6.07,6.07,0,0,1,1.62-4.1,5.41,5.41,0,0,1,4-1.94H84.65c1.62,0,2.43-.71,2.43-2.16a2.14,2.14,0,0,0-2.43-2.42h-9.9A11.8,11.8,0,0,1,69.66,81a12.73,12.73,0,0,1-4.14-3.1,15.7,15.7,0,0,1-2.74-4.32,12.84,12.84,0,0,1-1-5,13.61,13.61,0,0,1,1-5.22,14.1,14.1,0,0,1,2.84-4.41,13.59,13.59,0,0,1,9.54-4.24Z" transform="translate(-36.45 -34.72)"/><path class="cls-3" d="M128.84,54.87a20.83,20.83,0,0,1,15.3,6.3,5.37,5.37,0,0,1,1.39,4,5.56,5.56,0,0,1-1.75,3.87,6.12,6.12,0,0,1-4.14,1.62,5.18,5.18,0,0,1-4.14-1.62,9.61,9.61,0,0,0-6.66-2.53,9.23,9.23,0,0,0-3.92.86,11.2,11.2,0,0,0-3.24,2.25,10.69,10.69,0,0,0-2.2,3.2,9.1,9.1,0,0,0-.81,3.77,9.62,9.62,0,0,0,.81,3.92,10.15,10.15,0,0,0,2.25,3.24A11.29,11.29,0,0,0,125,86a8.28,8.28,0,0,0,3.87.71,9.58,9.58,0,0,0,6.66-2.42,5.66,5.66,0,0,1,8.28,0A5.07,5.07,0,0,1,145,86a5.46,5.46,0,0,1,.49,2.07,5.64,5.64,0,0,1-.31,2.11A5.46,5.46,0,0,1,144.14,92a22,22,0,0,1-6.93,4.76,20.86,20.86,0,0,1-8.37,1.63,20.65,20.65,0,0,1-8.46-1.76A22.63,22.63,0,0,1,108.72,85a20.65,20.65,0,0,1,0-16.64,22.49,22.49,0,0,1,4.77-6.94,24.19,24.19,0,0,1,7-4.76A20,20,0,0,1,128.84,54.87Z" transform="translate(-36.45 -34.72)"/><path class="cls-3" d="M175.28,54.77a21.06,21.06,0,0,1,8.37,1.71,22.1,22.1,0,0,1,6.93,4.69,22.66,22.66,0,0,1,4.72,6.92,21.62,21.62,0,0,1,0,17,22.49,22.49,0,0,1-4.64,6.88,21.4,21.4,0,0,1-15.43,6.4,22.12,22.12,0,0,1-8.46-1.62,21.23,21.23,0,0,1-6.93-4.55,21.45,21.45,0,0,1-6.39-15.53,21.36,21.36,0,0,1,6.25-15.25,22.4,22.4,0,0,1,6.93-4.68A23.75,23.75,0,0,1,175.28,54.77Zm0,11.79a9.79,9.79,0,0,0-3.87.77,10.6,10.6,0,0,0-3.2,2.11,10,10,0,0,0-2.2,3.2,9.86,9.86,0,0,0-.81,4,9.62,9.62,0,0,0,.81,3.92,10.5,10.5,0,0,0,2.2,3.24,10.72,10.72,0,0,0,3.2,2.21,9.31,9.31,0,0,0,3.87.8,9.6,9.6,0,0,0,3.91-.8,10,10,0,0,0,3.2-2.21,10.93,10.93,0,0,0,2.16-3.24,9.62,9.62,0,0,0,.81-3.92,10.39,10.39,0,0,0-3-7A10.14,10.14,0,0,0,175.28,66.56Z" transform="translate(-36.45 -34.72)"/><path class="cls-2" d="M211.28,41a4.51,4.51,0,0,1,2.25.4,7.08,7.08,0,0,1,1.93,1.31,5.38,5.38,0,0,1,1.31,1.93,6.14,6.14,0,0,1,.45,2.29V57.3a20.77,20.77,0,0,1,6.52-2.12,22.86,22.86,0,0,1,6.71,0,23.19,23.19,0,0,1,6.48,2,22.83,22.83,0,0,1,5.85,4,22.58,22.58,0,0,1,4.72,7,21.72,21.72,0,0,1,1.58,8.5,20.58,20.58,0,0,1-1.76,8.46A22.75,22.75,0,0,1,242.6,92a22.24,22.24,0,0,1-6.93,4.68,20.89,20.89,0,0,1-8.37,1.71A20.22,20.22,0,0,1,219,96.67a23.15,23.15,0,0,1-7-4.73A22.72,22.72,0,0,1,207.23,85a19.93,19.93,0,0,1-1.8-8.37V46.5a4.51,4.51,0,0,1,.54-2.12,6.74,6.74,0,0,1,1.35-1.8,6.32,6.32,0,0,1,1.84-1.21A4.35,4.35,0,0,1,211.28,41Zm5.94,35.63a9.62,9.62,0,0,0,.81,3.92,10.09,10.09,0,0,0,2.2,3.2,11,11,0,0,0,3.2,2.16,9.31,9.31,0,0,0,3.87.8,9.42,9.42,0,0,0,3.82-.8,10.93,10.93,0,0,0,3.24-2.16,10.12,10.12,0,0,0,2.21-3.2,9.87,9.87,0,0,0,0-7.83,9.86,9.86,0,0,0-2.21-3.19,10.93,10.93,0,0,0-3.24-2.16,9.44,9.44,0,0,0-3.82-.82,8.91,8.91,0,0,0-3.87.86,11.28,11.28,0,0,0-3.2,2.25,10.5,10.5,0,0,0-2.2,3.24A9.23,9.23,0,0,0,217.22,76.64Z" transform="translate(-36.45 -34.72)"/><path class="cls-2" d="M255.2,68.81v-8A5.82,5.82,0,0,1,257,56.53a5.73,5.73,0,0,1,4.19-1.76,5.92,5.92,0,0,1,4.36,1.76,5.83,5.83,0,0,1,1.76,4.27v8a8.46,8.46,0,0,0,8.64,8.65A8.52,8.52,0,0,0,282.11,75a8.32,8.32,0,0,0,2.52-6.17v-8a5.82,5.82,0,0,1,1.75-4.27,5.73,5.73,0,0,1,4.19-1.76,5.93,5.93,0,0,1,4.36,1.76,5.83,5.83,0,0,1,1.76,4.27v8.11a20,20,0,0,1-1.13,6.7,21.46,21.46,0,0,1-3.1,5.81,20.65,20.65,0,0,1-4.73,4.5,19.82,19.82,0,0,1-6,2.79v17.55a5.83,5.83,0,0,1-1.76,4.27,5.71,5.71,0,0,1-4.18,1.76,5.93,5.93,0,0,1-4.37-1.76,5.82,5.82,0,0,1-1.75-4.27V88.62a20.66,20.66,0,0,1-10.4-7.39,20.8,20.8,0,0,1-3-5.76A20.31,20.31,0,0,1,255.2,68.81Z" transform="translate(-36.45 -34.72)"/></svg>