<svg width="24" height="24" viewBox="0 0 24 24" fill="none" xmlns="http://www.w3.org/2000/svg">
<path d="M12 19.0703C18.3438 19.0703 22.625 13.9531 22.625 12.3672C22.625 10.7891 18.3359 5.67188 12 5.67188C5.75 5.67188 1.375 10.7891 1.375 12.3672C1.375 13.9531 5.74219 19.0703 12 19.0703ZM12.0078 16.6328C9.625 16.6328 7.72656 14.6875 7.71875 12.375C7.71094 9.98438 9.625 8.10938 12.0078 8.10938C14.375 8.10938 16.2891 9.99219 16.2891 12.375C16.2891 14.6875 14.375 16.6328 12.0078 16.6328ZM12.0078 13.9609C12.8828 13.9609 13.6094 13.2422 13.6094 12.375C13.6094 11.5 12.8828 10.7734 12.0078 10.7734C11.1172 10.7734 10.3984 11.5 10.3984 12.375C10.3984 13.2422 11.1172 13.9609 12.0078 13.9609Z" fill="#9094A2"/>
</svg>
