<svg width="24" height="24" viewBox="0 0 24 24" fill="none" xmlns="http://www.w3.org/2000/svg">
<path d="M18.1641 19.2812C18.4062 19.5234 18.7969 19.5391 19.0469 19.2812C19.3047 19.0156 19.2891 18.6406 19.0469 18.3984L5.78906 5.15625C5.54688 4.91406 5.14844 4.90625 4.90625 5.15625C4.67188 5.39062 4.67188 5.79688 4.90625 6.03125L18.1641 19.2812ZM18.8984 16.8906C21.1797 15.3594 22.625 13.2891 22.625 12.3672C22.625 10.7891 18.3359 5.67188 12 5.67188C10.6719 5.67188 9.42969 5.89844 8.30469 6.27344L10.4453 8.41406C10.9297 8.21875 11.4531 8.10938 12.0078 8.10938C14.375 8.10938 16.2891 9.99219 16.2891 12.375C16.2891 12.9219 16.1719 13.4531 15.9609 13.9297L18.8984 16.8906ZM12 19.0703C13.4297 19.0703 14.7578 18.8125 15.9297 18.3828L13.7734 16.2266C13.2422 16.4922 12.6406 16.6328 12.0078 16.6328C9.625 16.6328 7.72656 14.6875 7.71875 12.375C7.71875 11.7266 7.85938 11.1172 8.11719 10.5781L5.29688 7.74219C2.86719 9.30469 1.375 11.4453 1.375 12.3672C1.375 13.9531 5.74219 19.0703 12 19.0703ZM14.5 12.2109C14.5 10.8438 13.4062 9.74219 12.0312 9.74219C11.9453 9.74219 11.8594 9.75 11.7812 9.75781L14.4844 12.4531C14.4922 12.3828 14.5 12.2969 14.5 12.2109ZM9.49219 12.2422C9.49219 13.6094 10.6172 14.7109 11.9766 14.7109C12.0703 14.7109 12.1562 14.7031 12.2422 14.6953L9.50781 11.9609C9.5 12.0547 9.49219 12.1484 9.49219 12.2422Z" fill="#9094A2"/>
</svg>
