<?xml version="1.0" standalone="no"?>
<!DOCTYPE svg PUBLIC "-//W3C//DTD SVG 20010904//EN"
 "http://www.w3.org/TR/2001/REC-SVG-20010904/DTD/svg10.dtd">
<svg version="1.0" xmlns="http://www.w3.org/2000/svg"
 width="700.000000pt" height="700.000000pt" viewBox="0 0 700.000000 700.000000"
 preserveAspectRatio="xMidYMid meet">
<metadata>
Created by potrace 1.11, written by Peter Selinger 2001-2013
</metadata>
<g transform="translate(0.000000,700.000000) scale(0.100000,-0.100000)"
fill="#000000" stroke="none">
<path d="M3255 6994 c-1186 -98 -2192 -728 -2790 -1747 -402 -687 -552 -1537
-414 -2347 96 -565 352 -1134 713 -1582 675 -839 1670 -1318 2736 -1318 886 0
1733 333 2381 936 543 506 911 1164 1053 1884 77 391 86 816 26 1211 -160
1048 -791 1970 -1714 2503 -395 228 -828 375 -1286 436 -150 20 -574 34 -705
24z m1595 -1028 c101 -33 173 -78 250 -157 221 -223 267 -507 125 -764 -69
-124 -215 -251 -352 -307 l-58 -23 -965 -5 -965 -5 -55 -26 c-109 -51 -151
-115 -158 -237 -4 -77 -2 -87 27 -146 32 -66 71 -104 139 -134 33 -15 107 -18
732 -23 667 -5 699 -7 792 -28 228 -51 453 -165 633 -320 174 -151 360 -405
442 -607 154 -379 130 -847 -63 -1224 -95 -186 -203 -325 -349 -448 -207 -175
-432 -283 -711 -344 -98 -22 -114 -22 -1181 -25 -1204 -4 -1145 -7 -1293 64
-106 51 -233 178 -283 283 -49 105 -61 166 -55 301 6 132 27 206 90 313 57 97
175 213 264 259 134 69 92 67 1166 67 644 0 984 4 1017 11 68 14 133 58 157
105 15 31 19 60 19 139 0 114 -19 164 -77 209 -69 52 -47 50 -788 57 -753 6
-730 4 -915 65 -104 34 -255 109 -353 175 -189 129 -410 395 -521 629 -108
228 -136 357 -136 630 0 224 9 289 67 470 183 574 687 993 1273 1059 44 5 519
8 1055 7 916 -1 978 -2 1030 -20z"/>
</g>
</svg>
