<?xml version="1.0" encoding="UTF-8" standalone="no"?>
<svg
   xmlns:dc="http://purl.org/dc/elements/1.1/"
   xmlns:cc="http://creativecommons.org/ns#"
   xmlns:rdf="http://www.w3.org/1999/02/22-rdf-syntax-ns#"
   xmlns:svg="http://www.w3.org/2000/svg"
   xmlns="http://www.w3.org/2000/svg"
   xmlns:sodipodi="http://sodipodi.sourceforge.net/DTD/sodipodi-0.dtd"
   xmlns:inkscape="http://www.inkscape.org/namespaces/inkscape"
   id="Capa_1"
   data-name="Capa 1"
   viewBox="0 0 43.05 43.05"
   version="1.1"
   sodipodi:docname="bellActive.svg"
   inkscape:version="0.92.5 (2060ec1f9f, 2020-04-08)">
  <metadata
     id="metadata15">
    <rdf:RDF>
      <cc:Work
         rdf:about="">
        <dc:format>image/svg+xml</dc:format>
        <dc:type
           rdf:resource="http://purl.org/dc/dcmitype/StillImage" />
        <dc:title></dc:title>
      </cc:Work>
    </rdf:RDF>
  </metadata>
  <sodipodi:namedview
     pagecolor="#ffffff"
     bordercolor="#666666"
     borderopacity="1"
     objecttolerance="10"
     gridtolerance="10"
     guidetolerance="10"
     inkscape:pageopacity="0"
     inkscape:pageshadow="2"
     inkscape:window-width="1920"
     inkscape:window-height="1015"
     id="namedview13"
     showgrid="false"
     inkscape:zoom="10.963996"
     inkscape:cx="7.6750102"
     inkscape:cy="20.186834"
     inkscape:window-x="0"
     inkscape:window-y="0"
     inkscape:window-maximized="1"
     inkscape:current-layer="Capa_1" />
  <defs
     id="defs4">
    <style
       id="style2">.cls-1{fill:#fff;}</style>
  </defs>
  <g
     id="g817"
     transform="matrix(1.706678,0,0,1.7193252,-14.393492,-28.122651)">
    <path
       style="fill:#fffdff;fill-opacity:1"
       inkscape:connector-curvature="0"
       id="path8"
       d="m 28.230053,28.769999 a 4.9,4.9 0 0 1 -1.74,-3.76 v -2 a 5.15,5.15 0 0 0 -4.41,-5.08 v -0.89 a 0.74,0.74 0 0 0 -1.47,0 v 0.79 a 5.14,5.14 0 0 0 -4.4,5.08 v 2 a 4.92,4.92 0 0 1 -1.76,3.86 1.31,1.31 0 0 0 -0.45,1 1.29,1.29 0 0 0 1.29,1.28 h 12.11 a 1.29,1.29 0 0 0 1.29,-1.28 1.33,1.33 0 0 0 -0.46,-1 z"
       class="cls-1" />
    <path
       style="fill:#fffeff;fill-opacity:1"
       inkscape:connector-curvature="0"
       id="path10"
       d="m 21.05,33.834576 a 2.75,2.75 0 0 0 2.69,-2.16 h -5.39 a 2.76,2.76 0 0 0 2.7,2.16 z"
       class="cls-1" />
  </g>
</svg>
