<?xml version="1.0" encoding="UTF-8" standalone="no"?>
<svg
   xmlns:dc="http://purl.org/dc/elements/1.1/"
   xmlns:cc="http://creativecommons.org/ns#"
   xmlns:rdf="http://www.w3.org/1999/02/22-rdf-syntax-ns#"
   xmlns:svg="http://www.w3.org/2000/svg"
   xmlns="http://www.w3.org/2000/svg"
   xmlns:sodipodi="http://sodipodi.sourceforge.net/DTD/sodipodi-0.dtd"
   xmlns:inkscape="http://www.inkscape.org/namespaces/inkscape"
   id="Capa_1"
   data-name="Capa 1"
   viewBox="0 0 43.05 43.05"
   version="1.1"
   sodipodi:docname="bellInactive.svg"
   inkscape:version="0.92.5 (2060ec1f9f, 2020-04-08)">
  <metadata
     id="metadata15">
    <rdf:RDF>
      <cc:Work
         rdf:about="">
        <dc:format>image/svg+xml</dc:format>
        <dc:type
           rdf:resource="http://purl.org/dc/dcmitype/StillImage" />
      </cc:Work>
    </rdf:RDF>
  </metadata>
  <sodipodi:namedview
     pagecolor="#ffffff"
     bordercolor="#666666"
     borderopacity="1"
     objecttolerance="10"
     gridtolerance="10"
     guidetolerance="10"
     inkscape:pageopacity="0"
     inkscape:pageshadow="2"
     inkscape:window-width="1920"
     inkscape:window-height="1015"
     id="namedview13"
     showgrid="false"
     inkscape:zoom="5.4819978"
     inkscape:cx="-12.221821"
     inkscape:cy="21.525"
     inkscape:window-x="0"
     inkscape:window-y="0"
     inkscape:window-maximized="1"
     inkscape:current-layer="Capa_1" />
  <defs
     id="defs4">
    <style
       id="style2">.cls-1{fill:#fff;}</style>
  </defs>
  <g
     id="g828"
     transform="matrix(1.6685206,0,0,1.6685206,-13.879312,-20.806509)">
    <path
       id="path6"
       d="M 22.65,15.65 A 0.38,0.38 0 0 1 22.27,15.28 V 14 a 0.75,0.75 0 1 0 -1.49,0 v 1.26 a 0.38,0.38 0 0 1 -0.75,0 V 14 a 1.5,1.5 0 1 1 3,0 v 1.26 a 0.38,0.38 0 0 1 -0.38,0.39 z"
       class="cls-1"
       inkscape:connector-curvature="0"
       style="fill:#ffffff" />
    <path
       id="path8"
       d="m 21.53,30.48 a 2.62,2.62 0 0 1 -2.62,-2.62 0.37,0.37 0 0 1 0.37,-0.37 0.38,0.38 0 0 1 0.38,0.37 1.87,1.87 0 1 0 3.74,0 0.37,0.37 0 1 1 0.74,0 2.61,2.61 0 0 1 -2.61,2.62 z"
       class="cls-1"
       inkscape:connector-curvature="0"
       style="fill:#ffffff" />
    <path
       id="path10"
       d="M 27.88,28.24 H 15.17 a 1.12,1.12 0 0 1 -0.73,-2 5.21,5.21 0 0 0 1.85,-4 V 20 a 5.24,5.24 0 1 1 10.47,0 v 2.27 a 5.24,5.24 0 0 0 1.85,4 1.12,1.12 0 0 1 -0.73,2 z M 21.53,15.52 A 4.49,4.49 0 0 0 17,20 v 2.27 a 6,6 0 0 1 -2.11,4.55 0.35,0.35 0 0 0 -0.14,0.28 0.38,0.38 0 0 0 0.38,0.38 H 27.88 A 0.38,0.38 0 0 0 28.26,27.1 0.37,0.37 0 0 0 28.13,26.82 6,6 0 0 1 26,22.28 V 20 a 4.49,4.49 0 0 0 -4.48,-4.49 z"
       class="cls-1"
       inkscape:connector-curvature="0"
       style="fill:#ffffff" />
  </g>
</svg>
