<?xml version="1.0" encoding="UTF-8" standalone="no"?>
<svg
   xmlns:dc="http://purl.org/dc/elements/1.1/"
   xmlns:cc="http://creativecommons.org/ns#"
   xmlns:rdf="http://www.w3.org/1999/02/22-rdf-syntax-ns#"
   xmlns:svg="http://www.w3.org/2000/svg"
   xmlns="http://www.w3.org/2000/svg"
   xmlns:sodipodi="http://sodipodi.sourceforge.net/DTD/sodipodi-0.dtd"
   xmlns:inkscape="http://www.inkscape.org/namespaces/inkscape"
   id="Capa_1"
   data-name="Capa 1"
   viewBox="0 0 43.05 43.05"
   version="1.1"
   sodipodi:docname="landingInactive.svg"
   inkscape:version="0.92.5 (2060ec1f9f, 2020-04-08)">
  <metadata
     id="metadata13">
    <rdf:RDF>
      <cc:Work
         rdf:about="">
        <dc:format>image/svg+xml</dc:format>
        <dc:type
           rdf:resource="http://purl.org/dc/dcmitype/StillImage" />
      </cc:Work>
    </rdf:RDF>
  </metadata>
  <sodipodi:namedview
     pagecolor="#ffffff"
     bordercolor="#666666"
     borderopacity="1"
     objecttolerance="10"
     gridtolerance="10"
     guidetolerance="10"
     inkscape:pageopacity="0"
     inkscape:pageshadow="2"
     inkscape:window-width="1920"
     inkscape:window-height="1015"
     id="namedview11"
     showgrid="false"
     inkscape:zoom="5.4819978"
     inkscape:cx="-12.221821"
     inkscape:cy="21.525"
     inkscape:window-x="0"
     inkscape:window-y="0"
     inkscape:window-maximized="1"
     inkscape:current-layer="Capa_1" />
  <defs
     id="defs4">
    <style
       id="style2">.cls-1{fill:#fff;}</style>
  </defs>
  <g
     id="g822"
     transform="matrix(1.9710907,0,0,1.8787244,-20.977004,-25.373154)">
    <path
       id="path6"
       d="m 19.38,18.19 1.3,-0.22 a 0.15,0.15 0 0 0 0.11,-0.08 l 0.56,-1.2 a 0.15,0.15 0 0 1 0.27,0 l 0.62,1.17 a 0.13,0.13 0 0 0 0.12,0.08 l 1.31,0.16 a 0.16,0.16 0 0 1 0.09,0.26 l -0.93,0.94 a 0.18,0.18 0 0 0 0,0.14 l 0.26,1.29 a 0.16,0.16 0 0 1 -0.22,0.17 l -1.19,-0.59 a 0.14,0.14 0 0 0 -0.14,0 L 20.35,21 a 0.16,0.16 0 0 1 -0.23,-0.16 l 0.19,-1.3 a 0.18,0.18 0 0 0 0,-0.14 l -1,-0.89 a 0.16378339,0.16378339 0 0 1 0.07,-0.32 z"
       class="cls-1"
       inkscape:connector-curvature="0"
       style="fill:#ffffff" />
    <path
       id="path8"
       d="m 26.11,29.5 h -1.46 a 1.33,1.33 0 0 1 -1.3,-1.31 v -2.33 a 0.7,0.7 0 0 0 -0.71,-0.7 h -2.19 a 0.7,0.7 0 0 0 -0.7,0.7 v 2.32 a 0.59,0.59 0 0 1 0,0.13 1.34,1.34 0 0 1 -1.32,1.19 h -1.49 a 3,3 0 0 1 -3,-3 v -6.61 a 2.23,2.23 0 0 1 0.88,-1.75 l 5,-4 a 2.78,2.78 0 0 1 3.47,0 l 5,4 a 2.23,2.23 0 0 1 0.87,1.74 v 6.63 a 3,3 0 0 1 -3.05,2.99 z m -3.47,-5.1 a 1.46,1.46 0 0 1 1.47,1.46 v 2.33 a 0.56,0.56 0 0 0 0.54,0.54 h 1.46 a 2.25,2.25 0 0 0 2.26,-2.22 v -6.62 a 1.46,1.46 0 0 0 -0.58,-1.14 l -5,-4 a 2,2 0 0 0 -2.53,0 l -5,4 a 1.47,1.47 0 0 0 -0.59,1.15 v 6.61 a 2.25,2.25 0 0 0 2.26,2.22 h 1.47 a 0.56,0.56 0 0 0 0.56,-0.55 0.31,0.31 0 0 1 0,-0.1 v -2.22 a 1.47,1.47 0 0 1 1.46,-1.46 z"
       class="cls-1"
       inkscape:connector-curvature="0"
       style="fill:#ffffff" />
  </g>
</svg>
