<svg width="15" height="15" viewBox="0 0 15 15" fill="#FFFFFF" xmlns="http://www.w3.org/2000/svg">
<path d="M7.5 7.5C9.35937 7.5 10.875 5.84375 10.875 3.82813C10.875 1.82813 9.36719 0.257813 7.5 0.257813C5.64844 0.257813 4.125 1.85938 4.125 3.84375C4.13281 5.85156 5.64062 7.5 7.5 7.5ZM7.5 6.32031C6.35937 6.32031 5.38281 5.22656 5.38281 3.84375C5.38281 2.48438 6.34375 1.4375 7.5 1.4375C8.66406 1.4375 9.61719 2.46875 9.61719 3.82813C9.61719 5.21094 8.64844 6.32031 7.5 6.32031ZM2.58594 14.7266H12.4062C13.7031 14.7266 14.3203 14.3359 14.3203 13.4766C14.3203 11.4297 11.7344 8.46875 7.5 8.46875C3.25781 8.46875 0.671875 11.4297 0.671875 13.4766C0.671875 14.3359 1.28906 14.7266 2.58594 14.7266ZM2.21875 13.5469C2.01562 13.5469 1.92969 13.4922 1.92969 13.3281C1.92969 12.0469 3.91406 9.64844 7.5 9.64844C11.0781 9.64844 13.0625 12.0469 13.0625 13.3281C13.0625 13.4922 12.9844 13.5469 12.7812 13.5469H2.21875Z" fill="#FFFFFF"/>
</svg>
