<svg width="65" height="140" viewBox="0 0 51 80" fill="none" xmlns="http://www.w3.org/2000/svg">
<rect width="51" height="50" rx="25" fill="#CD068E"/>
<path d="M27.8229 27.6686C26.5879 28.9009 24.5864 28.9009 23.3515 27.6686C22.1169 26.4364 22.1169 24.4383 23.3515 23.206C24.5864 21.9737 26.5879 21.9737 27.8229 23.206C29.0575 24.4383 29.0575 26.4364 27.8229 27.6686Z" fill="white"/>
<path d="M32.142 32.4499C31.7568 32.4499 31.3716 32.3029 31.0784 32.0085C30.4919 31.4212 30.493 30.4697 31.0803 29.8835C32.2704 28.6957 32.9257 27.1166 32.9257 25.4372C32.9257 23.7578 32.2704 22.1786 31.0803 20.9908C30.493 20.4043 30.4919 19.4531 31.0784 18.8654C31.6645 18.2782 32.6161 18.277 33.2034 18.8635C34.9625 20.6193 35.9312 22.9536 35.9312 25.4372C35.9312 27.9204 34.9625 30.255 33.2034 32.0108C32.9101 32.3037 32.5261 32.4499 32.142 32.4499Z" fill="white"/>
<path d="M35.5412 36.8742C35.156 36.8742 34.7708 36.7272 34.4776 36.4332C33.891 35.8456 33.8922 34.8944 34.4795 34.3078C36.8536 31.9382 38.1615 28.788 38.1615 25.4372C38.1615 22.0864 36.8536 18.9361 34.4795 16.5665C33.8922 15.98 33.891 15.0288 34.4776 14.4411C35.0641 13.8538 36.0153 13.8527 36.6025 14.4392C39.5458 17.3767 41.167 21.2825 41.1667 25.4372C41.1667 29.5918 39.5458 33.498 36.6025 36.4355C36.3093 36.728 35.9252 36.8742 35.5412 36.8742Z" fill="white"/>
<path d="M19.0249 32.45C18.6409 32.45 18.2568 32.3038 17.9632 32.0109C16.204 30.2552 15.2354 27.9205 15.2354 25.4373C15.2354 22.9537 16.204 20.6194 17.9632 18.8637C18.5505 18.2772 19.502 18.2779 20.0882 18.8656C20.6747 19.4529 20.6735 20.4044 20.0863 20.9909C18.8961 22.1788 18.2409 23.7579 18.2409 25.4373C18.2409 27.1167 18.8961 28.6958 20.0863 29.8837C20.6735 30.4698 20.6747 31.4214 20.0882 32.0086C19.7949 32.3027 19.4097 32.45 19.0249 32.45Z" fill="white"/>
<path d="M15.6258 36.8744C15.2414 36.8744 14.8574 36.7282 14.5641 36.4353C11.6209 33.4978 10 29.592 10 25.4374C10 21.2824 11.6209 17.3766 14.5641 14.439C15.1514 13.8529 16.103 13.8537 16.6891 14.4413C17.2756 15.0286 17.2745 15.9798 16.6872 16.5663C14.313 18.9359 13.0051 22.0862 13.0051 25.437C13.0051 28.7878 14.313 31.9384 16.6872 34.308C17.2745 34.8946 17.2756 35.8457 16.6891 36.4334C16.3958 36.7274 16.0107 36.8744 15.6258 36.8744Z" fill="white"/>
</svg>
