<?xml version="1.0" encoding="UTF-8" standalone="no"?>
<svg
   xmlns:dc="http://purl.org/dc/elements/1.1/"
   xmlns:cc="http://creativecommons.org/ns#"
   xmlns:rdf="http://www.w3.org/1999/02/22-rdf-syntax-ns#"
   xmlns:svg="http://www.w3.org/2000/svg"
   xmlns="http://www.w3.org/2000/svg"
   xmlns:sodipodi="http://sodipodi.sourceforge.net/DTD/sodipodi-0.dtd"
   xmlns:inkscape="http://www.inkscape.org/namespaces/inkscape"
   id="Capa_1"
   data-name="Capa 1"
   viewBox="0 0 43.05 43.05"
   version="1.1"
   sodipodi:docname="userIco.svg"
   inkscape:version="0.92.5 (2060ec1f9f, 2020-04-08)">
  <metadata
     id="metadata15">
    <rdf:RDF>
      <cc:Work
         rdf:about="">
        <dc:format>image/svg+xml</dc:format>
        <dc:type
           rdf:resource="http://purl.org/dc/dcmitype/StillImage" />
        <dc:title></dc:title>
      </cc:Work>
    </rdf:RDF>
  </metadata>
  <sodipodi:namedview
     pagecolor="#ffffff"
     bordercolor="#666666"
     borderopacity="1"
     objecttolerance="10"
     gridtolerance="10"
     guidetolerance="10"
     inkscape:pageopacity="0"
     inkscape:pageshadow="2"
     inkscape:window-width="1920"
     inkscape:window-height="1015"
     id="namedview13"
     showgrid="false"
     inkscape:zoom="5.4819978"
     inkscape:cx="-24.667268"
     inkscape:cy="23.713127"
     inkscape:window-x="0"
     inkscape:window-y="0"
     inkscape:window-maximized="1"
     inkscape:current-layer="layer1" />
  <defs
     id="defs4">
    <style
       id="style2">.cls-1{fill:#fff;}</style>
  </defs>
  <g
     inkscape:groupmode="layer"
     id="layer1"
     inkscape:label="Layer 1">
    <g
       id="g871"
       transform="matrix(1.674524,0,0,1.65,-14.257026,-19.007499)">
      <circle
         style="fill:none;stroke:#ffffff;stroke-width:1.30434787"
         id="circle2"
         r="9.347826"
         cy="21.549999"
         cx="21.5" />
      <path
         style="fill:#ffffff;stroke-width:0.86956525"
         inkscape:connector-curvature="0"
         id="path4"
         d="m 21.398522,24.434695 c 2.436869,0 4.416348,-1.919131 4.416348,-4.33847 h -1.304348 c 0,1.673426 -1.369652,3.034122 -3.112,3.034122 z m 4.416348,-4.33847 c 0,-2.419374 -1.979479,-4.338513 -4.416348,-4.338513 v 1.304348 c 1.742348,0 3.112,1.360731 3.112,3.034165 z m -4.416348,-4.338513 c -2.436061,0 -4.4164,1.919052 -4.4164,4.338513 h 1.304348 c 0,-1.673348 1.370347,-3.034165 3.112052,-3.034165 z m -4.4164,4.338513 c 0,2.419426 1.980339,4.33847 4.4164,4.33847 v -1.304348 c -1.741705,0 -3.112052,-1.360783 -3.112052,-3.034122 z" />
      <path
         style="fill:none;stroke:#ffffff;stroke-width:1.30434787"
         inkscape:connector-curvature="0"
         id="path6-3"
         d="M 14.543478,28.071738 C 15.847826,25.463043 19.76087,25.463043 21.5,25.463043" />
      <path
         style="fill:none;stroke:#ffffff;stroke-width:1.30434787"
         inkscape:connector-curvature="0"
         id="path8-6"
         d="M 28.021739,28.071738 C 26.717391,25.463043 22.804348,25.463043 21.065217,25.463043" />
    </g>
  </g>
</svg>
