<svg id="Capa_1" data-name="Capa 1" xmlns="http://www.w3.org/2000/svg" viewBox="0 0 512 511.98"><defs><style>.cls-1{fill:#fff;}</style></defs><path class="cls-1" d="M405.33,257A21.33,21.33,0,0,0,384,278.32V449a21.36,21.36,0,0,1-21.33,21.34H64A21.35,21.35,0,0,1,42.67,449V150.32A21.35,21.35,0,0,1,64,129H234.67a21.33,21.33,0,1,0,0-42.66H64a64.07,64.07,0,0,0-64,64V449a64.07,64.07,0,0,0,64,64H362.67a64.08,64.08,0,0,0,64-64V278.32A21.32,21.32,0,0,0,405.33,257Z" transform="translate(0 -1)"/><path class="cls-1" d="M200,237.55A10.75,10.75,0,0,0,197.1,243L182,318.43a10.65,10.65,0,0,0,10.47,12.75,10,10,0,0,0,2.09-.21L270,315.89a10.63,10.63,0,0,0,5.46-2.93L444.25,144.17,368.83,68.76Z" transform="translate(0 -1)"/><path class="cls-1" d="M496.38,16.6a53.37,53.37,0,0,0-75.41,0L391.45,46.13l75.41,75.41L496.38,92a53.32,53.32,0,0,0,0-75.41Z" transform="translate(0 -1)"/></svg>