<svg id="Layer_1" data-name="Layer 1" xmlns="http://www.w3.org/2000/svg" viewBox="0 0 264.08 247.04"><defs><style>.cls-1{fill:#fff;}.cls-2{fill:#231f20;}.cls-3{fill:#929497;}</style></defs><path class="cls-1" d="M288,159.52a107.93,107.93,0,0,0-215.65,0,42.59,42.59,0,0,0,18.37,81h4V258.4a45.13,45.13,0,0,0,45,45h80.86a45.13,45.13,0,0,0,45-45V240.53h4a42.59,42.59,0,0,0,18.36-81Zm-22.67-4.16a45.16,45.16,0,0,0-44.72-40H139.77a45.16,45.16,0,0,0-44.72,40H90.74c-.69,0-1.37,0-2,.06a91.93,91.93,0,0,1,183,0c-.67,0-1.36-.06-2-.06Z" transform="translate(-48.16 -56.36)"/><path class="cls-2" d="M133.12,243.26c31.25,51.27,65.25,18.6,50.58-14.73C168.37,268.53,133.12,243.26,133.12,243.26Z" transform="translate(-48.16 -56.36)"/><path class="cls-3" d="M95.68,174.75a5.17,5.17,0,0,1,4,1.85,5.86,5.86,0,0,1,1.62,3.91,5.61,5.61,0,0,1-1.76,4.1,5.4,5.4,0,0,1-3.91,1.75H80.2a2.88,2.88,0,0,0-1.85.63,2.22,2.22,0,0,0-.76,1.8,2.44,2.44,0,0,0,.76,1.94,2.7,2.7,0,0,0,1.85.67H90.37a11.74,11.74,0,0,1,5.17,1.17,13.83,13.83,0,0,1,4.14,3.11,16.19,16.19,0,0,1,2.75,4.1,11.45,11.45,0,0,1,1,4.85,13.38,13.38,0,0,1-4,10A14,14,0,0,1,95,217.46a14.84,14.84,0,0,1-5.67,1H72.73a5.66,5.66,0,0,1-4-1.62A5.31,5.31,0,0,1,67,212.82a6.07,6.07,0,0,1,1.62-4.09,5.39,5.39,0,0,1,4-1.94H89.11q2.43,0,2.43-2.16a2.15,2.15,0,0,0-2.43-2.43h-9.9a11.79,11.79,0,0,1-5.09-1.12A12.73,12.73,0,0,1,70,198a15.6,15.6,0,0,1-2.74-4.33,12.59,12.59,0,0,1-1-5,13.56,13.56,0,0,1,1-5.21A13.87,13.87,0,0,1,74.35,176a13.65,13.65,0,0,1,5.31-1.22Z" transform="translate(-48.16 -56.36)"/><path class="cls-2" d="M133.29,174.94a20.83,20.83,0,0,1,15.3,6.3,5.37,5.37,0,0,1,1.4,4,5.53,5.53,0,0,1-1.76,3.87,6.08,6.08,0,0,1-4.14,1.63,5.15,5.15,0,0,1-4.14-1.63,9.64,9.64,0,0,0-6.66-2.52,9.18,9.18,0,0,0-3.91.86,11.2,11.2,0,0,0-3.24,2.25,10.72,10.72,0,0,0-2.21,3.2,9.1,9.1,0,0,0-.81,3.77,9.62,9.62,0,0,0,.81,3.92,10.15,10.15,0,0,0,2.25,3.24,11.26,11.26,0,0,0,3.24,2.2,8.28,8.28,0,0,0,3.87.72,9.55,9.55,0,0,0,6.66-2.43,5.68,5.68,0,0,1,8.28,0,5.27,5.27,0,0,1,1.26,1.71,5.57,5.57,0,0,1,.5,2.08,5.67,5.67,0,0,1-.32,2.11,5.46,5.46,0,0,1-1.08,1.85,22,22,0,0,1-6.93,4.76,21,21,0,0,1-8.37,1.62,20.64,20.64,0,0,1-8.46-1.75,22.56,22.56,0,0,1-11.65-11.66,20.43,20.43,0,0,1-1.76-8.37,20.18,20.18,0,0,1,1.76-8.27A22.49,22.49,0,0,1,118,181.5a24.14,24.14,0,0,1,7-4.76A19.84,19.84,0,0,1,133.29,174.94Z" transform="translate(-48.16 -56.36)"/><path class="cls-2" d="M179.73,174.84a21.06,21.06,0,0,1,8.37,1.71,21.94,21.94,0,0,1,6.93,4.69,22.69,22.69,0,0,1,4.73,6.92,21.67,21.67,0,0,1,0,17,22.58,22.58,0,0,1-4.63,6.88,21.4,21.4,0,0,1-6.89,4.68,21.16,21.16,0,0,1-8.55,1.71,22.12,22.12,0,0,1-8.46-1.62,21.2,21.2,0,0,1-6.93-4.54A21.45,21.45,0,0,1,158,196.71a21.42,21.42,0,0,1,6.26-15.25,22.4,22.4,0,0,1,6.93-4.68A23.7,23.7,0,0,1,179.73,174.84Zm0,11.79a9.79,9.79,0,0,0-3.87.77,10.37,10.37,0,0,0-3.19,2.11,10,10,0,0,0-2.21,3.2,9.86,9.86,0,0,0-.81,4,9.62,9.62,0,0,0,.81,3.92,10.53,10.53,0,0,0,2.21,3.24,10.64,10.64,0,0,0,3.19,2.2,9.32,9.32,0,0,0,3.87.81,9.66,9.66,0,0,0,3.92-.81,9.94,9.94,0,0,0,3.19-2.2,10.93,10.93,0,0,0,2.16-3.24,9.62,9.62,0,0,0,.81-3.92,10.44,10.44,0,0,0-3-7A10.18,10.18,0,0,0,179.73,186.63Z" transform="translate(-48.16 -56.36)"/><path class="cls-3" d="M215.73,161.07a4.61,4.61,0,0,1,2.25.41,7.1,7.1,0,0,1,1.94,1.3,5.39,5.39,0,0,1,1.3,1.94,6.14,6.14,0,0,1,.45,2.29v10.35a20.8,20.8,0,0,1,6.53-2.11,22.8,22.8,0,0,1,6.7,0,23.09,23.09,0,0,1,6.48,2,20.89,20.89,0,0,1,10.58,11,21.69,21.69,0,0,1,1.57,8.5,20.61,20.61,0,0,1-1.75,8.46,22.78,22.78,0,0,1-4.73,6.94,22,22,0,0,1-6.93,4.67,20.72,20.72,0,0,1-8.37,1.71,20.21,20.21,0,0,1-8.28-1.75,23.29,23.29,0,0,1-7-4.73,22.87,22.87,0,0,1-4.82-6.93,20,20,0,0,1-1.8-8.37V166.57a4.51,4.51,0,0,1,.54-2.12,6.74,6.74,0,0,1,1.35-1.8,6.37,6.37,0,0,1,1.85-1.21A4.44,4.44,0,0,1,215.73,161.07Zm5.94,35.64a9.62,9.62,0,0,0,.81,3.92,10,10,0,0,0,2.21,3.19,11.12,11.12,0,0,0,3.19,2.17,9.31,9.31,0,0,0,3.87.8,9.43,9.43,0,0,0,3.83-.8,11,11,0,0,0,3.24-2.17,9.94,9.94,0,0,0,2.2-3.19,9.87,9.87,0,0,0,0-7.83,9.83,9.83,0,0,0-2.2-3.19,11,11,0,0,0-3.24-2.17,9.44,9.44,0,0,0-3.83-.81,8.91,8.91,0,0,0-3.87.86,11.38,11.38,0,0,0-3.19,2.25,10.53,10.53,0,0,0-2.21,3.24A9.19,9.19,0,0,0,221.67,196.71Z" transform="translate(-48.16 -56.36)"/><path class="cls-3" d="M259.65,188.88v-8a5.83,5.83,0,0,1,1.76-4.27,5.71,5.71,0,0,1,4.18-1.76A5.94,5.94,0,0,1,270,176.6a5.82,5.82,0,0,1,1.75,4.27v8a8.47,8.47,0,0,0,8.64,8.65,8.52,8.52,0,0,0,6.21-2.48,8.29,8.29,0,0,0,2.52-6.17v-8a5.83,5.83,0,0,1,1.76-4.27,5.71,5.71,0,0,1,4.18-1.76,5.94,5.94,0,0,1,4.37,1.76,5.82,5.82,0,0,1,1.75,4.27V189a20,20,0,0,1-1.12,6.7,21.36,21.36,0,0,1-3.11,5.81,20.4,20.4,0,0,1-4.72,4.5,20.11,20.11,0,0,1-6,2.79v17.54a5.82,5.82,0,0,1-1.75,4.28,5.73,5.73,0,0,1-4.19,1.76,5.92,5.92,0,0,1-4.36-1.76,5.83,5.83,0,0,1-1.76-4.28V208.69a20.69,20.69,0,0,1-10.39-7.39,20.82,20.82,0,0,1-3-5.76A20.35,20.35,0,0,1,259.65,188.88Z" transform="translate(-48.16 -56.36)"/></svg>