<svg id="Layer_1" data-name="Layer 1" xmlns="http://www.w3.org/2000/svg" viewBox="0 0 227.11 227.11"><defs><style>.cls-1{fill:#6536bb;}.cls-2{fill:#ffcb05;}</style></defs><circle class="cls-1" cx="113.56" cy="113.56" r="113.56"/><path class="cls-2" d="M168.7,49.65a18.64,18.64,0,0,1,14.59,6.64q5.84,6.66,5.84,14.11a20.19,20.19,0,0,1-6.33,14.75q-6.31,6.33-14.1,6.32H112.93a10.11,10.11,0,0,0-6.64,2.27,7.94,7.94,0,0,0-2.76,6.49,8.8,8.8,0,0,0,2.76,7,9.68,9.68,0,0,0,6.64,2.43h36.64a41.88,41.88,0,0,1,18.64,4.21A49.36,49.36,0,0,1,183.13,125,58,58,0,0,1,193,139.78a41.7,41.7,0,0,1,3.56,17.51,46.54,46.54,0,0,1-3.72,20.1A47.78,47.78,0,0,1,182,193.28a50.62,50.62,0,0,1-15.88,10.21,53.31,53.31,0,0,1-20.43,3.73H86a20.5,20.5,0,0,1-14.59-5.83,19.28,19.28,0,0,1-6.16-14.59A21.89,21.89,0,0,1,71.11,172a19.34,19.34,0,0,1,14.26-7H145q8.76,0,8.76-7.78,0-8.76-8.76-8.75H109.37a42.26,42.26,0,0,1-18.32-4.06A45.85,45.85,0,0,1,76.13,133.3a56.71,56.71,0,0,1-9.89-15.56,46.1,46.1,0,0,1-3.56-18.16,49,49,0,0,1,3.73-18.81A50.4,50.4,0,0,1,76.62,64.89,49.68,49.68,0,0,1,91.86,54,48.55,48.55,0,0,1,111,49.65Z" transform="translate(-16.84 -16.91)"/></svg>