<?xml version="1.0" standalone="no"?>
<!DOCTYPE svg PUBLIC "-//W3C//DTD SVG 20010904//EN"
 "http://www.w3.org/TR/2001/REC-SVG-20010904/DTD/svg10.dtd">
<svg version="1.0" xmlns="http://www.w3.org/2000/svg"
 width="626.000000pt" height="626.000000pt" viewBox="0 0 626.000000 626.000000"
 preserveAspectRatio="xMidYMid meet">
<metadata>
Created by potrace 1.11, written by Peter Selinger 2001-2013
</metadata>
<g transform="translate(0.000000,626.000000) scale(0.100000,-0.100000)"
fill="#000000" stroke="none">
<path d="M2910 6044 c-14 -2 -79 -11 -145 -20 -530 -71 -1054 -333 -1445 -724
-291 -291 -500 -634 -628 -1030 -61 -189 -88 -330 -117 -610 -6 -55 -6 -55
-61 -84 -186 -98 -365 -302 -445 -511 -198 -510 45 -1083 549 -1298 115 -49
208 -69 349 -74 l133 -6 0 -219 c0 -120 5 -262 11 -315 49 -441 360 -800 797
-921 l97 -27 1125 0 1125 0 97 27 c437 121 748 480 797 921 6 53 11 195 11
315 l0 219 133 6 c86 3 159 13 209 26 386 104 668 408 742 800 33 173 14 375
-53 546 -80 209 -259 413 -445 511 -55 29 -55 29 -61 84 -30 289 -56 423 -125
630 -240 727 -781 1300 -1495 1584 -157 62 -391 125 -565 151 -109 17 -524 30
-590 19z m431 -384 c557 -57 1079 -327 1436 -744 271 -317 452 -712 507 -1111
l13 -95 -73 0 -73 0 -6 38 c-13 78 -57 220 -91 291 -145 309 -417 521 -764
597 -80 18 -149 19 -1165 19 -1073 0 -1081 0 -1171 -22 -428 -102 -731 -404
-825 -822 l-23 -101 -71 0 -71 0 8 73 c25 206 102 457 207 672 218 443 552
775 1001 994 360 176 769 250 1161 211z m700 -2116 c53 -27 69 -79 69 -233 0
-123 1 -133 18 -126 158 66 330 60 476 -18 73 -39 161 -124 198 -193 35 -65
58 -161 58 -244 0 -278 -232 -510 -510 -510 -229 1 -451 181 -499 408 -7 34
-11 192 -11 443 0 423 0 424 56 468 32 26 101 28 145 5z m-2825 -346 c29 -33
34 -45 34 -88 0 -43 -5 -55 -34 -88 l-34 -37 -225 -5 c-203 -5 -227 -7 -246
-24 -24 -22 -27 -54 -7 -82 13 -17 31 -20 188 -24 200 -7 236 -18 312 -93 73
-73 91 -117 91 -222 0 -73 -4 -98 -22 -135 -29 -59 -94 -124 -152 -152 -44
-22 -58 -23 -311 -26 -252 -2 -267 -2 -298 18 -72 44 -77 137 -12 203 l38 37
226 0 c138 0 235 4 247 10 22 12 27 81 7 98 -8 6 -85 12 -178 14 -147 3 -171
6 -217 27 -106 47 -183 166 -183 281 0 83 13 127 53 186 42 62 93 102 159 125
47 17 81 19 291 16 l239 -2 34 -37z m927 27 c101 -26 209 -93 249 -153 41 -62
10 -160 -59 -189 -55 -22 -110 -13 -165 29 -86 66 -186 72 -271 18 -158 -100
-160 -305 -5 -407 34 -23 54 -29 117 -31 72 -3 79 -2 131 32 85 55 118 68 154
61 96 -21 145 -122 96 -202 -42 -69 -181 -145 -297 -163 -236 -37 -484 116
-563 345 -83 241 31 503 272 626 94 48 234 62 341 34z m1108 -1 c226 -66 379
-266 379 -494 0 -147 -44 -254 -150 -361 -111 -113 -219 -154 -389 -147 -128
5 -207 33 -296 106 -122 98 -186 235 -186 397 0 241 150 435 387 500 68 18
190 18 255 -1z m1985 -11 c43 -28 49 -51 54 -208 5 -130 9 -156 28 -193 59
-113 213 -146 314 -69 71 55 82 89 88 264 5 152 5 152 35 183 64 67 169 59
216 -16 20 -33 21 -44 17 -207 -4 -149 -7 -179 -27 -226 -53 -128 -150 -229
-263 -273 l-58 -23 0 -218 c0 -235 -5 -261 -53 -306 -37 -33 -111 -39 -154
-12 -65 41 -67 51 -73 310 l-5 234 -30 10 c-86 28 -203 134 -248 224 -47 91
-59 162 -55 324 3 141 4 149 28 174 51 56 127 67 186 28z m-1970 -1398 c15
-55 19 -104 19 -225 0 -143 -2 -161 -28 -233 -54 -155 -143 -262 -267 -321
-55 -26 -79 -31 -161 -34 -115 -5 -178 10 -288 69 -159 85 -318 242 -461 454
-27 41 -50 76 -50 78 0 2 53 -23 118 -55 167 -83 280 -110 437 -105 86 2 136
9 176 23 173 61 309 198 412 411 l41 86 17 -39 c9 -22 25 -71 35 -109z"/>
<path d="M4272 2957 c-47 -15 -117 -80 -142 -133 -32 -64 -26 -164 13 -223 54
-81 149 -129 234 -117 151 20 251 167 209 307 -39 135 -180 209 -314 166z"/>
<path d="M3040 2951 c-135 -48 -198 -201 -134 -329 32 -65 84 -108 153 -129
100 -29 211 17 266 111 112 191 -76 421 -285 347z"/>
</g>
</svg>
