<svg width="40" height="59" viewBox="0 0 40 59" fill="none" xmlns="http://www.w3.org/2000/svg">
<g filter="url(#filter0_b)">
<path d="M0 20C0 8.95431 8.95431 0 20 0C31.0457 0 40 8.95431 40 20C40 31.0457 31.0457 40 20 40C8.95431 40 0 31.0457 0 20Z" fill="black" fill-opacity="0.24"/>
<g filter="url(#filter1_d)">
<path d="M4.77295 48.2495H3.56982V53.2769C3.56982 54.9473 4.76221 56.1289 6.70654 56.1289C8.65088 56.1289 9.84326 54.9473 9.84326 53.2769V48.2495H8.64551V53.1748C8.64551 54.2812 7.94189 55.0601 6.70654 55.0601C5.47119 55.0601 4.77295 54.2812 4.77295 53.1748V48.2495ZM14.0757 50.2583C13.2593 50.2583 12.6094 50.6719 12.2764 51.3218H12.2549V50.3496H11.1323V57.8691H12.2925V55.0708H12.3193C12.6416 55.6992 13.2861 56.0967 14.0972 56.0967C15.5151 56.0967 16.4551 54.9634 16.4551 53.1748C16.4551 51.3862 15.5098 50.2583 14.0757 50.2583ZM13.7695 55.1138C12.8779 55.1138 12.2871 54.3511 12.2871 53.1748C12.2871 52.0093 12.8833 51.2358 13.7695 51.2358C14.688 51.2358 15.2627 51.9932 15.2627 53.1748C15.2627 54.3618 14.688 55.1138 13.7695 55.1138ZM17.395 56H18.5552V48.2495H17.395V56ZM22.1753 56.1074C23.792 56.1074 24.8555 54.9956 24.8555 53.1748C24.8555 51.3594 23.7866 50.2476 22.1753 50.2476C20.564 50.2476 19.4951 51.3594 19.4951 53.1748C19.4951 54.9956 20.5586 56.1074 22.1753 56.1074ZM22.1753 55.1514C21.2676 55.1514 20.6768 54.4316 20.6768 53.1748C20.6768 51.9233 21.2676 51.2036 22.1753 51.2036C23.083 51.2036 23.6738 51.9233 23.6738 53.1748C23.6738 54.4316 23.0884 55.1514 22.1753 55.1514ZM27.4067 56.0967C28.1479 56.0967 28.8623 55.6992 29.1899 55.0708H29.2168V56H30.3286V52.106C30.3286 50.9727 29.4531 50.2476 28.0835 50.2476C26.687 50.2476 25.8169 50.9995 25.7524 52.02H26.8481C26.9502 51.5151 27.3691 51.1929 28.0405 51.1929C28.7495 51.1929 29.1738 51.5688 29.1738 52.1973V52.6323L27.627 52.7236C26.2842 52.7988 25.5269 53.4058 25.5269 54.394C25.5269 55.4092 26.3003 56.0967 27.4067 56.0967ZM27.729 55.1782C27.106 55.1782 26.6978 54.856 26.6978 54.3618C26.6978 53.8784 27.0898 53.5723 27.7827 53.5239L29.1738 53.438V53.8838C29.1738 54.6196 28.54 55.1782 27.729 55.1782ZM33.5781 56.0967C34.3999 56.0967 35.0444 55.6831 35.3774 55.0386H35.3989V56H36.5269V48.2495H35.3613V51.2896H35.3398C35.0229 50.6665 34.3784 50.2583 33.5674 50.2583C32.1494 50.2583 31.2041 51.3916 31.2041 53.1748C31.2041 54.958 32.1494 56.0967 33.5781 56.0967ZM33.8843 51.2358C34.7759 51.2358 35.3721 52.0039 35.3721 53.1748C35.3721 54.3564 34.7759 55.1138 33.8843 55.1138C32.9658 55.1138 32.3911 54.3672 32.3911 53.1748C32.3911 51.9878 32.9658 51.2358 33.8843 51.2358Z" fill="white"/>
</g>
<path d="M25.2891 20.8359L19.5469 26.5781C18.0547 28.0781 16.0469 27.9297 14.7656 26.6328C13.4766 25.3516 13.3281 23.3594 14.8203 21.8594L22.6562 14.0312C23.5547 13.1328 24.875 13.0078 25.7344 13.8594C26.5859 14.7266 26.4609 16.0391 25.5703 16.9375L17.9141 24.5938C17.5312 24.9922 17.0625 24.875 16.7969 24.6094C16.5312 24.3359 16.4219 23.8828 16.8047 23.4844L22.1562 18.1484C22.3906 17.9062 22.4062 17.5625 22.1797 17.3359C21.9531 17.1172 21.6094 17.1328 21.375 17.3672L16.0078 22.7344C15.2109 23.5312 15.2422 24.75 15.9453 25.4531C16.7109 26.2188 17.8672 26.2031 18.6719 25.3984L26.3594 17.7109C27.8203 16.25 27.7578 14.3281 26.4844 13.0547C25.2422 11.8125 23.2891 11.7188 21.8281 13.1797L13.9531 21.0625C12.0234 22.9922 12.1719 25.75 13.9141 27.4922C15.6562 29.2266 18.4141 29.375 20.3438 27.4531L26.125 21.6719C26.3516 21.4453 26.3516 21.0312 26.1172 20.8203C25.8906 20.5781 25.5234 20.6094 25.2891 20.8359Z" fill="white"/>
</g>
<defs>
<filter id="filter0_b" x="-16" y="-16" width="72" height="72" filterUnits="userSpaceOnUse" color-interpolation-filters="sRGB">
<feFlood flood-opacity="0" result="BackgroundImageFix"/>
<feGaussianBlur in="BackgroundImage" stdDeviation="8"/>
<feComposite in2="SourceAlpha" operator="in" result="effect1_backgroundBlur"/>
<feBlend mode="normal" in="SourceGraphic" in2="effect1_backgroundBlur" result="shape"/>
</filter>
<filter id="filter1_d" x="3.07031" y="48.2495" width="33.957" height="10.6196" filterUnits="userSpaceOnUse" color-interpolation-filters="sRGB">
<feFlood flood-opacity="0" result="BackgroundImageFix"/>
<feColorMatrix in="SourceAlpha" type="matrix" values="0 0 0 0 0 0 0 0 0 0 0 0 0 0 0 0 0 0 127 0"/>
<feOffset dy="0.5"/>
<feGaussianBlur stdDeviation="0.25"/>
<feColorMatrix type="matrix" values="0 0 0 0 0 0 0 0 0 0 0 0 0 0 0 0 0 0 0.64 0"/>
<feBlend mode="normal" in2="BackgroundImageFix" result="effect1_dropShadow"/>
<feBlend mode="normal" in="SourceGraphic" in2="effect1_dropShadow" result="shape"/>
</filter>
</defs>
</svg>
