<svg width="40" height="40" viewBox="0 0 40 40" fill="none" xmlns="http://www.w3.org/2000/svg">
<g filter="url(#filter0_b)">
<path d="M0 20C0 8.95431 8.95431 0 20 0C31.0457 0 40 8.95431 40 20C40 31.0457 31.0457 40 20 40C8.95431 40 0 31.0457 0 20Z" fill="black" fill-opacity="0.24"/>
<path d="M13.0703 23.7344H16.5234V27.125C16.5234 27.5078 16.7422 27.7422 17.1172 27.7422C17.4766 27.7422 17.7031 27.5078 17.7031 27.125V23.7344H22.25V27.125C22.25 27.5078 22.4687 27.7422 22.8437 27.7422C23.2031 27.7422 23.4297 27.5078 23.4297 27.125V23.7344H26.9297C27.3203 23.7344 27.5547 23.5078 27.5547 23.1406C27.5547 22.7734 27.3203 22.5547 26.9297 22.5547H23.4297V18.1563H26.9297C27.3203 18.1563 27.5547 17.9297 27.5547 17.5703C27.5547 17.2031 27.3203 16.9766 26.9297 16.9766H23.4297V13.5625C23.4297 13.1797 23.2031 12.9375 22.8437 12.9375C22.4687 12.9375 22.25 13.1797 22.25 13.5625V16.9766H17.7031V13.5625C17.7031 13.1797 17.4766 12.9375 17.1172 12.9375C16.7422 12.9375 16.5234 13.1797 16.5234 13.5625V16.9766H13.0703C12.6797 16.9766 12.4453 17.2031 12.4453 17.5703C12.4453 17.9297 12.6797 18.1563 13.0703 18.1563H16.5234V22.5547H13.0703C12.6797 22.5547 12.4453 22.7734 12.4453 23.1406C12.4453 23.5078 12.6797 23.7344 13.0703 23.7344ZM17.7031 22.5547V18.1563H22.25V22.5547H17.7031Z" fill="white"/>
</g>
<defs>
<filter id="filter0_b" x="-16" y="-16" width="72" height="72" filterUnits="userSpaceOnUse" color-interpolation-filters="sRGB">
<feFlood flood-opacity="0" result="BackgroundImageFix"/>
<feGaussianBlur in="BackgroundImage" stdDeviation="8"/>
<feComposite in2="SourceAlpha" operator="in" result="effect1_backgroundBlur"/>
<feBlend mode="normal" in="SourceGraphic" in2="effect1_backgroundBlur" result="shape"/>
</filter>
</defs>
</svg>
