<svg width="57" height="56" viewBox="0 0 57 56" fill="none" xmlns="http://www.w3.org/2000/svg">
<g filter="url(#filter0_d)">
<path d="M37.2305 37.2656C37.5332 37.5977 38.0605 37.6367 38.4414 37.2461C40.7559 34.8145 42.0937 31.5527 42.0937 27.9883C42.0937 24.4238 40.7559 21.1523 38.4414 18.7305C38.0605 18.3301 37.5332 18.3691 37.2305 18.7012C36.9277 19.043 36.9961 19.5215 37.3477 19.8926C39.3691 22.0117 40.502 24.8535 40.502 27.9883C40.502 31.123 39.3691 33.9551 37.3477 36.0742C36.9961 36.4453 36.9277 36.9336 37.2305 37.2656ZM19.7695 37.2656C20.0723 36.9336 20.0039 36.4453 19.6523 36.0742C17.6309 33.9551 16.498 31.123 16.498 27.9883C16.498 24.8535 17.6309 22.0117 19.6523 19.8926C20.0039 19.5215 20.0723 19.043 19.7695 18.7012C19.4668 18.3691 18.9395 18.3301 18.5684 18.7305C16.2441 21.1523 14.9062 24.4238 14.9062 27.9883C14.9062 31.5527 16.2441 34.8145 18.5684 37.2461C18.9395 37.6367 19.4668 37.5977 19.7695 37.2656ZM34.4082 34.668C34.7207 35.0293 35.2676 35.0293 35.6484 34.6094C37.2695 32.8516 38.1777 30.5176 38.1777 27.9883C38.1777 25.459 37.2695 23.1152 35.6484 21.3574C35.2676 20.9473 34.7207 20.9375 34.4082 21.3086C34.0957 21.6602 34.1934 22.1191 34.5449 22.5195C35.8535 23.9746 36.5859 25.8789 36.5859 27.9883C36.5859 30.0879 35.8535 32.002 34.5449 33.457C34.1934 33.8574 34.0957 34.3066 34.4082 34.668ZM22.5918 34.668C22.9043 34.3066 22.8066 33.8574 22.4551 33.457C21.1465 32.002 20.4141 30.0879 20.4141 27.9883C20.4141 25.8789 21.1465 23.9746 22.4551 22.5195C22.8066 22.1191 22.9043 21.6602 22.5918 21.3086C22.2793 20.9375 21.7324 20.9473 21.3613 21.3574C19.7305 23.1152 18.8223 25.459 18.8223 27.9883C18.8223 30.5176 19.7305 32.8516 21.3613 34.6094C21.7324 35.0293 22.2793 35.0293 22.5918 34.668ZM25.3262 31.8848C25.6387 31.5332 25.5117 31.0938 25.1992 30.6738C24.6133 29.9414 24.3301 29.0039 24.3301 27.9883C24.3301 26.9727 24.6133 26.0254 25.1992 25.3027C25.5117 24.873 25.6387 24.4434 25.3262 24.0918C25.0039 23.7207 24.418 23.7109 24.0762 24.1602C23.2266 25.2148 22.7383 26.5527 22.7383 27.9883C22.7383 29.4238 23.2266 30.7617 24.0762 31.8164C24.418 32.2559 25.0039 32.2461 25.3262 31.8848ZM31.6738 31.8848C31.9961 32.2461 32.582 32.2559 32.9238 31.8164C33.7734 30.7617 34.2715 29.4238 34.2715 27.9883C34.2715 26.5527 33.7734 25.2148 32.9238 24.1602C32.582 23.7109 31.9961 23.7207 31.6738 24.0918C31.3613 24.4434 31.498 24.873 31.8008 25.3027C32.3672 26.0449 32.6797 26.9727 32.6797 27.9883C32.6797 29.0039 32.3867 29.9414 31.8008 30.6738C31.498 31.0938 31.3613 31.5332 31.6738 31.8848ZM28.5 29.4043C29.2715 29.4043 29.9355 28.7598 29.9355 27.9688C29.9355 27.1875 29.2715 26.5332 28.5 26.5332C27.7383 26.5332 27.0645 27.1875 27.0645 27.9688C27.0645 28.7598 27.7383 29.4043 28.5 29.4043Z" fill="white"/>
</g>
<defs>
<filter id="filter0_d" x="14.4062" y="18.4409" width="28.1875" height="20.0858" filterUnits="userSpaceOnUse" color-interpolation-filters="sRGB">
<feFlood flood-opacity="0" result="BackgroundImageFix"/>
<feColorMatrix in="SourceAlpha" type="matrix" values="0 0 0 0 0 0 0 0 0 0 0 0 0 0 0 0 0 0 127 0"/>
<feOffset dy="0.5"/>
<feGaussianBlur stdDeviation="0.25"/>
<feColorMatrix type="matrix" values="0 0 0 0 0 0 0 0 0 0 0 0 0 0 0 0 0 0 0.64 0"/>
<feBlend mode="normal" in2="BackgroundImageFix" result="effect1_dropShadow"/>
<feBlend mode="normal" in="SourceGraphic" in2="effect1_dropShadow" result="shape"/>
</filter>
</defs>
</svg>
