<svg width="56" height="56" viewBox="0 0 56 56" fill="none" xmlns="http://www.w3.org/2000/svg">
<g filter="url(#filter0_b)">
<path d="M0 28C0 12.536 12.536 0 28 0C43.464 0 56 12.536 56 28C56 43.464 43.464 56 28 56C12.536 56 0 43.464 0 28Z" fill="white"/>
<path d="M36.9453 37.4805C37.3457 37.9199 38.0586 37.9492 38.5176 37.4609C40.8613 34.9707 42.1309 31.6211 42.1309 27.9883C42.1309 24.3652 40.8613 21.0059 38.5176 18.5156C38.0586 18.0273 37.3457 18.0664 36.9453 18.4961C36.5645 18.9258 36.6133 19.5313 37.0332 19.9707C39.0254 22.0605 40.0898 24.8926 40.0898 27.9883C40.0898 31.084 38.9863 33.8965 37.0332 35.9961C36.623 36.4551 36.5742 37.0508 36.9453 37.4805ZM19.0449 37.4805C19.416 37.0508 19.3672 36.4551 18.957 35.9961C17.0039 33.8965 15.9004 31.084 15.9004 27.9883C15.9004 24.8926 16.9648 22.0605 18.957 19.9707C19.377 19.5313 19.4258 18.9258 19.0449 18.4961C18.6445 18.0664 17.9316 18.0273 17.4727 18.5156C15.1289 21.0059 13.8594 24.3652 13.8594 27.9883C13.8594 31.6211 15.1289 34.9707 17.4727 37.4609C17.9316 37.9492 18.6445 37.9199 19.0449 37.4805ZM33.9961 34.6387C34.3965 35.127 35.0898 35.1855 35.6562 34.5898C37.2383 32.9297 38.0586 30.5371 38.0586 27.9883C38.0586 25.4395 37.1797 22.998 35.6562 21.3867C35.0996 20.791 34.3965 20.8594 33.9961 21.3379C33.625 21.7871 33.7422 22.334 34.1523 22.793C35.3535 24.1113 36.0176 25.9668 36.0176 27.9883C36.0176 30.0098 35.3535 31.8652 34.1523 33.1836C33.7422 33.6426 33.625 34.1895 33.9961 34.6387ZM21.9941 34.6387C22.3652 34.1895 22.2383 33.6426 21.8379 33.1836C20.6367 31.8652 19.9727 30.0098 19.9727 27.9883C19.9727 25.9668 20.6367 24.1113 21.8379 22.793C22.2383 22.334 22.3652 21.7871 21.9941 21.3379C21.5937 20.8594 20.8906 20.791 20.334 21.3867C18.8105 22.998 17.9219 25.4395 17.9219 27.9883C17.9219 30.5371 18.752 32.9297 20.334 34.5898C20.9004 35.1855 21.5937 35.127 21.9941 34.6387ZM24.8848 31.8164C25.2266 31.377 25.1094 30.8398 24.7676 30.3711C24.3281 29.7949 24.0254 28.8477 24.0254 27.9883C24.0254 27.1289 24.3281 26.1816 24.7676 25.5957C25.1094 25.127 25.2266 24.5996 24.8848 24.1602C24.5039 23.6719 23.7422 23.6426 23.2441 24.209C22.4238 25.1367 21.9844 26.5137 21.9844 27.9883C21.9844 29.4531 22.4238 30.8398 23.2441 31.7578C23.7422 32.3242 24.5039 32.2949 24.8848 31.8164ZM31.1055 31.8164C31.4863 32.2949 32.248 32.3242 32.7461 31.7578C33.5664 30.8398 34.0059 29.4531 34.0059 27.9883C34.0059 26.5137 33.5664 25.1367 32.7461 24.209C32.248 23.6426 31.4863 23.6719 31.1055 24.1602C30.7637 24.5996 30.8809 25.127 31.2227 25.5957C31.6523 26.1914 31.9648 27.1289 31.9648 27.9883C31.9648 28.8477 31.6621 29.7949 31.2227 30.3711C30.8809 30.8398 30.7637 31.377 31.1055 31.8164ZM28 29.4824C28.8301 29.4824 29.5137 28.7988 29.5137 27.959C29.5137 27.1289 28.8301 26.4355 28 26.4355C27.1699 26.4355 26.4668 27.1289 26.4668 27.9688C26.4668 28.8184 27.1699 29.4824 28 29.4824Z" fill="#1E1F20"/>
</g>
<defs>
<filter id="filter0_b" x="-4" y="-4" width="64" height="64" filterUnits="userSpaceOnUse" color-interpolation-filters="sRGB">
<feFlood flood-opacity="0" result="BackgroundImageFix"/>
<feGaussianBlur in="BackgroundImage" stdDeviation="2"/>
<feComposite in2="SourceAlpha" operator="in" result="effect1_backgroundBlur"/>
<feBlend mode="normal" in="SourceGraphic" in2="effect1_backgroundBlur" result="shape"/>
</filter>
</defs>
</svg>
