<svg width="21" height="21" viewBox="0 0 21 21" fill="none" xmlns="http://www.w3.org/2000/svg">
<path fill-rule="evenodd" clip-rule="evenodd" d="M0 10.5158C0 4.98448 4.4205 0 10.521 0C16.485 0 21 4.88983 21 10.4842C21 16.9725 15.708 21 10.5 21C8.778 21 6.867 20.5373 5.334 19.6329C4.7985 19.307 4.347 19.0651 3.7695 19.2544L1.6485 19.8853C1.113 20.0536 0.63 19.6329 0.7875 19.0651L1.491 16.7096C1.6065 16.3836 1.5855 16.0366 1.4175 15.7631C0.5145 14.1017 0 12.2824 0 10.5158ZM9.13522 10.5147C9.13522 11.2613 9.73372 11.8607 10.4792 11.8712C11.2247 11.8712 11.8232 11.2613 11.8232 10.5252C11.8232 9.77858 11.2247 9.17918 10.4792 9.17918C9.74422 9.16867 9.13522 9.77858 9.13522 10.5147ZM13.9755 10.5253C13.9755 11.2614 14.574 11.8713 15.3195 11.8713C16.065 11.8713 16.6635 11.2614 16.6635 10.5253C16.6635 9.77866 16.065 9.17926 15.3195 9.17926C14.574 9.17926 13.9755 9.77866 13.9755 10.5253ZM5.6386 11.8724C4.9036 11.8724 4.2946 11.2625 4.2946 10.5264C4.2946 9.77977 4.8931 9.18037 5.6386 9.18037C6.3841 9.18037 6.9826 9.77977 6.9826 10.5264C6.9826 11.2625 6.3841 11.8619 5.6386 11.8724Z" fill="white"/>
</svg>
