<svg width="40" height="58" viewBox="0 0 40 58" fill="none" xmlns="http://www.w3.org/2000/svg">
<g filter="url(#filter0_b)">
<path d="M0 20C0 8.95431 8.95431 0 20 0C31.0457 0 40 8.95431 40 20C40 31.0457 31.0457 40 20 40C8.95431 40 0 31.0457 0 20Z" fill="black" fill-opacity="0.24"/>
<path d="M20.6797 27.5234C21.0625 27.5234 21.3594 27.3516 21.7578 27.0156L27.9219 21.1953C28.2109 20.9063 28.3203 20.6172 28.3203 20.3594C28.3203 20.0938 28.2109 19.8047 27.9219 19.5156L21.7578 13.75C21.3125 13.3828 21.0781 13.1875 20.6953 13.1875C20.1562 13.1875 19.7656 13.625 19.7656 14.1484V17.1016H19.5391C13.9219 17.1016 11.4766 20.7031 11.4766 26.4766C11.4766 27.1484 11.8594 27.5234 12.2734 27.5234C12.6094 27.5234 12.9687 27.4453 13.2344 26.9453C14.6016 24.3906 16.5156 23.625 19.5391 23.625H19.7656V26.6094C19.7656 27.1328 20.1562 27.5234 20.6797 27.5234Z" fill="white"/>
<g filter="url(#filter1_d)">
<path d="M16.6162 56H17.7925V48.2495H16.6055L14.5645 49.6997V50.8384L16.5894 49.4419H16.6162V56ZM22.519 56.145C24.3828 56.145 25.4785 54.582 25.4785 52.1113C25.4785 49.6567 24.3721 48.1045 22.519 48.1045C20.666 48.1045 19.5488 49.6621 19.5488 52.1167C19.5488 54.5874 20.6499 56.145 22.519 56.145ZM22.519 55.1353C21.3965 55.1353 20.7681 53.9912 20.7681 52.1167C20.7681 50.269 21.4126 49.1143 22.519 49.1143C23.6255 49.1143 24.2646 50.2637 24.2646 52.1167C24.2646 53.9966 23.6362 55.1353 22.519 55.1353Z" fill="white"/>
</g>
</g>
<defs>
<filter id="filter0_b" x="-16" y="-16" width="72" height="72" filterUnits="userSpaceOnUse" color-interpolation-filters="sRGB">
<feFlood flood-opacity="0" result="BackgroundImageFix"/>
<feGaussianBlur in="BackgroundImage" stdDeviation="8"/>
<feComposite in2="SourceAlpha" operator="in" result="effect1_backgroundBlur"/>
<feBlend mode="normal" in="SourceGraphic" in2="effect1_backgroundBlur" result="shape"/>
</filter>
<filter id="filter1_d" x="14.0645" y="48.1045" width="11.9141" height="9.04053" filterUnits="userSpaceOnUse" color-interpolation-filters="sRGB">
<feFlood flood-opacity="0" result="BackgroundImageFix"/>
<feColorMatrix in="SourceAlpha" type="matrix" values="0 0 0 0 0 0 0 0 0 0 0 0 0 0 0 0 0 0 127 0"/>
<feOffset dy="0.5"/>
<feGaussianBlur stdDeviation="0.25"/>
<feColorMatrix type="matrix" values="0 0 0 0 0 0 0 0 0 0 0 0 0 0 0 0 0 0 0.64 0"/>
<feBlend mode="normal" in2="BackgroundImageFix" result="effect1_dropShadow"/>
<feBlend mode="normal" in="SourceGraphic" in2="effect1_dropShadow" result="shape"/>
</filter>
</defs>
</svg>
