<svg width="26" height="20" viewBox="0 0 26 20" fill="none" xmlns="http://www.w3.org/2000/svg">
<path d="M4.33306 6.66563H4.33672L6.34969 5.85898C6.39308 5.83514 6.42953 5.80117 6.45566 5.76021C6.48179 5.71924 6.49676 5.67261 6.49919 5.62461C6.49687 5.57658 6.48195 5.52991 6.4558 5.48892C6.42966 5.44794 6.39316 5.41399 6.34969 5.39023L4.33591 4.58281H4.33306L3.49375 2.64375C3.4713 2.60047 3.43676 2.56407 3.39399 2.53862C3.35122 2.51318 3.30192 2.4997 3.25162 2.4997C3.20133 2.4997 3.15203 2.51318 3.10926 2.53862C3.06649 2.56407 3.03195 2.60047 3.0095 2.64375L2.16856 4.58242H2.16653L0.150312 5.39062C0.106692 5.41428 0.0700235 5.44819 0.0437361 5.48918C0.0174488 5.53017 0.00240102 5.5769 0 5.625H0C0.00242899 5.673 0.0174 5.71964 0.0435299 5.7606C0.0696597 5.80156 0.106106 5.83554 0.1495 5.85938L2.16409 6.66406H2.16694L3.00625 8.60391C3.02859 8.6473 3.06309 8.68383 3.10588 8.70937C3.14866 8.73491 3.19802 8.74845 3.24837 8.74845C3.29873 8.74845 3.34809 8.73491 3.39087 8.70937C3.43366 8.68383 3.46816 8.6473 3.4905 8.60391L4.33103 6.66563H4.33306ZM19.1498 18.2582L19.1092 18.2418L19.0686 18.2223C18.808 18.0967 18.5889 17.9039 18.4358 17.6654C18.2827 17.4269 18.2016 17.1521 18.2016 16.8719C18.2016 16.5916 18.2827 16.3169 18.4358 16.0784C18.5889 15.8399 18.808 15.6471 19.0686 15.5215L19.1092 15.5023L19.1498 15.4855L20.6728 14.875L21.3078 13.4109L21.3245 13.3719L21.3436 13.3348C21.5 13.0324 21.7734 12.8023 22.089 12.6574C22.089 12.6055 22.0992 12.5523 22.1 12.5012V5.625C22.1 5.29348 21.963 4.97554 21.7192 4.74112C21.4754 4.5067 21.1448 4.375 20.8 4.375C20.4552 4.375 20.1246 4.5067 19.8808 4.74112C19.637 4.97554 19.5 5.29348 19.5 5.625V8.4375C19.5 8.52038 19.4658 8.59987 19.4048 8.65847C19.3439 8.71708 19.2612 8.75 19.175 8.75H18.525C18.4388 8.75 18.3561 8.71708 18.2952 8.65847C18.2342 8.59987 18.2 8.52038 18.2 8.4375V2.5C18.2 2.16848 18.063 1.85054 17.8192 1.61612C17.5754 1.3817 17.2448 1.25 16.9 1.25C16.5552 1.25 16.2246 1.3817 15.9808 1.61612C15.737 1.85054 15.6 2.16848 15.6 2.5V8.4375C15.6 8.52038 15.5658 8.59987 15.5048 8.65847C15.4439 8.71708 15.3612 8.75 15.275 8.75H14.625C14.5388 8.75 14.4561 8.71708 14.3952 8.65847C14.3342 8.59987 14.3 8.52038 14.3 8.4375V1.25C14.3 0.918479 14.163 0.600537 13.9192 0.366117C13.6754 0.131696 13.3448 0 13 0C12.6552 0 12.3246 0.131696 12.0808 0.366117C11.837 0.600537 11.7 0.918479 11.7 1.25V8.4375C11.7 8.52038 11.6658 8.59987 11.6048 8.65847C11.5439 8.71708 11.4612 8.75 11.375 8.75H10.725C10.6388 8.75 10.5561 8.71708 10.4952 8.65847C10.4342 8.59987 10.4 8.52038 10.4 8.4375V2.5C10.4 2.16848 10.263 1.85054 10.0192 1.61612C9.77544 1.3817 9.44478 1.25 9.1 1.25C8.75522 1.25 8.42456 1.3817 8.18076 1.61612C7.93696 1.85054 7.8 2.16848 7.8 2.5V11.9141L6.84166 10.6449C6.58797 10.3097 6.2062 10.0852 5.78031 10.0206C5.35443 9.95608 4.91932 10.0569 4.57072 10.3008C4.22211 10.5447 3.98856 10.9118 3.92144 11.3213C3.85432 11.7308 3.95913 12.1492 4.21281 12.4844L9.31531 19.227C9.49616 19.466 9.73314 19.6606 10.007 19.7949C10.2808 19.9292 10.5837 19.9995 10.8912 20H18.9191C19.7007 20 20.3673 19.5418 20.6757 18.8754L20.6728 18.8687L19.1498 18.2582ZM14.2102 13.2625L13 13.7473L12.4954 14.9105C12.4819 14.9364 12.4612 14.9582 12.4355 14.9734C12.4099 14.9887 12.3803 14.9967 12.3502 14.9967C12.3201 14.9967 12.2905 14.9887 12.2649 14.9734C12.2392 14.9582 12.2185 14.9364 12.205 14.9105L11.7 13.7473L10.4898 13.2625C10.4627 13.2495 10.44 13.2296 10.4241 13.2049C10.4082 13.1802 10.3998 13.1517 10.3998 13.1227C10.3998 13.0936 10.4082 13.0651 10.4241 13.0404C10.44 13.0157 10.4627 12.9958 10.4898 12.9828L11.7 12.4977L12.2046 11.3344C12.2181 11.3085 12.2388 11.2867 12.2645 11.2715C12.2901 11.2563 12.3197 11.2482 12.3498 11.2482C12.3799 11.2482 12.4095 11.2563 12.4351 11.2715C12.4608 11.2867 12.4815 11.3085 12.495 11.3344L13 12.4977L14.2102 12.9828C14.2373 12.9958 14.26 13.0157 14.2759 13.0404C14.2918 13.0651 14.3002 13.0936 14.3002 13.1227C14.3002 13.1517 14.2918 13.1802 14.2759 13.2049C14.26 13.2296 14.2373 13.2495 14.2102 13.2625ZM26 16.8715C25.9977 16.8235 25.9828 16.7768 25.9567 16.7358C25.9305 16.6948 25.894 16.6608 25.8505 16.6371L23.8367 15.8297H23.8339L22.9937 13.8918C22.9713 13.8485 22.9368 13.8121 22.894 13.7867C22.8512 13.7612 22.8019 13.7477 22.7516 13.7477C22.7013 13.7477 22.652 13.7612 22.6093 13.7867C22.5665 13.8121 22.5319 13.8485 22.5095 13.8918L21.6686 15.8305H21.6665L19.6503 16.6406C19.6068 16.6644 19.5703 16.6983 19.5441 16.7393C19.518 16.7803 19.5031 16.827 19.5008 16.875C19.5035 16.9227 19.5185 16.969 19.5447 17.0096C19.5708 17.0502 19.6071 17.0838 19.6503 17.1074L21.6641 17.9148H21.6669L22.5062 19.852C22.5286 19.8953 22.5631 19.9319 22.6059 19.9574C22.6487 19.983 22.698 19.9965 22.7484 19.9965C22.7987 19.9965 22.8481 19.983 22.8909 19.9574C22.9337 19.9319 22.9682 19.8953 22.9905 19.852L23.831 17.9137H23.8347L25.8477 17.1066C25.8908 17.0831 25.9272 17.0494 25.9533 17.0088C25.9794 16.9682 25.9945 16.9219 25.9972 16.8742L26 16.8715Z" fill="white"/>
</svg>
