<svg width="22" height="17" viewBox="0 0 22 17" fill="none" xmlns="http://www.w3.org/2000/svg">
<path d="M3.66644 5.66578H3.66953L5.37281 4.98014C5.40953 4.95987 5.44037 4.931 5.46248 4.89618C5.48459 4.86136 5.49726 4.82172 5.49931 4.78092C5.49735 4.7401 5.48472 4.70042 5.4626 4.66559C5.44048 4.63075 5.40959 4.60189 5.37281 4.5817L3.66884 3.89539H3.66644L2.95625 2.24719C2.93726 2.2104 2.90803 2.17946 2.87184 2.15783C2.83565 2.1362 2.79393 2.12474 2.75138 2.12474C2.70882 2.12474 2.6671 2.1362 2.63091 2.15783C2.59472 2.17946 2.56549 2.2104 2.5465 2.24719L1.83494 3.89506H1.83322L0.127188 4.58203C0.0902777 4.60214 0.0592507 4.63096 0.0370075 4.6658C0.0147643 4.70064 0.00203164 4.74037 0 4.78125H0C0.0020553 4.82205 0.0147231 4.86169 0.036833 4.89651C0.0589429 4.93133 0.0897816 4.96021 0.1265 4.98047L1.83116 5.66445H1.83356L2.54375 7.31332C2.56265 7.35021 2.59185 7.38126 2.62805 7.40297C2.66425 7.42468 2.70601 7.43618 2.74863 7.43618C2.79124 7.43618 2.833 7.42468 2.8692 7.40297C2.9054 7.38126 2.9346 7.35021 2.9535 7.31332L3.66472 5.66578H3.66644ZM16.2037 15.5195L16.1693 15.5055L16.1349 15.4889C15.9145 15.3822 15.7291 15.2183 15.5995 15.0156C15.4699 14.8129 15.4013 14.5793 15.4013 14.3411C15.4013 14.1029 15.4699 13.8693 15.5995 13.6666C15.7291 13.4639 15.9145 13.3 16.1349 13.1933L16.1693 13.177L16.2037 13.1627L17.4924 12.6437L18.0297 11.3993L18.0438 11.3661L18.0599 11.3346C18.1923 11.0776 18.4236 10.882 18.6907 10.7588C18.6907 10.7146 18.6993 10.6695 18.7 10.626V4.78125C18.7 4.49946 18.5841 4.22921 18.3778 4.02995C18.1715 3.83069 17.8917 3.71875 17.6 3.71875C17.3083 3.71875 17.0285 3.83069 16.8222 4.02995C16.6159 4.22921 16.5 4.49946 16.5 4.78125V7.17188C16.5 7.24232 16.471 7.30989 16.4195 7.3597C16.3679 7.40951 16.2979 7.4375 16.225 7.4375H15.675C15.6021 7.4375 15.5321 7.40951 15.4805 7.3597C15.429 7.30989 15.4 7.24232 15.4 7.17188V2.125C15.4 1.84321 15.2841 1.57296 15.0778 1.3737C14.8715 1.17444 14.5917 1.0625 14.3 1.0625C14.0083 1.0625 13.7285 1.17444 13.5222 1.3737C13.3159 1.57296 13.2 1.84321 13.2 2.125V7.17188C13.2 7.24232 13.171 7.30989 13.1195 7.3597C13.0679 7.40951 12.9979 7.4375 12.925 7.4375H12.375C12.3021 7.4375 12.2321 7.40951 12.1805 7.3597C12.129 7.30989 12.1 7.24232 12.1 7.17188V1.0625C12.1 0.780707 11.9841 0.510456 11.7778 0.311199C11.5715 0.111942 11.2917 0 11 0C10.7083 0 10.4285 0.111942 10.2222 0.311199C10.0159 0.510456 9.9 0.780707 9.9 1.0625V7.17188C9.9 7.24232 9.87103 7.30989 9.81946 7.3597C9.76788 7.40951 9.69794 7.4375 9.625 7.4375H9.075C9.00207 7.4375 8.93212 7.40951 8.88055 7.3597C8.82897 7.30989 8.8 7.24232 8.8 7.17188V2.125C8.8 1.84321 8.68411 1.57296 8.47782 1.3737C8.27153 1.17444 7.99174 1.0625 7.7 1.0625C7.40826 1.0625 7.12847 1.17444 6.92218 1.3737C6.71589 1.57296 6.6 1.84321 6.6 2.125V10.127L5.78909 9.04818C5.57444 8.76327 5.2514 8.57238 4.89103 8.51752C4.53067 8.46266 4.16251 8.54833 3.86753 8.75566C3.57256 8.963 3.37494 9.27503 3.31814 9.62311C3.26135 9.97119 3.35003 10.3268 3.56469 10.6117L7.88219 16.3429C8.03522 16.5461 8.23574 16.7115 8.46744 16.8257C8.69914 16.9398 8.95548 16.9996 9.21559 17H16.0084C16.6698 17 17.2339 16.6105 17.4948 16.0441L17.4924 16.0384L16.2037 15.5195ZM12.024 11.2731L11 11.6852L10.5731 12.674C10.5616 12.696 10.5441 12.7145 10.5224 12.7274C10.5007 12.7404 10.4757 12.7472 10.4502 12.7472C10.4247 12.7472 10.3997 12.7404 10.378 12.7274C10.3563 12.7145 10.3387 12.696 10.3273 12.674L9.9 11.6852L8.87597 11.2731C8.85309 11.2621 8.83384 11.2452 8.82038 11.2242C8.80693 11.2032 8.7998 11.179 8.7998 11.1543C8.7998 11.1296 8.80693 11.1054 8.82038 11.0844C8.83384 11.0634 8.85309 11.0464 8.87597 11.0354L9.9 10.623L10.3269 9.63422C10.3384 9.61221 10.3559 9.5937 10.3776 9.58076C10.3993 9.56783 10.4243 9.56098 10.4498 9.56098C10.4753 9.56098 10.5003 9.56783 10.522 9.58076C10.5437 9.5937 10.5613 9.61221 10.5727 9.63422L11 10.623L12.024 11.0354C12.0469 11.0464 12.0662 11.0634 12.0796 11.0844C12.0931 11.1054 12.1002 11.1296 12.1002 11.1543C12.1002 11.179 12.0931 11.2032 12.0796 11.2242C12.0662 11.2452 12.0469 11.2621 12.024 11.2731ZM22 14.3408C21.9981 14.2999 21.9855 14.2602 21.9633 14.2254C21.9412 14.1906 21.9103 14.1617 21.8735 14.1415L20.1695 13.4552H20.1671L19.4563 11.808C19.4373 11.7712 19.408 11.7403 19.3718 11.7187C19.3356 11.697 19.2939 11.6856 19.2514 11.6856C19.2088 11.6856 19.1671 11.697 19.1309 11.7187C19.0947 11.7403 19.0655 11.7712 19.0465 11.808L18.3349 13.4559H18.3332L16.6272 14.1445C16.5904 14.1647 16.5595 14.1936 16.5374 14.2284C16.5152 14.2632 16.5026 14.3029 16.5007 14.3438C16.5029 14.3843 16.5157 14.4236 16.5378 14.4581C16.5599 14.4927 16.5906 14.5213 16.6272 14.5413L18.3312 15.2276H18.3336L19.0438 16.8742C19.0627 16.911 19.0919 16.9421 19.1281 16.9638C19.1643 16.9855 19.206 16.997 19.2486 16.997C19.2912 16.997 19.333 16.9855 19.3692 16.9638C19.4054 16.9421 19.4346 16.911 19.4535 16.8742L20.1647 15.2266H20.1678L21.8711 14.5406C21.9076 14.5206 21.9384 14.492 21.9605 14.4575C21.9826 14.423 21.9953 14.3836 21.9976 14.3431L22 14.3408Z" fill="#E2E2E2"/>
</svg>
