<svg width="40" height="58" viewBox="0 0 40 58" fill="none" xmlns="http://www.w3.org/2000/svg">
<g filter="url(#filter0_b)">
<path d="M0 20C0 8.95431 8.95431 0 20 0C31.0457 0 40 8.95431 40 20C40 31.0457 31.0457 40 20 40C8.95431 40 0 31.0457 0 20Z" fill="black" fill-opacity="0.24"/>
<g filter="url(#filter1_d)">
<path d="M9.06982 56V48.2495H7.8667V56H9.06982ZM10.3589 56H11.519V52.7075C11.519 51.832 12.0454 51.252 12.8618 51.252C13.6675 51.252 14.0649 51.7192 14.0649 52.5679V56H15.2305V52.3423C15.2305 51.0479 14.5161 50.2529 13.27 50.2529C12.3999 50.2529 11.7983 50.6504 11.4922 51.2949H11.4653V50.3496H10.3589V56ZM21.1655 50.3496H19.9517L18.5337 54.8667H18.5122L17.0942 50.3496H15.8589L17.8945 56H19.1406L21.1655 50.3496ZM22.4492 49.4365C22.8198 49.4365 23.1152 49.1357 23.1152 48.7705C23.1152 48.3999 22.8198 48.1045 22.4492 48.1045C22.0786 48.1045 21.7778 48.3999 21.7778 48.7705C21.7778 49.1357 22.0786 49.4365 22.4492 49.4365ZM21.8691 56H23.0293V50.3496H21.8691V56ZM24.5547 49.0122V50.3496H23.7329V51.2681H24.5547V54.5122C24.5547 55.6025 25.0005 56.0376 26.1445 56.0376C26.4023 56.0376 26.6602 56.0161 26.7891 55.9839V55.0654C26.7139 55.0815 26.5259 55.0923 26.4077 55.0923C25.9351 55.0923 25.7202 54.8721 25.7202 54.3833V51.2681H26.7944V50.3496H25.7202V49.0122H24.5547ZM31.3545 54.3403C31.1987 54.8345 30.71 55.1675 30.0493 55.1675C29.1201 55.1675 28.5293 54.5176 28.5293 53.5347V53.4648H32.52V53.0674C32.52 51.354 31.5425 50.2476 29.9741 50.2476C28.3789 50.2476 27.3584 51.4292 27.3584 53.2017C27.3584 54.9849 28.3628 56.1074 30.0225 56.1074C31.3169 56.1074 32.2944 55.3716 32.4556 54.3403H31.3545ZM29.9741 51.1821C30.7852 51.1821 31.333 51.7891 31.3599 52.6538H28.5347C28.5938 51.7998 29.1631 51.1821 29.9741 51.1821Z" fill="white"/>
</g>
<path d="M21.625 20.2813C23.3047 20.2813 24.75 18.7813 24.75 16.8281C24.75 14.8984 23.2969 13.4688 21.625 13.4688C19.9609 13.4688 18.5 14.9297 18.5078 16.8438C18.5078 18.7813 19.9531 20.2813 21.625 20.2813ZM21.625 21.6797C20.2891 21.6797 19.125 21.9922 18.1797 22.4766C19.3047 23.3984 20.0234 24.7969 20.0234 26.3594C20.0234 26.75 19.9766 27.1484 19.8828 27.5156H26.5312C27.7578 27.5156 28.1953 27.1641 28.1953 26.4766C28.1953 24.4609 25.6719 21.6797 21.625 21.6797ZM14.9766 30.3281C17.1328 30.3281 18.9453 28.5234 18.9453 26.3594C18.9453 24.1797 17.1562 22.3906 14.9766 22.3906C12.8047 22.3906 11.0078 24.1797 11.0078 26.3594C11.0078 28.5391 12.8047 30.3281 14.9766 30.3281ZM14.9844 28.9375C14.7109 28.9375 14.4687 28.75 14.4687 28.4531L14.4687 26.8359H12.9766C12.7109 26.8359 12.4922 26.6172 12.4922 26.3594C12.4922 26.0938 12.7109 25.875 12.9766 25.875H14.4687V24.2578C14.4687 23.9609 14.7109 23.7813 14.9844 23.7813C15.25 23.7813 15.4922 23.9609 15.4922 24.2578V25.875H16.9844C17.25 25.875 17.4609 26.0938 17.4609 26.3594C17.4609 26.6172 17.25 26.8359 16.9844 26.8359H15.4922L15.4922 28.4531C15.4922 28.75 15.25 28.9375 14.9844 28.9375Z" fill="white"/>
</g>
<defs>
<filter id="filter0_b" x="-16" y="-16" width="72" height="72" filterUnits="userSpaceOnUse" color-interpolation-filters="sRGB">
<feFlood flood-opacity="0" result="BackgroundImageFix"/>
<feGaussianBlur in="BackgroundImage" stdDeviation="8"/>
<feComposite in2="SourceAlpha" operator="in" result="effect1_backgroundBlur"/>
<feBlend mode="normal" in="SourceGraphic" in2="effect1_backgroundBlur" result="shape"/>
</filter>
<filter id="filter1_d" x="7.36719" y="48.1045" width="25.6533" height="9.00293" filterUnits="userSpaceOnUse" color-interpolation-filters="sRGB">
<feFlood flood-opacity="0" result="BackgroundImageFix"/>
<feColorMatrix in="SourceAlpha" type="matrix" values="0 0 0 0 0 0 0 0 0 0 0 0 0 0 0 0 0 0 127 0"/>
<feOffset dy="0.5"/>
<feGaussianBlur stdDeviation="0.25"/>
<feColorMatrix type="matrix" values="0 0 0 0 0 0 0 0 0 0 0 0 0 0 0 0 0 0 0.64 0"/>
<feBlend mode="normal" in2="BackgroundImageFix" result="effect1_dropShadow"/>
<feBlend mode="normal" in="SourceGraphic" in2="effect1_dropShadow" result="shape"/>
</filter>
</defs>
</svg>
