<svg width="40" height="40" viewBox="0 0 40 40" fill="none" xmlns="http://www.w3.org/2000/svg">
<g filter="url(#filter0_b)">
<path d="M0 20C0 8.95431 8.95431 0 20 0C31.0457 0 40 8.95431 40 20C40 31.0457 31.0457 40 20 40C8.95431 40 0 31.0457 0 20Z" fill="black" fill-opacity="0.24"/>
<path d="M20 11.5234C18.4688 11.5234 17.4297 12.6406 17.3906 14.2656V14.5781L22.5859 19.7656C22.6016 19.7109 22.6094 19.6406 22.6094 19.5781V14.3516C22.6094 12.6797 21.5625 11.5234 20 11.5234ZM25.7422 25.9375C25.9766 26.1719 26.3594 26.1719 26.5938 25.9375C26.8203 25.6953 26.8281 25.3203 26.5938 25.0859L14.5078 13.0078C14.2734 12.7812 13.8828 12.7734 13.6484 13.0078C13.4219 13.2422 13.4219 13.6328 13.6484 13.8594L25.7422 25.9375ZM14.4141 19.7031C14.4141 22.7656 16.4297 24.9141 19.4141 25.1641V26.9844H16.5078C16.1797 26.9844 15.9219 27.25 15.9219 27.5781C15.9219 27.9062 16.1797 28.1641 16.5078 28.1641H23.4922C23.8203 28.1641 24.0781 27.9062 24.0781 27.5781C24.0781 27.25 23.8203 26.9844 23.4922 26.9844H20.5938V25.1641C21.4688 25.0938 22.2656 24.8594 22.9375 24.4766L22.1016 23.6328C21.5078 23.9219 20.7969 24.0859 20 24.0859C17.3281 24.0859 15.5938 22.3203 15.5938 19.6562V18.1172C15.5938 17.7891 15.3281 17.5312 15 17.5312C14.6719 17.5312 14.4141 17.7891 14.4141 18.1172V19.7031ZM24.1406 21.3125L25.0547 22.2266C25.3984 21.4922 25.5938 20.6406 25.5938 19.7031V18.1172C25.5938 17.7891 25.3281 17.5312 25 17.5312C24.6719 17.5312 24.4141 17.7891 24.4141 18.1172V19.6562C24.4141 20.2578 24.3203 20.8125 24.1406 21.3125ZM20 22.4062C20.2734 22.4062 20.5312 22.3672 20.7578 22.2812L17.3906 18.9219V19.5781C17.3906 21.2422 18.4453 22.4062 20 22.4062Z" fill="white"/>
</g>
<defs>
<filter id="filter0_b" x="-16" y="-16" width="72" height="72" filterUnits="userSpaceOnUse" color-interpolation-filters="sRGB">
<feFlood flood-opacity="0" result="BackgroundImageFix"/>
<feGaussianBlur in="BackgroundImage" stdDeviation="8"/>
<feComposite in2="SourceAlpha" operator="in" result="effect1_backgroundBlur"/>
<feBlend mode="normal" in="SourceGraphic" in2="effect1_backgroundBlur" result="shape"/>
</filter>
</defs>
</svg>
