<svg width="40" height="40" viewBox="0 0 40 40" fill="none" xmlns="http://www.w3.org/2000/svg">
<g filter="url(#filter0_b)">
<path d="M0 20C0 8.95431 8.95431 0 20 0V0C31.0457 0 40 8.95431 40 20V20C40 31.0457 31.0457 40 20 40V40C8.95431 40 0 31.0457 0 20V20Z" fill="black" fill-opacity="0.24"/>
<path d="M24.0781 20.2812C25.75 20.2812 27.1953 18.7812 27.1953 16.8281C27.1953 14.8984 25.7422 13.4688 24.0781 13.4688C22.4062 13.4688 20.9453 14.9297 20.9531 16.8438C20.9531 18.7812 22.3984 20.2812 24.0781 20.2812ZM15.0781 20.4609C16.5391 20.4609 17.7969 19.1484 17.7969 17.4531C17.7969 15.7734 16.5312 14.5312 15.0781 14.5312C13.6328 14.5312 12.3516 15.8047 12.3594 17.4688C12.3594 19.1484 13.625 20.4609 15.0781 20.4609ZM10.7266 27.5156H16.6562C15.8438 26.3359 16.8359 23.9609 18.5234 22.6641C17.6484 22.0859 16.5312 21.6562 15.0781 21.6562C11.5547 21.6562 9.35156 24.2578 9.35156 26.4219C9.35156 27.125 9.73438 27.5156 10.7266 27.5156ZM19.1641 27.5156H28.9766C30.2109 27.5156 30.6484 27.1641 30.6484 26.4766C30.6484 24.4609 28.125 21.6797 24.0703 21.6797C20.0234 21.6797 17.5 24.4609 17.5 26.4766C17.5 27.1641 17.9375 27.5156 19.1641 27.5156Z" fill="white"/>
</g>
<defs>
<filter id="filter0_b" x="-16" y="-16" width="72" height="72" filterUnits="userSpaceOnUse" color-interpolation-filters="sRGB">
<feFlood flood-opacity="0" result="BackgroundImageFix"/>
<feGaussianBlur in="BackgroundImage" stdDeviation="8"/>
<feComposite in2="SourceAlpha" operator="in" result="effect1_backgroundBlur"/>
<feBlend mode="normal" in="SourceGraphic" in2="effect1_backgroundBlur" result="shape"/>
</filter>
</defs>
</svg>
