<svg width="22" height="16" viewBox="0 0 22 16" fill="none" xmlns="http://www.w3.org/2000/svg">
<path d="M6.9 7.875C9.12453 7.875 10.925 6.11367 10.925 3.9375C10.925 1.76133 9.12453 0 6.9 0C4.67547 0 2.875 1.76133 2.875 3.9375C2.875 6.11367 4.67547 7.875 6.9 7.875ZM9.66 9H9.36172C8.61422 9.35156 7.78406 9.5625 6.9 9.5625C6.01594 9.5625 5.18937 9.35156 4.43828 9H4.14C1.85437 9 0 10.8141 0 13.05V14.0625C0 14.9941 0.772656 15.75 1.725 15.75H12.075C13.0273 15.75 13.8 14.9941 13.8 14.0625V13.05C13.8 10.8141 11.9456 9 9.66 9ZM17.25 7.875C19.1547 7.875 20.7 6.36328 20.7 4.5C20.7 2.63672 19.1547 1.125 17.25 1.125C15.3453 1.125 13.8 2.63672 13.8 4.5C13.8 6.36328 15.3453 7.875 17.25 7.875ZM18.975 9H18.8384C18.3389 9.16875 17.8106 9.28125 17.25 9.28125C16.6894 9.28125 16.1611 9.16875 15.6616 9H15.525C14.7919 9 14.1162 9.20742 13.5233 9.54141C14.4002 10.466 14.95 11.693 14.95 13.05V14.4C14.95 14.4773 14.932 14.5512 14.9284 14.625H21.275C22.2273 14.625 23 13.8691 23 12.9375C23 10.7613 21.1995 9 18.975 9Z" fill="#E2E2E2"/>
</svg>
