<svg width="40" height="59" viewBox="0 0 40 59" fill="none" xmlns="http://www.w3.org/2000/svg">
<g filter="url(#filter0_b)">
<path d="M0 20C0 8.95431 8.95431 0 20 0C31.0457 0 40 8.95431 40 20C40 31.0457 31.0457 40 20 40C8.95431 40 0 31.0457 0 20Z" fill="black" fill-opacity="0.24"/>
<path d="M24.0781 20.2812C25.75 20.2812 27.1953 18.7812 27.1953 16.8281C27.1953 14.8984 25.7422 13.4688 24.0781 13.4688C22.4062 13.4688 20.9453 14.9297 20.9531 16.8438C20.9531 18.7812 22.3984 20.2812 24.0781 20.2812ZM15.0781 20.4609C16.5391 20.4609 17.7969 19.1484 17.7969 17.4531C17.7969 15.7734 16.5312 14.5312 15.0781 14.5312C13.6328 14.5312 12.3516 15.8047 12.3594 17.4688C12.3594 19.1484 13.625 20.4609 15.0781 20.4609ZM10.7266 27.5156H16.6562C15.8438 26.3359 16.8359 23.9609 18.5234 22.6641C17.6484 22.0859 16.5312 21.6562 15.0781 21.6562C11.5547 21.6562 9.35156 24.2578 9.35156 26.4219C9.35156 27.125 9.73438 27.5156 10.7266 27.5156ZM19.1641 27.5156H28.9766C30.2109 27.5156 30.6484 27.1641 30.6484 26.4766C30.6484 24.4609 28.125 21.6797 24.0703 21.6797C20.0234 21.6797 17.5 24.4609 17.5 26.4766C17.5 27.1641 17.9375 27.5156 19.1641 27.5156Z" fill="white"/>
<g filter="url(#filter1_d)">
<path d="M11.562 56H12.7383V48.2495H11.5513L9.51025 49.6997V50.8384L11.5352 49.4419H11.562V56ZM17.4004 56.145C19.0762 56.145 20.2471 55.0439 20.2471 53.4595C20.2471 51.9771 19.1782 50.9028 17.6958 50.9028C16.9331 50.9028 16.2886 51.1982 15.9395 51.7192H15.9126L16.1489 49.2646H19.7959V48.2495H15.1768L14.7954 52.7183H15.8481C16.1758 52.1489 16.729 51.8535 17.4219 51.8535C18.3887 51.8535 19.0708 52.5356 19.0708 53.4917C19.0708 54.4585 18.394 55.1406 17.4111 55.1406C16.5464 55.1406 15.8911 54.6143 15.8052 53.8462H14.6558C14.7256 55.1997 15.8535 56.145 17.4004 56.145ZM21.6543 57.6543L24.4043 48.2495H23.373L20.623 57.6543H21.6543ZM27.7773 56.145C29.4531 56.145 30.624 55.0439 30.624 53.4595C30.624 51.9771 29.5552 50.9028 28.0728 50.9028C27.3101 50.9028 26.6655 51.1982 26.3164 51.7192H26.2896L26.5259 49.2646H30.1729V48.2495H25.5537L25.1724 52.7183H26.2251C26.5527 52.1489 27.106 51.8535 27.7988 51.8535C28.7656 51.8535 29.4478 52.5356 29.4478 53.4917C29.4478 54.4585 28.771 55.1406 27.7881 55.1406C26.9233 55.1406 26.2681 54.6143 26.1821 53.8462H25.0327C25.1025 55.1997 26.2305 56.145 27.7773 56.145Z" fill="white"/>
</g>
</g>
<defs>
<filter id="filter0_b" x="-16" y="-16" width="72" height="72" filterUnits="userSpaceOnUse" color-interpolation-filters="sRGB">
<feFlood flood-opacity="0" result="BackgroundImageFix"/>
<feGaussianBlur in="BackgroundImage" stdDeviation="8"/>
<feComposite in2="SourceAlpha" operator="in" result="effect1_backgroundBlur"/>
<feBlend mode="normal" in="SourceGraphic" in2="effect1_backgroundBlur" result="shape"/>
</filter>
<filter id="filter1_d" x="9.01025" y="48.25" width="22.1138" height="10.4048" filterUnits="userSpaceOnUse" color-interpolation-filters="sRGB">
<feFlood flood-opacity="0" result="BackgroundImageFix"/>
<feColorMatrix in="SourceAlpha" type="matrix" values="0 0 0 0 0 0 0 0 0 0 0 0 0 0 0 0 0 0 127 0"/>
<feOffset dy="0.5"/>
<feGaussianBlur stdDeviation="0.25"/>
<feColorMatrix type="matrix" values="0 0 0 0 0 0 0 0 0 0 0 0 0 0 0 0 0 0 0.64 0"/>
<feBlend mode="normal" in2="BackgroundImageFix" result="effect1_dropShadow"/>
<feBlend mode="normal" in="SourceGraphic" in2="effect1_dropShadow" result="shape"/>
</filter>
</defs>
</svg>
