<svg width="56" height="74" viewBox="0 0 56 74" fill="none" xmlns="http://www.w3.org/2000/svg">
<g filter="url(#filter0_d)">
<path d="M12.9878 69.019H14.6421L16.2212 72H17.6069L15.8721 68.8311C16.8174 68.5142 17.376 67.6655 17.376 66.6182C17.376 65.1733 16.3823 64.2495 14.7871 64.2495H11.7847V72H12.9878V69.019ZM12.9878 65.2593H14.6421C15.5713 65.2593 16.1353 65.7856 16.1353 66.6504C16.1353 67.5366 15.6035 68.0469 14.6743 68.0469H12.9878V65.2593ZM22.124 70.3403C21.9683 70.8345 21.4795 71.1675 20.8188 71.1675C19.8896 71.1675 19.2988 70.5176 19.2988 69.5347V69.4648H23.2896V69.0674C23.2896 67.354 22.312 66.2476 20.7437 66.2476C19.1484 66.2476 18.1279 67.4292 18.1279 69.2017C18.1279 70.9849 19.1323 72.1074 20.792 72.1074C22.0864 72.1074 23.064 71.3716 23.2251 70.3403H22.124ZM20.7437 67.1821C21.5547 67.1821 22.1025 67.7891 22.1294 68.6538H19.3042C19.3633 67.7998 19.9326 67.1821 20.7437 67.1821ZM29.042 68.2939C28.9399 67.1821 28.0537 66.2476 26.5981 66.2476C24.9922 66.2476 23.9395 67.3809 23.9395 69.1748C23.9395 71.001 24.9922 72.1074 26.6089 72.1074C27.9678 72.1074 28.9292 71.291 29.0527 70.0879H27.9355C27.8013 70.7432 27.334 71.1353 26.6196 71.1353C25.7173 71.1353 25.1211 70.4155 25.1211 69.1748C25.1211 67.9609 25.7119 67.2144 26.6089 67.2144C27.3662 67.2144 27.8174 67.6924 27.9355 68.2939H29.042ZM32.3022 72.1074C33.9189 72.1074 34.9824 70.9956 34.9824 69.1748C34.9824 67.3594 33.9136 66.2476 32.3022 66.2476C30.6909 66.2476 29.6221 67.3594 29.6221 69.1748C29.6221 70.9956 30.6855 72.1074 32.3022 72.1074ZM32.3022 71.1514C31.3945 71.1514 30.8037 70.4316 30.8037 69.1748C30.8037 67.9233 31.3945 67.2036 32.3022 67.2036C33.21 67.2036 33.8008 67.9233 33.8008 69.1748C33.8008 70.4316 33.2153 71.1514 32.3022 71.1514ZM35.8794 72H37.0396V68.6162C37.0396 67.8159 37.5015 67.3164 38.248 67.3164C38.4736 67.3164 38.6777 67.3433 38.769 67.3809V66.3013C38.6831 66.2852 38.5381 66.2583 38.3716 66.2583C37.7056 66.2583 37.2007 66.6504 37.0127 67.311H36.9858V66.3496H35.8794V72ZM41.3633 72.0967C42.1851 72.0967 42.8296 71.6831 43.1626 71.0386H43.1841V72H44.312V64.2495H43.1465V67.2896H43.125C42.8081 66.6665 42.1636 66.2583 41.3525 66.2583C39.9346 66.2583 38.9893 67.3916 38.9893 69.1748C38.9893 70.958 39.9346 72.0967 41.3633 72.0967ZM41.6694 67.2358C42.561 67.2358 43.1572 68.0039 43.1572 69.1748C43.1572 70.3564 42.561 71.1138 41.6694 71.1138C40.751 71.1138 40.1763 70.3672 40.1763 69.1748C40.1763 67.9878 40.751 67.2358 41.6694 67.2358Z" fill="white"/>
</g>
<g filter="url(#filter1_b)">
<path d="M0 28C0 12.536 12.536 0 28 0C43.464 0 56 12.536 56 28C56 43.464 43.464 56 28 56C12.536 56 0 43.464 0 28Z" fill="#FF3B30"/>
<path d="M28 38.3008C33.6738 38.3008 38.3418 33.6426 38.3418 27.959C38.3418 22.2754 33.6738 17.6074 27.9902 17.6074C22.3066 17.6074 17.6484 22.2754 17.6484 27.959C17.6484 33.6426 22.3164 38.3008 28 38.3008Z" fill="white"/>
</g>
<path d="M28 55C13.0883 55 1 42.9117 1 28H-1C-1 44.0163 11.9837 57 28 57V55ZM55 28C55 42.9117 42.9117 55 28 55V57C44.0163 57 57 44.0163 57 28H55ZM28 1C42.9117 1 55 13.0883 55 28H57C57 11.9837 44.0163 -1 28 -1V1ZM28 -1C11.9837 -1 -1 11.9837 -1 28H1C1 13.0883 13.0883 1 28 1V-1Z" fill="#FF3B30"/>
<defs>
<filter id="filter0_d" x="11.2852" y="64.2495" width="33.5273" height="8.85791" filterUnits="userSpaceOnUse" color-interpolation-filters="sRGB">
<feFlood flood-opacity="0" result="BackgroundImageFix"/>
<feColorMatrix in="SourceAlpha" type="matrix" values="0 0 0 0 0 0 0 0 0 0 0 0 0 0 0 0 0 0 127 0"/>
<feOffset dy="0.5"/>
<feGaussianBlur stdDeviation="0.25"/>
<feColorMatrix type="matrix" values="0 0 0 0 0 0 0 0 0 0 0 0 0 0 0 0 0 0 0.64 0"/>
<feBlend mode="normal" in2="BackgroundImageFix" result="effect1_dropShadow"/>
<feBlend mode="normal" in="SourceGraphic" in2="effect1_dropShadow" result="shape"/>
</filter>
<filter id="filter1_b" x="-4" y="-4" width="64" height="64" filterUnits="userSpaceOnUse" color-interpolation-filters="sRGB">
<feFlood flood-opacity="0" result="BackgroundImageFix"/>
<feGaussianBlur in="BackgroundImage" stdDeviation="2"/>
<feComposite in2="SourceAlpha" operator="in" result="effect1_backgroundBlur"/>
<feBlend mode="normal" in="SourceGraphic" in2="effect1_backgroundBlur" result="shape"/>
</filter>
</defs>
</svg>
