<svg width="20" height="20" viewBox="0 0 14 12" fill="none" xmlns="http://www.w3.org/2000/svg">
<path d="M12.8975 5.29234L13.895 4.28679C14.0328 4.14787 14.0328 3.92295 13.895 3.78402L13.3963 3.28125C13.2584 3.14233 13.0353 3.14233 12.8975 3.28125L11.9 4.28679L10.9025 3.28125C10.7647 3.14233 10.5416 3.14233 10.4038 3.28125L9.905 3.78402C9.76719 3.92295 9.76719 4.14787 9.905 4.28679L10.9025 5.29234L9.905 6.29788C9.76719 6.43681 9.76719 6.66173 9.905 6.80065L10.4038 7.30343C10.5416 7.44235 10.7647 7.44235 10.9025 7.30343L11.9 6.29788L12.8975 7.30343C13.0353 7.44235 13.2584 7.44235 13.3963 7.30343L13.895 6.80065C14.0328 6.66173 14.0328 6.43681 13.895 6.29788L12.8975 5.29234ZM4.9 5.64516C6.44656 5.64516 7.7 4.38161 7.7 2.82258C7.7 1.26355 6.44656 0 4.9 0C3.35344 0 2.1 1.26355 2.1 2.82258C2.1 4.38161 3.35344 5.64516 4.9 5.64516ZM6.86 6.35081H6.49469C6.00906 6.57573 5.46875 6.70363 4.9 6.70363C4.33125 6.70363 3.79313 6.57573 3.30531 6.35081H2.94C1.31687 6.35081 0 7.6783 0 9.31452V10.2319C0 10.8162 0.470313 11.2903 1.05 11.2903H8.75C9.32969 11.2903 9.8 10.8162 9.8 10.2319V9.31452C9.8 7.6783 8.48313 6.35081 6.86 6.35081Z" fill="white"/>
</svg>
