<svg width="18" height="18" viewBox="0 0 18 18" fill="none" xmlns="http://www.w3.org/2000/svg">
<path d="M17.9121 0.0878622C17.8302 0.00536253 17.7072 -0.0216374 17.5977 0.0179625L0.197772 6.31793C0.0843722 6.35903 0.00637252 6.46433 0.000372551 6.58493C-0.00562742 6.70553 0.0612723 6.81803 0.170172 6.87053L6.43594 9.87802L12.0957 5.69454C12.2343 5.59224 12.408 5.76594 12.3054 5.90424L8.12224 11.564L11.1297 17.8298C11.1798 17.9339 11.2851 17.9999 11.4 17.9999C11.4051 17.9999 11.4099 17.9999 11.415 17.9996C11.5356 17.9933 11.6409 17.9156 11.6823 17.8022L17.9823 0.402261C18.0216 0.292761 17.9943 0.170062 17.9121 0.0878622Z" fill="#E2E2E2"/>
</svg>
