<svg width="40" height="40" viewBox="0 0 40 40" fill="none" xmlns="http://www.w3.org/2000/svg">
<g filter="url(#filter0_b)">
<path d="M0 20C0 8.95431 8.95431 0 20 0C31.0457 0 40 8.95431 40 20C40 31.0457 31.0457 40 20 40C8.95431 40 0 31.0457 0 20Z" fill="black" fill-opacity="0.24"/>
<path d="M20 22.4062C21.5547 22.4062 22.6016 21.2422 22.6016 19.5781V14.3516C22.6016 12.6797 21.5547 11.5234 20 11.5234C18.4375 11.5234 17.3906 12.6797 17.3906 14.3516V19.5781C17.3906 21.2422 18.4375 22.4062 20 22.4062ZM14.4062 19.7031C14.4062 22.7656 16.4297 24.9141 19.4062 25.1641V26.9844H16.5078C16.1797 26.9844 15.9141 27.25 15.9141 27.5781C15.9141 27.9062 16.1797 28.1641 16.5078 28.1641H23.4844C23.8125 28.1641 24.0781 27.9062 24.0781 27.5781C24.0781 27.25 23.8125 26.9844 23.4844 26.9844H20.5859V25.1641C23.5703 24.9141 25.5859 22.7656 25.5859 19.7031V18.1172C25.5859 17.7891 25.3281 17.5312 25 17.5312C24.6719 17.5312 24.4062 17.7891 24.4062 18.1172V19.6562C24.4062 22.3203 22.6719 24.0859 20 24.0859C17.3203 24.0859 15.5859 22.3203 15.5859 19.6562V18.1172C15.5859 17.7891 15.3281 17.5312 14.9922 17.5312C14.6641 17.5312 14.4062 17.7891 14.4062 18.1172V19.7031Z" fill="white"/>
</g>
<defs>
<filter id="filter0_b" x="-16" y="-16" width="72" height="72" filterUnits="userSpaceOnUse" color-interpolation-filters="sRGB">
<feFlood flood-opacity="0" result="BackgroundImageFix"/>
<feGaussianBlur in="BackgroundImage" stdDeviation="8"/>
<feComposite in2="SourceAlpha" operator="in" result="effect1_backgroundBlur"/>
<feBlend mode="normal" in="SourceGraphic" in2="effect1_backgroundBlur" result="shape"/>
</filter>
</defs>
</svg>
