<svg width="13" height="9" viewBox="0 0 13 9" fill="none" xmlns="http://www.w3.org/2000/svg">
<path d="M6.5 0C3.54545 0 1.02227 1.7135 0 4.13223C1.02227 6.55096 3.54545 8.26446 6.5 8.26446C9.45455 8.26446 11.9777 6.55096 13 4.13223C11.9777 1.7135 9.45455 0 6.5 0ZM6.5 6.88705C4.86909 6.88705 3.54545 5.65289 3.54545 4.13223C3.54545 2.61157 4.86909 1.37741 6.5 1.37741C8.13091 1.37741 9.45455 2.61157 9.45455 4.13223C9.45455 5.65289 8.13091 6.88705 6.5 6.88705ZM6.5 2.47934C5.51909 2.47934 4.72727 3.21763 4.72727 4.13223C4.72727 5.04683 5.51909 5.78512 6.5 5.78512C7.48091 5.78512 8.27273 5.04683 8.27273 4.13223C8.27273 3.21763 7.48091 2.47934 6.5 2.47934Z" fill="white" fill-opacity="0.7"/>
</svg>
