<svg width="23" height="21" viewBox="0 0 23 21" fill="none" xmlns="http://www.w3.org/2000/svg">
<path fill-rule="evenodd" clip-rule="evenodd" d="M14.0442 5.47673C14.0442 8.51703 11.5563 10.9535 8.45176 10.9535C5.34836 10.9535 2.85933 8.51703 2.85933 5.47673C2.85933 2.43643 5.34836 0 8.45176 0C11.5563 0 14.0442 2.43643 14.0442 5.47673ZM0 17.1542C0 14.3398 3.89333 13.6357 8.45167 13.6357C13.0348 13.6357 16.9033 14.3641 16.9033 17.1807C16.9033 19.9951 13.01 20.6992 8.45167 20.6992C3.86857 20.6992 0 19.9708 0 17.1542ZM16.2993 5.57657C16.2993 7.12482 15.8245 8.56948 14.9918 9.76952C14.9052 9.89294 14.9817 10.0593 15.1325 10.0858C15.3417 10.1199 15.5567 10.1409 15.7761 10.1453C17.9591 10.2015 19.9181 8.82514 20.4593 6.75236C21.2616 3.67679 18.9076 0.915284 15.9089 0.915284C15.5837 0.915284 15.272 0.948343 14.9682 1.00895C14.9265 1.01777 14.8815 1.0376 14.859 1.07286C14.8298 1.11804 14.8511 1.17645 14.8804 1.21502C15.7817 2.45252 16.2993 3.95889 16.2993 5.57657ZM19.9148 12.3072C21.3822 12.5882 22.3465 13.1601 22.7459 13.9943C23.0846 14.6775 23.0846 15.4709 22.7459 16.1541C22.1349 17.4456 20.1635 17.861 19.3972 17.9679C19.2386 17.99 19.1114 17.8577 19.1283 17.7012C19.5199 14.1221 16.4063 12.4251 15.6007 12.035C15.5669 12.0162 15.559 11.9898 15.5624 11.9722C15.5647 11.9611 15.5793 11.9435 15.6052 11.9402C17.3482 11.9072 19.2228 12.1419 19.9148 12.3072Z" fill="white"/>
</svg>
